{
.appVersion = "3201";
.formatVersion = 3;
DisplayStrings = (
"ẩ",
"ầầầ"
);
customParameters = (
{
name = fsType;
value = (
);
},
{
name = "Use Typo Metrics";
value = 1;
},
{
name = "Write lastChange";
value = 0;
},
{
name = "Use Line Breaks";
value = 1;
}
);
date = "2016-02-21 14:41:51 +0000";
familyName = "David Libre";
featurePrefixes = (
{
code = "languagesystem DFLT dflt;
languagesystem latn dflt;
languagesystem hebr dflt;
languagesystem hebr IWR;
languagesystem hebr JII;
languagesystem hebr JUD;
";
name = Languagesystems;
}
);
features = (
{
automatic = 1;
code = "feature locl;
feature ss01;
feature ss02;
feature ss03;
feature ordn;
feature case;
";
tag = aalt;
},
{
code = "lookup ccmp_Other_1 {
	@CombiningTopAccents = [acutecomb brevecomb caroncomb circumflexcomb commaturnedabovecomb dbloverlinecomb dieresiscomb dotaccentcomb gravecomb hookabovecomb hungarumlautcomb macroncomb ringcomb tildecomb];
	lookupflag UseMarkFilteringSet @CombiningTopAccents;
	sub i' @CombiningTopAccents by idotless;
	sub j' @CombiningTopAccents by jdotless;
} ccmp_Other_1;

lookup ccmp_latn_1 {
	sub fi by f i;
	sub fl by f l;
} ccmp_latn_1;

script latn;
lookup ccmp_latn_1;
";
tag = ccmp;
},
{
code = "script hebr;
sub zero by zero.hebr;
sub one by one.hebr;
sub two by two.hebr;
sub three by three.hebr;
sub four by four.hebr;
sub five by five.hebr;
sub six by six.hebr;
sub seven by seven.hebr;
sub eight by eight.hebr;
sub nine by nine.hebr;
language IWR ;
sub zero by zero.hebr;
sub one by one.hebr;
sub two by two.hebr;
sub three by three.hebr;
sub four by four.hebr;
sub five by five.hebr;
sub six by six.hebr;
sub seven by seven.hebr;
sub eight by eight.hebr;
sub nine by nine.hebr;
language JII ;
sub zero by zero.hebr;
sub one by one.hebr;
sub two by two.hebr;
sub three by three.hebr;
sub four by four.hebr;
sub five by five.hebr;
sub six by six.hebr;
sub seven by seven.hebr;
sub eight by eight.hebr;
sub nine by nine.hebr;
language JUD ;
sub zero by zero.hebr;
sub one by one.hebr;

glyphs = (
{
glyphname = A;
layers = (
{
anchors = (
{
name = H;
pos = (1000,0);
},
{
name = L;
pos = (599,-100);
},
{
name = O;
pos = (960,0);
},
{
name = U;
pos = (599,1370);
}
);
hints = (
{
horizontal = 1;
name = hr00;
origin = (0,0);
target = (0,0);
type = Tag;
}
);
layerId = "DDA1A922-6BCD-4FE9-B3B8-E722553F0315";
shapes = (
{
closed = 1;
nodes = (
(789,445,l),
(903,111,ls),
(918,67,o),
(879,49,o),
(776,43,c),
(776,0,l),
(1198,0,l),
(1198,43,l),
(1112,53,o),
(1080,74,o),
(1067,111,cs),
(647,1317,l),
(612,1298,o),
(561,1270,o),
(530,1237,c),
(158,111,ls),
(145,71,o),
(90,59,o),
(0,43,c),
(0,0,l),
(416,0,l),
(416,43,l),
(307,55,o),
(257,70,o),
(270,111,cs),
(381,445,l)
);
},
{
closed = 1;
nodes = (
(411,535,l),
(582,1049,l),
(758,535,l)
);
}
);
width = 1219;
},
{
anchors = (
{
name = H;
pos = (1056,0);
},
{
name = L;
pos = (633,-100);
},
{
name = O;
pos = (1014,0);
},
{
name = U;
pos = (633,1370);
}
);
layerId = "8BF1279D-F38F-4102-BF8D-9111B5ED49F5";
shapes = (
{
closed = 1;
nodes = (
(789,430,l),
(891,141,ls),
(906,97,o),
(872,79,o),
(769,73,c),
(769,0,l),
(1266,0,l),
(1266,73,l),
(1180,83,o),
(1155,104,o),
(1142,141,cs),
(722,1317,l),
(653,1297,o),
(563,1261,o),
(500,1207,c),
(151,141,ls),
(138,101,o),
(90,89,o),
(0,73,c),
(0,0,l),
(437,0,l),
(437,73,l),
(328,85,o),
(283,100,o),
(296,141,cs),
(392,430,l)
);
},
{
closed = 1;
nodes = (
(432,550,l),
(582,1015,l),
(747,550,l)
);
}
);
width = 1287;
},
{
anchors = (
{
name = H;
pos = (1037,0);
},
{
name = L;
pos = (622,-100);
},
{
name = O;
pos = (996,0);
},
{
name = U;
pos = (622,1370);
}
);
layerId = "E8A33793-4A0E-4E9A-9368-A1D232455500";
shapes = (
{
closed = 1;
nodes = (
(789,435,l),
(895,131,ls),
(910,87,o),
(874,69,o),
(771,63,c),
(771,0,l),
(1243,0,l),
(1243,63,l),
(1157,73,o),
(1130,94,o),
(1117,131,cs),
(697,1317,l),
(639,1297,o),
(562,1264,o),
(510,1217,c),
(153,131,ls),
(140,91,o),
(90,79,o),
(0,63,c),
(0,0,l),
(430,0,l),
(430,63,l),
(321,75,o),
(274,90,o),
(287,131,cs),
(388,435,l)
);
},
{
closed = 1;
nodes = (
(425,545,l),
(582,1026,l),
(751,545,l)
);
}
);
width = 1264;
}
);
unicode = 65;
},
{
glyphname = AE;
layers = (
{
anchors = (
{
name = L;
pos = (854,-100);
},
{
name = U;
pos = (924,1370);
}
);
hints = (
{
horizontal = 1;
name = hr00;
origin = (0,0);
target = (0,0);
type = Tag;
}
);
layerId = "DDA1A922-6BCD-4FE9-B3B8-E722553F0315";
shapes = (
{
closed = 1;
nodes = (
(1536,244,c),
(1491,262,l),
(1434,106,o),
(1393,90,o),
(1270,90,cs),
(1141,90,ls),
(965,90,o),
(934,115,o),
(934,154,cs),
(934,651,l),
(1075,651,ls),
(1188,651,o),
(1235,635,o),
(1274,596,c),
(1303,617,o),
(1343,670,o),
(1366,707,c),
(1339,735,l),
(934,735,l),
(934,1170,l),
(1300,1170,ls),
(1352,1170,o),
(1376,1133,o),
(1382,1010,c),
(1427,1010,l),
(1446,1061,o),
(1464,1167,o),
(1468,1235,c),
(1438,1260,l),
(381,1260,l),
(381,1217,l),
(512,1192,o),
(590,1178,o),
(571,1133,c),
(158,111,l),
(141,72,o),
(90,59,o),
(0,43,c),
(0,0,l),
(416,0,l),
(416,43,l),
(307,55,o),
(268,72,o),
(285,111,c),
(505,651,l),
(774,651,l),
(774,104,ls),
(774,86,o),
(721,61,o),
(631,43,c),
(631,0,l),
(1493,0,l),
(1503,39,o),
(1524,129,o)
);
},
{
closed = 1;
nodes = (
(774,735,l),
(539,735,l),
(696,1131,ls),
(715,1177,o),
(774,1177,o),
(774,1148,cs)
);
}
);
width = 1595;
},
{
anchors = (
{
name = L;
pos = (894,-100);
},
{
name = U;
pos = (968,1370);
}
);
layerId = "8BF1279D-F38F-4102-BF8D-9111B5ED49F5";
shapes = (
{
closed = 1;
nodes = (
(1609,304,c),
(1536,330,l),
(1479,174,o),
(1434,120,o),
(1311,120,cs),
(1216,120,ls),
(1040,120,o),
(1009,145,o),
(1009,184,cs),
(1009,624,l),
(1225,624,ls),
(1232,624,o),
(1310,608,o),
(1349,569,c),
(1375,592,o),
(1418,663,o),
(1441,700,c),
(1407,735,l),
(1009,735,l),
(1009,1140,l),
(1345,1140,ls),
(1397,1140,o),
(1421,1073,o),
(1427,950,c),
(1502,950,l),
(1521,1001,o),
(1539,1160,o),
(1543,1228,c),
(1506,1260,l),
(381,1260,l),
(381,1187,l),
(512,1162,o),
(553,1148,o),
(534,1103,c),
(145,141,l),
(128,102,o),
(82,85,o),
(0,73,c),
(0,0,l),
(416,0,l),
(416,73,l),
(318,85,o),
(291,102,o),
(308,141,c),
(504,624,l),
(759,624,l),
(759,134,ls),
(759,116,o),
(714,91,o),
(624,73,c),
(624,0,l),
(1568,0,l),
(1578,39,o),
(1597,189,o)
);
},
{
closed = 1;
nodes = (
(759,735,l),
(547,735,l),
(696,1101,ls),
(715,1147,o),
(759,1147,o),
(759,1118,cs)
);
}
);
width = 1655;
},
{
anchors = (
{
name = L;
pos = (881,-100);
},
{
name = U;
pos = (953,1370);
}
);
layerId = "E8A33793-4A0E-4E9A-9368-A1D232455500";
shapes = (
{
closed = 1;
nodes = (
(1585,284,c),
(1521,307,l),
(1464,151,o),
(1420,110,o),
(1297,110,cs),
(1191,110,ls),
(1015,110,o),
(984,135,o),
(984,174,cs),
(984,633,l),
(1175,633,ls),
(1217,633,o),
(1285,617,o),
(1324,578,c),
(1351,600,o),
(1393,665,o),
(1416,702,c),
(1384,735,l),
(984,735,l),
(984,1150,l),
(1330,1150,ls),
(1382,1150,o),
(1406,1093,o),
(1412,970,c),
(1477,970,l),
(1496,1021,o),
(1514,1162,o),
(1518,1230,c),
(1483,1260,l),
(381,1260,l),
(381,1197,l),
(512,1172,o),
(565,1158,o),
(546,1113,c),
(149,131,l),
(132,92,o),
(85,76,o),
(0,63,c),
(0,0,l),
(416,0,l),
(416,63,l),
(314,75,o),
(283,92,o),
(300,131,c),
(504,633,l),
(764,633,l),
(764,124,ls),
(764,106,o),
(716,81,o),
(626,63,c),
(626,0,l),
(1543,0,l),
(1553,39,o),
(1573,169,o)
);
},
{
closed = 1;
nodes = (
(764,735,l),
(544,735,l),
(696,1111,ls),
(715,1157,o),
(764,1157,o),
(764,1128,cs)
);
}
);
width = 1635;
}
);
unicode = 198;
},
{
glyphname = B;
layers = (
{
anchors = (
{
name = L;
pos = (528,-100);
},
{
name = U;
pos = (528,1370);
}
);
hints = (
{
horizontal = 1;
name = hr00;
origin = (0,0);
target = (0,0);
type = Tag;
}
);
layerId = "DDA1A922-6BCD-4FE9-B3B8-E722553F0315";
shapes = (
{
closed = 1;
nodes = (
(1016,356,cs),
(1016,541,o),
(885,690,o),
(715,723,c),
(831,768,o),
(905,877,o),
(905,1020,cs),
(905,1188,o),
(737,1290,o),
(469,1290,cs),
(324,1290,o),
(145,1259,o),
(41,1230,c),
(50,1168,l),
(95,1176,o),
(144,1184,o),
(195,1190,c),
(195,104,ls),
(195,86,o),
(140,61,o),
(50,43,c),
(50,0,l),
(123,0,l),
(123,0,o),
(442,-14,o),
(559,-14,cs),
(829,-14,o),
(1016,129,o)
);
},
{
closed = 1;
nodes = (
(520,650,cs),
(752,650,o),
(852,469,o),
(852,322,cs),
(852,172,o),
(729,70,o),
(537,70,cs),
(485,70,o),
(410,74,o),
(364,89,c),
(358,94,o),
(355,100,o),
(355,104,cs),
(355,635,l),
(403,643,o),
(456,650,o)
);
},
{
closed = 1;
nodes = (
(413,1206,cs),
(671,1206,o),
(750,1104,o),
(750,971,cs),
(750,856,o),
(692,725,o),
(389,725,cs),
(355,725,l),
(355,1204,l),
(375,1205,o),
(395,1206,o)
);
}
);
width = 1126;
},
{
anchors = (
{
name = L;
pos = (579,-100);
},
{
name = U;
pos = (579,1370);
}
);
layerId = "8BF1279D-F38F-4102-BF8D-9111B5ED49F5";
shapes = (
{
closed = 1;
nodes = (
(1129,356,cs),
(1129,541,o),
(990,690,o),
(790,723,c),
(939,770,o),
(1018,877,o),
(1018,1020,cs),
(1018,1188,o),
(835,1290,o),
(529,1290,cs),
(369,1290,o),
(149,1259,o),
(30,1230,c),
(43,1146,l),
(81,1153,o),
(129,1160,o),
(180,1165,c),
(180,134,ls),
(180,116,o),
(133,91,o),
(43,73,c),
(43,0,l),
(123,0,l),
(123,0,o),
(495,-14,o),
(612,-14,cs),
(934,-14,o),
(1129,129,o)
);
},
{
closed = 1;
nodes = (
(565,639,cs),
(797,639,o),
(867,484,o),
(867,337,cs),
(867,187,o),
(767,93,o),
(575,93,cs),
(522,93,o),
(474,98,o),
(435,114,c),
(431,119,o),
(430,123,o),
(430,127,cs),
(430,626,l),
(468,633,o),
(504,639,o)
);
},
{
closed = 1;
nodes = (
(466,1184,cs),
(694,1184,o),
(765,1104,o),
(765,971,cs),
(765,856,o),
(715,740,o),
(449,740,cs),
(430,740,l),
(430,1183,l),
(443,1184,o),
(455,1184,o)
);
}
);
width = 1231;
},
{
anchors = (
{
name = L;
pos = (562,-100);
},
{
name = U;
pos = (562,1370);
}
);
layerId = "E8A33793-4A0E-4E9A-9368-A1D232455500";
shapes = (
{
closed = 1;
nodes = (
(1092,356,cs),
(1092,541,o),
(955,690,o),
(765,723,c),
(903,769,o),
(981,877,o),
(981,1020,cs),
(981,1188,o),
(803,1290,o),
(509,1290,cs),
(354,1290,o),
(148,1259,o),
(34,1230,c),
(46,1153,l),
(86,1161,o),
(134,1168,o),
(185,1173,c),
(185,124,ls),
(185,106,o),
(136,81,o),
(46,63,c),
(46,0,l),
(123,0,l),
(123,0,o),
(478,-14,o),
(595,-14,cs),
(899,-14,o),
(1092,129,o)
);
},
{
closed = 1;
nodes = (
(550,643,cs),
(782,643,o),
(862,479,o),
(862,332,cs),
(862,182,o),
(754,85,o),
(562,85,cs),
(510,85,o),
(453,90,o),
(411,106,c),
(407,111,o),
(405,115,o),
(405,119,cs),
(405,629,l),
(446,636,o),
(488,643,o)
);
},
{
closed = 1;
nodes = (
(448,1191,cs),
(686,1191,o),
(760,1104,o),
(760,971,cs),
(760,856,o),
(707,735,o),
(429,735,cs),
(405,735,l),
(405,1190,l),
(420,1191,o),
(435,1191,o)
);
}
);
width = 1196;
}
);
unicode = 66;
},
{
glyphname = Bhook;
layers = (
{
anchors = (
{
name = L;
pos = (638,-100);
},
{
name = U;
pos = (638,1370);
}
);
hints = (
{
horizontal = 1;
name = hr00;
origin = (0,0);
target = (0,0);
type = Tag;
}
);
layerId = "DDA1A922-6BCD-4FE9-B3B8-E722553F0315";
shapes = (
{
closed = 1;
nodes = (
(30,1003,cs),
(30,930,o),
(66,877,o),
(115,856,c),
(170,867,o),
(256,914,o),
(263,930,c),
(222,949,o),
(194,988,o),
(194,1036,cs),
(194,1130,o),
(286,1181,o),
(425,1199,c),
(425,104,ls),
(425,86,o),
(370,61,o),
(280,43,c),
(280,0,l),
(353,0,l),
(353,0,o),
(672,-14,o),
(789,-14,cs),
(1059,-14,o),
(1246,129,o),
(1246,356,cs),
(1246,541,o),
(1115,690,o),
(945,723,c),
(1061,768,o),
(1135,877,o),
(1135,1020,cs),
(1135,1096,o),
(1097,1163,o),
(1037,1203,cs),
(942,1266,o),
(817,1290,o),
(589,1290,cs),
(243,1290,o),
(30,1177,o)
);
},
{
closed = 1;
nodes = (
(750,649,cs),
(982,649,o),
(1082,469,o),
(1082,322,cs),
(1082,172,o),
(959,70,o),
(767,70,cs),
(715,70,o),
(640,74,o),
(594,89,c),
(588,94,o),
(585,100,o),
(585,104,cs),
(585,635,l),
(633,643,o),
(686,649,o)
);
},
{
closed = 1;
nodes = (
(904,1136,cs),
(952,1098,o),
(979,1036,o),
(979,971,cs),
(979,856,o),
(922,725,o),
(619,725,cs),
(585,725,l),
(585,1206,l),
(763,1204,o),
(839,1187,o)
);
}
);
width = 1356;
},
{
anchors = (
{
name = L;
pos = (717,-100);
},
{
name = U;
pos = (717,1370);
}
);
layerId = "8BF1279D-F38F-4102-BF8D-9111B5ED49F5";
shapes = (
{
closed = 1;
nodes = (
(23,973,cs),
(23,886,o),
(66,802,o),
(115,781,c),
(170,792,o),
(346,869,o),
(353,885,c),
(312,904,o),
(277,957,o),
(277,1014,cs),
(277,1093,o),
(348,1141,o),
(463,1165,c),
(463,134,ls),
(463,116,o),
(415,91,o),
(325,73,c),
(325,0,l),
(391,0,l),
(391,0,o),
(777,-14,o),
(894,-14,cs),
(1218,-14,o),
(1411,129,o),
(1411,356,cs),
(1411,541,o),
(1276,683,o),
(1073,723,c),
(1226,776,o),
(1300,877,o),
(1300,1020,cs),
(1300,1096,o),
(1255,1163,o),
(1195,1203,cs),
(1100,1266,o),
(960,1290,o),
(732,1290,cs),
(240,1290,o),
(23,1169,o)
);
},
{
closed = 1;
nodes = (
(848,634,cs),
(1080,634,o),
(1150,484,o),
(1150,337,cs),
(1150,187,o),
(1049,93,o),
(857,93,cs),
(805,93,o),
(759,102,o),
(721,119,c),
(716,125,o),
(713,130,o),
(713,134,cs),
(713,620,l),
(753,628,o),
(797,634,o)
);
},
{
closed = 1;
nodes = (
(979,1129,cs),
(1026,1088,o),
(1047,1036,o),
(1047,971,cs),
(1047,856,o),
(1005,740,o),
(732,740,cs),
(713,740,l),
(713,1184,l),
(882,1182,o),
(937,1164,o)
);
}
);
width = 1514;
},
{
anchors = (
{
name = L;
pos = (691,-100);
},
{
name = U;
pos = (691,1370);
}
);
layerId = "E8A33793-4A0E-4E9A-9368-A1D232455500";
shapes = (
{
closed = 1;
nodes = (
(25,983,cs),
(25,901,o),
(66,827,o),
(115,806,c),
(170,817,o),
(316,884,o),
(323,900,c),
(282,919,o),
(249,967,o),
(249,1021,cs),
(249,1105,o),
(327,1154,o),
(450,1176,c),
(450,124,ls),
(450,106,o),
(400,81,o),
(310,63,c),
(310,0,l),
(378,0,l),
(378,0,o),
(742,-14,o),
(859,-14,cs),
(1165,-14,o),
(1356,129,o),
(1356,356,cs),
(1356,541,o),
(1222,685,o),
(1030,723,c),
(1171,773,o),
(1245,877,o),
(1245,1020,cs),
(1245,1096,o),
(1202,1163,o),
(1142,1203,cs),
(1047,1266,o),
(912,1290,o),
(684,1290,cs),
(241,1290,o),
(25,1172,o)
);
},
{
closed = 1;
nodes = (
(815,639,cs),
(1047,639,o),
(1127,479,o),
(1127,332,cs),
(1127,182,o),
(1019,85,o),
(827,85,cs),
(775,85,o),
(719,93,o),
(678,109,c),
(673,115,o),
(670,120,o),
(670,124,cs),
(670,625,l),
(713,633,o),
(760,639,o)
);
},
{
closed = 1;
nodes = (
(954,1131,cs),
(1001,1091,o),
(1024,1036,o),
(1024,971,cs),
(1024,856,o),
(977,735,o),
(694,735,cs),
(670,735,l),
(670,1191,l),
(842,1189,o),
(904,1172,o)
);
}
);
width = 1461;
}
);
unicode = 385;
},
{
glyphname = C;
layers = (
{
anchors = (
{
name = H;
pos = (584,0);
},
{
name = L;
pos = (614,-100);
},
{
name = U;
pos = (614,1370);
}
);
hints = (
{
horizontal = 1;
name = hr00;
origin = (0,0);
target = (0,0);
type = Tag;
}
);
layerId = "DDA1A922-6BCD-4FE9-B3B8-E722553F0315";
shapes = (
{
closed = 1;
nodes = (
(1018,211,c),
(1010,219,o),
(995,250,o),
(981,256,c),
(834,133,o),
(715,90,o),
(643,90,cs),
(453,90,o),
(225,268,o),
(225,623,cs),
(225,1038,o),
(455,1180,o),
(592,1180,cs),
(713,1180,o),
(807,1135,o),
(874,1073,c),
(909,1067,l),
(940,1098,o),
(1014,1178,o),
(999,1190,cs),
(930,1245,o),
(819,1290,o),
(676,1290,cs),
(348,1290,o),
(70,1012,o),
(70,586,cs),
(70,199,o),
(324,-30,o),
(571,-30,cs),
(709,-30,o),
(848,29,o)
);
}
);
width = 1098;
},
{
anchors = (
{
name = H;
pos = (605,0);
},
{
name = L;
pos = (637,-100);
},
{
name = U;
pos = (637,1370);
}
);
layerId = "8BF1279D-F38F-4102-BF8D-9111B5ED49F5";
shapes = (
{
closed = 1;
nodes = (
(1071,211,c),
(1063,219,o),
(1033,269,o),
(1019,279,c),
(879,163,o),
(753,135,o),
(681,135,cs),
(506,135,o),
(308,283,o),
(308,623,cs),
(308,1038,o),
(485,1157,o),
(622,1158,cs),
(725,1158,o),
(815,1107,o),
(882,991,c),
(947,977,l),
(978,1008,o),
(1067,1178,o),
(1052,1190,cs),
(983,1245,o),
(834,1289,o),
(691,1290,cs),
(334,1292,o),
(55,1012,o),
(55,586,cs),
(55,199,o),
(317,-30,o),
(586,-30,cs),
(739,-30,o),
(901,37,o)
);
}
);
width = 1143;
},
{
anchors = (
{
name = H;
pos = (598,0);
},
{
name = L;
pos = (629,-100);
},
{
name = U;
pos = (629,1370);
}
);
layerId = "E8A33793-4A0E-4E9A-9368-A1D232455500";
shapes = (
{
closed = 1;
nodes = (
(1053,211,c),
(1045,219,o),
(1020,263,o),
(1006,271,c),
(864,153,o),
(740,120,o),
(668,120,cs),
(488,120,o),
(280,278,o),
(280,623,cs),
(280,1038,o),
(475,1165,o),
(612,1165,cs),
(721,1165,o),
(812,1116,o),
(879,1018,c),
(934,1007,l),
(965,1038,o),
(1049,1178,o),
(1034,1190,cs),
(965,1245,o),
(829,1289,o),
(686,1290,cs),
(339,1291,o),
(60,1012,o),
(60,586,cs),
(60,199,o),
(319,-30,o),
(581,-30,cs),
(729,-30,o),
(883,34,o)
);
}
);
width = 1128;
}
);
unicode = 67;
},
{
glyphname = D;
layers = (
{
anchors = (
{
name = L;
pos = (550,-100);
},
{
name = U;
pos = (550,1370);
}
);
hints = (
{
horizontal = 1;
name = hr00;
origin = (0,0);
target = (0,0);
type = Tag;
}
);
layerId = "DDA1A922-6BCD-4FE9-B3B8-E722553F0315";
shapes = (
{
closed = 1;
nodes = (
(1123,676,cs),
(1123,1063,o),
(889,1290,o),
(518,1290,cs),
(360,1290,o),
(158,1263,o),
(41,1230,c),
(50,1168,l),
(94,1174,o),
(142,1182,o),
(195,1188,c),
(195,104,ls),
(195,86,o),
(140,61,o),
(50,43,c),
(50,0,l),
(559,0,ls),
(795,0,o),
(1123,176,o)
);
},
{
closed = 1;
nodes = (
(453,1206,cs),
(774,1206,o),
(953,991,o),
(953,637,cs),
(953,262,o),
(721,84,o),
(537,84,cs),
(433,84,o),
(384,95,o),
(365,118,cs),
(358,128,o),
(355,140,o),
(355,154,cs),
(355,1203,l),
(387,1205,o),
(420,1206,o)
);
}
);
width = 1214;
},
{
anchors = (
{
name = L;
pos = (590,-100);
},
{
name = U;
pos = (590,1370);
}
);
layerId = "8BF1279D-F38F-4102-BF8D-9111B5ED49F5";
shapes = (
{
closed = 1;
nodes = (
(1221,676,cs),
(1221,1063,o),
(987,1290,o),
(578,1290,cs),
(405,1290,o),
(162,1263,o),
(30,1230,c),
(43,1138,l),
(180,1157,l),
(180,134,ls),
(180,116,o),
(133,91,o),
(43,73,c),
(43,0,l),
(619,0,ls),
(893,0,o),
(1221,176,o)
);
},
{
closed = 1;
nodes = (
(506,1184,cs),
(797,1184,o),
(953,991,o),
(953,637,cs),
(953,262,o),
(736,107,o),
(582,107,cs),
(470,107,o),
(440,123,o),
(432,153,cs),
(430,162,o),
(430,172,o),
(430,184,cs),
(430,1182,l),
(456,1183,o),
(482,1184,o)
);
}
);
width = 1304;
},
{
anchors = (
{
name = U;
pos = (563,1370);
}
);
layerId = "E8A33793-4A0E-4E9A-9368-A1D232455500";
shapes = (
{
closed = 1;
nodes = (
(594,0,l),
(841,0,o),
(1173,176,o),
(1173,676,cs),
(1173,890,o),
(1104,1080,o),
(911,1202,cs),
(810,1265,o),
(677,1290,o),
(453,1290,c),
(316,1290,o),
(134,1262,o),
(30,1225,c),
(45,1147,l),
(170,1170,l),
(170,124,ls),
(170,106,o),
(120,81,o),
(30,63,c),
(30,0,l)
);
},
{
closed = 1;
nodes = (
(474,99,o),
(428,110,o),
(407,130,cs),
(396,142,o),
(390,156,o),
(390,174,cs),
(390,1191,l),
(602,1189,o),
(709,1157,o),
(788,1077,cs),
(898,963,o),
(938,818,o),
(938,637,cs),
(938,262,o),
(711,99,o),
(552,99,cs)
);
}
);
width = 1274;
},
{
associatedMasterId = "E8A33793-4A0E-4E9A-9368-A1D232455500";
layerId = "6DC9DEE2-DD34-4DB3-8C90-B5C3B9880734";
name = "SemiBold Nov 22 15, 18:14";
shapes = (
{
closed = 1;
nodes = (
(795,0,o),
(1123,176,o),
(1123,676,cs),
(1123,1063,o),
(889,1290,o),
(518,1290,cs),
(360,1290,o),
(158,1263,o),
(41,1230,c),
(50,1168,l),
(94,1174,o),
(142,1182,o),
(195,1188,c),
(195,104,ls),
(195,86,o),
(140,61,o),
(50,43,c),
(50,0,l),
(559,0,ls)
);
},
{
closed = 1;
nodes = (
(387,1205,o),
(420,1206,o),
(453,1206,cs),
(774,1206,o),
(953,991,o),
(953,637,cs),
(953,262,o),
(721,84,o),
(537,84,cs),
(433,84,o),
(384,95,o),
(365,118,cs),
(358,128,o),
(355,140,o),
(355,154,cs),
(355,1203,l)
);
}
);
visible = 1;
width = 1274;
}
);
unicode = 68;
},
{
glyphname = Dcroat;
layers = (
{
anchors = (
{
name = L;
pos = (575,-100);
},
{
name = U;
pos = (575,1370);
}
);
hints = (
{
horizontal = 1;
name = hr00;
origin = (0,0);
target = (0,0);
type = Tag;
}
);
layerId = "DDA1A922-6BCD-4FE9-B3B8-E722553F0315";
shapes = (
{
closed = 1;
nodes = (
(639,682,l),
(614,705,l),
(49,705,l),
(41,684,o),
(33,660,o),
(27,640,c),
(49,615,l),
(614,615,l)
);
},
{
ref = D;
}
);
width = 1214;
},
{
anchors = (
{
name = L;
pos = (624,-100);
},
{
name = U;
pos = (624,1370);
}
);
layerId = "8BF1279D-F38F-4102-BF8D-9111B5ED49F5";
shapes = (
{
closed = 1;
nodes = (
(696,712,l),
(671,735,l),
(61,735,l),
(53,714,o),
(34,659,o),
(28,639,c),
(50,615,l),
(660,615,l)
);
},
{
ref = D;
}
);
width = 1304;
},
{
anchors = (
{
name = L;
pos = (608,-100);
},
{
name = U;
pos = (608,1370);
}
);
layerId = "E8A33793-4A0E-4E9A-9368-A1D232455500";
shapes = (
{
closed = 1;
nodes = (
(677,702,l),
(652,725,l),
(57,725,l),
(49,704,o),
(34,659,o),
(28,639,c),
(50,615,l),
(645,615,l)
);
},
{
ref = D;
}
);
width = 1274;
}
);
unicode = 272;
},
{
glyphname = Dhook;
layers = (
{
anchors = (
{
name = L;
pos = (692,-100);
},
{
name = U;
pos = (692,1370);
}
);
hints = (
{
horizontal = 1;
name = hr00;
origin = (0,0);
target = (0,0);
type = Tag;
}
);
layerId = "DDA1A922-6BCD-4FE9-B3B8-E722553F0315";
shapes = (
{
closed = 1;
nodes = (
(30,1003,cs),
(30,930,o),
(66,877,o),
(115,856,c),
(170,867,o),
(256,914,o),
(263,930,c),
(222,949,o),
(194,988,o),
(194,1036,cs),
(194,1121,o),
(267,1178,o),
(425,1198,c),
(425,104,ls),
(425,86,o),
(370,61,o),
(280,43,c),
(280,0,l),
(789,0,ls),
(1025,0,o),
(1353,176,o),
(1353,676,cs),
(1353,890,o),
(1285,1081,o),
(1096,1202,cs),
(996,1266,o),
(875,1290,o),
(658,1290,cs),
(288,1290,o),
(30,1206,o)
);
},
{
closed = 1;
nodes = (
(1003,1103,cs),
(1131,998,o),
(1183,818,o),
(1183,637,cs),
(1183,262,o),
(951,84,o),
(767,84,cs),
(663,84,o),
(614,95,o),
(595,118,cs),
(588,128,o),
(585,140,o),
(585,154,cs),
(585,1206,l),
(807,1205,o),
(907,1181,o)
);
}
);
width = 1444;
},
{
anchors = (
{
name = L;
pos = (763,-100);
},
{
name = U;
pos = (763,1370);
}
);
layerId = "8BF1279D-F38F-4102-BF8D-9111B5ED49F5";
shapes = (
{
closed = 1;
nodes = (
(23,973,cs),
(23,900,o),
(50,817,o),
(115,781,c),
(170,792,o),
(322,867,o),
(338,885,c),
(280,917,o),
(262,966,o),
(262,1014,cs),
(262,1088,o),
(331,1140,o),
(463,1166,c),
(463,134,ls),
(463,116,o),
(415,91,o),
(325,73,c),
(325,0,l),
(917,0,ls),
(1169,0,o),
(1503,176,o),
(1503,676,cs),
(1503,890,o),
(1434,1080,o),
(1239,1202,cs),
(1138,1265,o),
(999,1290,o),
(771,1290,cs),
(242,1290,o),
(23,1176,o)
);
},
{
closed = 1;
nodes = (
(1101,1064,c),
(1202,946,o),
(1236,818,o),
(1236,637,cs),
(1236,262,o),
(1011,107,o),
(865,107,cs),
(800,107,o),
(756,117,o),
(733,136,c),
(720,149,o),
(713,164,o),
(713,184,cs),
(713,1184,l),
(920,1181,o),
(1030,1145,o)
);
}
);
width = 1587;
},
{
anchors = (
{
name = L;
pos = (739,-100);
},
{
name = U;
pos = (739,1370);
}
);
layerId = "E8A33793-4A0E-4E9A-9368-A1D232455500";
shapes = (
{
closed = 1;
nodes = (
(25,983,cs),
(25,910,o),
(55,837,o),
(115,806,c),
(170,817,o),
(300,883,o),
(313,900,c),
(260,928,o),
(239,973,o),
(239,1021,cs),
(239,1099,o),
(309,1153,o),
(450,1177,c),
(450,124,ls),
(450,106,o),
(400,81,o),
(310,63,c),
(310,0,l),
(874,0,ls),
(1121,0,o),
(1453,176,o),
(1453,676,cs),
(1453,890,o),
(1384,1080,o),
(1191,1202,cs),
(1090,1265,o),
(957,1290,o),
(733,1290,cs),
(257,1290,o),
(25,1186,o)
);
},
{
closed = 1;
nodes = (
(1068,1077,cs),
(1178,963,o),
(1218,818,o),
(1218,637,cs),
(1218,262,o),
(991,99,o),
(832,99,cs),
(754,99,o),
(708,110,o),
(687,130,cs),
(676,142,o),
(670,156,o),
(670,174,cs),
(670,1191,l),
(882,1189,o),
(989,1157,o)
);
}
);
width = 1539;
}
);
unicode = 394;
},
{
glyphname = Dtail;
layers = (
{
anchors = (
{
name = L;
pos = (575,-100);
},
{
name = U;
pos = (575,1370);
}
);
hints = (
{
horizontal = 1;
name = hr00;
origin = (0,0);
target = (0,0);
type = Tag;
}
);
layerId = "DDA1A922-6BCD-4FE9-B3B8-E722553F0315";
shapes = (
{
closed = 1;
nodes = (
(639,682,l),
(614,705,l),
(49,705,l),
(41,684,o),
(33,660,o),
(27,640,c),
(49,615,l),
(614,615,l)
);
},
{
ref = D;
}
);
width = 1214;
},
{
anchors = (
{
name = L;
pos = (624,-100);
},
{
name = U;
pos = (624,1370);
}
);
layerId = "8BF1279D-F38F-4102-BF8D-9111B5ED49F5";
shapes = (
{
closed = 1;
nodes = (
(696,712,l),
(671,735,l),
(61,735,l),
(53,714,o),
(34,659,o),
(28,639,c),
(50,615,l),
(660,615,l)
);
},
{
ref = D;
}
);
width = 1304;
},
{
anchors = (
{
name = L;
pos = (608,-100);
},
{
name = U;
pos = (608,1370);
}
);
layerId = "E8A33793-4A0E-4E9A-9368-A1D232455500";
shapes = (
{
closed = 1;
nodes = (
(677,702,l),
(652,725,l),
(57,725,l),
(49,704,o),
(34,659,o),
(28,639,c),
(50,615,l),
(645,615,l)
);
},
{
ref = D;
}
);
width = 1274;
}
);
unicode = 393;
},
{
glyphname = Eth;
layers = (
{
anchors = (
{
name = L;
pos = (575,-100);
},
{
name = U;
pos = (575,1370);
}
);
hints = (
{
horizontal = 1;
name = hr00;
origin = (0,0);
target = (0,0);
type = Tag;
}
);
layerId = "DDA1A922-6BCD-4FE9-B3B8-E722553F0315";
shapes = (
{
closed = 1;
nodes = (
(639,682,l),
(614,705,l),
(49,705,l),
(41,684,o),
(33,660,o),
(27,640,c),
(49,615,l),
(614,615,l)
);
},
{
ref = D;
}
);
width = 1214;
},
{
anchors = (
{
name = L;
pos = (624,-100);
},
{
name = U;
pos = (624,1370);
}
);
layerId = "8BF1279D-F38F-4102-BF8D-9111B5ED49F5";
shapes = (
{
closed = 1;
nodes = (
(696,712,l),
(671,735,l),
(61,735,l),
(53,714,o),
(34,659,o),
(28,639,c),
(50,615,l),
(660,615,l)
);
},
{
ref = D;
}
);
width = 1304;
},
{
anchors = (
{
name = L;
pos = (608,-100);
},
{
name = U;
pos = (608,1370);
}
);
layerId = "E8A33793-4A0E-4E9A-9368-A1D232455500";
shapes = (
{
closed = 1;
nodes = (
(677,702,l),
(652,725,l),
(57,725,l),
(49,704,o),
(34,659,o),
(28,639,c),
(50,615,l),
(645,615,l)
);
},
{
ref = D;
}
);
width = 1274;
}
);
unicode = 208;
},
{
glyphname = E;
layers = (
{
anchors = (
{
name = H;
pos = (502,0);
},
{
name = L;
pos = (502,-100);
},
{
name = O;
pos = (750,0);
},
{
name = U;
pos = (502,1370);
}
);
hints = (
{
horizontal = 1;
name = hr00;
origin = (0,0);
target = (0,0);
type = Tag;
}
);
layerId = "DDA1A922-6BCD-4FE9-B3B8-E722553F0315";
shapes = (
{
closed = 1;
nodes = (
(954,244,c),
(911,262,l),
(854,106,o),
(811,90,o),
(688,90,cs),
(559,90,ls),
(383,90,o),
(355,115,o),
(355,154,cs),
(355,651,l),
(496,651,ls),
(608,651,o),
(653,635,o),
(694,596,c),
(723,617,o),
(764,670,o),
(786,707,c),
(760,735,l),
(355,735,l),
(355,1170,l),
(721,1170,ls),
(770,1170,o),
(797,1133,o),
(803,1010,c),
(848,1010,l),
(864,1061,o),
(885,1167,o),
(889,1235,c),
(856,1260,l),
(50,1260,l),
(50,1217,l),
(146,1198,o),
(195,1171,o),
(195,1155,cs),
(195,104,ls),
(195,86,o),
(140,61,o),
(50,43,c),
(50,0,l),
(913,0,l),
(924,39,o),
(944,129,o)
);
}
);
width = 1016;
},
{
anchors = (
{
name = H;
pos = (536,0);
},
{
name = L;
pos = (536,-100);
},
{
name = O;
pos = (806,0);
},
{
name = U;
pos = (536,1370);
}
);
layerId = "8BF1279D-F38F-4102-BF8D-9111B5ED49F5";
shapes = (
{
closed = 1;
nodes = (
(1029,304,c),
(956,330,l),
(899,174,o),
(856,120,o),
(733,120,cs),
(634,120,ls),
(458,120,o),
(430,145,o),
(430,184,cs),
(430,629,l),
(571,629,ls),
(683,629,o),
(728,613,o),
(769,574,c),
(798,595,o),
(839,663,o),
(861,700,c),
(828,735,l),
(430,735,l),
(430,1140,l),
(766,1140,ls),
(815,1140,o),
(842,1073,o),
(848,950,c),
(923,950,l),
(939,1001,o),
(960,1160,o),
(964,1228,c),
(924,1260,l),
(43,1260,l),
(43,1187,l),
(139,1168,o),
(180,1141,o),
(180,1125,cs),
(180,134,ls),
(180,116,o),
(133,91,o),
(43,73,c),
(43,0,l),
(988,0,l),
(999,39,o),
(1019,189,o)
);
}
);
width = 1076;
},
{
anchors = (
{
name = H;
pos = (525,0);
},
{
name = L;
pos = (525,-100);
},
{
name = O;
pos = (787,0);
},
{
name = U;
pos = (525,1370);
}
);
layerId = "E8A33793-4A0E-4E9A-9368-A1D232455500";
shapes = (
{
closed = 1;
nodes = (
(1004,284,c),
(941,307,l),
(884,151,o),
(841,110,o),
(718,110,cs),
(609,110,ls),
(433,110,o),
(405,135,o),
(405,174,cs),
(405,636,l),
(546,636,ls),
(658,636,o),
(703,620,o),
(744,581,c),
(773,602,o),
(814,665,o),
(836,702,c),
(805,735,l),
(405,735,l),
(405,1150,l),
(751,1150,ls),
(800,1150,o),
(827,1093,o),
(833,970,c),
(898,970,l),
(914,1021,o),
(935,1162,o),
(939,1230,c),
(901,1260,l),
(45,1260,l),
(45,1197,l),
(141,1178,o),
(185,1151,o),
(185,1135,cs),
(185,124,ls),
(185,106,o),
(135,81,o),
(45,63,c),
(45,0,l),
(963,0,l),
(974,39,o),
(994,169,o)
);
}
);
width = 1056;
}
);
unicode = 69;
},
{
glyphname = Eopen;
layers = (
{
anchors = (
{
name = L;
pos = (521,-100);
},
{
name = U;
pos = (521,1370);
}
);
hints = (
{
horizontal = 1;
name = hr00;
origin = (0,0);
target = (0,0);
type = Tag;
}
);
layerId = "DDA1A922-6BCD-4FE9-B3B8-E722553F0315";
shapes = (
{
closed = 1;
nodes = (
(963,213,c),
(920,258,l),
(748,117,o),
(674,95,o),
(543,95,cs),
(373,95,o),
(240,201,o),
(240,344,cs),
(240,465,o),
(356,611,o),
(631,630,c),
(631,705,l),
(326,718,o),
(253,829,o),
(253,938,cs),
(253,1077,o),
(389,1180,o),
(535,1180,cs),
(653,1180,o),
(727,1145,o),
(811,1073,c),
(854,1065,l),
(889,1104,o),
(922,1141,o),
(944,1186,c),
(858,1257,o),
(731,1290,o),
(588,1290,cs),
(481,1290,o),
(385,1255,o),
(299,1202,cs),
(180,1130,o),
(113,1020,o),
(113,905,cs),
(113,774,o),
(190,680,o),
(317,635,c),
(193,580,o),
(80,438,o),
(80,283,cs),
(80,150,o),
(211,-30,o),
(457,-30,cs),
(659,-30,o),
(801,31,o)
);
}
);
width = 1042;
},
{
anchors = (
{
name = L;
pos = (538,-100);
},
{
name = U;
pos = (538,1370);
}
);
layerId = "8BF1279D-F38F-4102-BF8D-9111B5ED49F5";
shapes = (
{
closed = 1;
nodes = (
(1012,212,c),
(958,281,l),
(813,166,o),
(705,140,o),
(588,140,cs),
(415,140,o),
(315,236,o),
(315,352,cs),
(315,473,o),
(433,600,o),
(706,615,c),
(706,716,l),
(426,728,o),
(328,837,o),
(328,946,cs),
(328,1076,o),
(439,1158,o),
(565,1158,cs),
(683,1158,o),
(765,1081,o),
(819,991,c),
(892,975,l),
(921,1025,o),
(977,1133,o),
(997,1186,c),
(911,1257,o),
(761,1290,o),
(618,1290,cs),
(496,1290,o),
(378,1255,o),
(292,1202,cs),
(173,1130,o),
(98,1020,o),
(98,905,cs),
(98,774,o),
(168,680,o),
(295,635,c),
(171,580,o),
(65,446,o),
(65,291,cs),
(65,158,o),
(188,-30,o),
(495,-30,cs),
(697,-30,o),
(852,42,o)
);
}
);
width = 1077;
},
{
anchors = (
{
name = L;
pos = (532,-100);
},
{
name = U;
pos = (532,1370);
}
);
layerId = "E8A33793-4A0E-4E9A-9368-A1D232455500";
shapes = (
{
closed = 1;
nodes = (
(996,212,c),
(945,273,l),
(791,150,o),
(695,125,o),
(573,125,cs),
(401,125,o),
(290,224,o),
(290,349,cs),
(290,470,o),
(407,604,o),
(681,620,c),
(681,712,l),
(393,725,o),
(303,834,o),
(303,943,cs),
(303,1076,o),
(422,1165,o),
(555,1165,cs),
(673,1165,o),
(752,1102,o),
(816,1018,c),
(879,1005,l),
(910,1051,o),
(959,1136,o),
(979,1186,c),
(893,1257,o),
(751,1290,o),
(608,1290,cs),
(491,1290,o),
(380,1255,o),
(294,1202,cs),
(175,1130,o),
(103,1020,o),
(103,905,cs),
(103,774,o),
(175,680,o),
(302,635,c),
(178,580,o),
(70,443,o),
(70,288,cs),
(70,155,o),
(196,-30,o),
(482,-30,cs),
(684,-30,o),
(835,38,o)
);
}
);
width = 1065;
}
);
unicode = 400;
},
{
glyphname = Ereversed;
layers = (
{
anchors = (
{
name = L;
pos = (509,-100);
},
{
name = U;
pos = (509,1370);
}
);
hints = (
{
horizontal = 1;
name = hr00;
origin = (0,0);
target = (0,0);
type = Tag;
}
);
layerId = "DDA1A922-6BCD-4FE9-B3B8-E722553F0315";
shapes = (
{
closed = 1;
nodes = (
(954,0,l),
(954,43,l),
(858,62,o),
(809,89,o),
(809,105,cs),
(809,1156,ls),
(809,1174,o),
(864,1199,o),
(954,1217,c),
(954,1260,l),
(181,1260,l),
(170,1221,o),
(150,1131,o),
(140,1016,c),
(183,998,l),
(240,1154,o),
(283,1170,o),
(406,1170,cs),
(649,1170,l),
(649,739,l),
(508,739,ls),
(396,739,o),
(351,735,o),
(310,774,c),
(281,753,o),
(240,700,o),
(218,663,c),
(244,635,l),
(287,646,o),
(377,655,o),
(439,655,cs),
(649,655,l),
(649,163,ls),
(649,110,o),
(620,90,o),
(448,90,cs),
(233,90,ls),
(184,90,o),
(167,194,o),
(161,317,c),
(116,317,l),
(100,266,o),
(69,93,o),
(65,25,c),
(98,0,l)
);
}
);
width = 1016;
},
{
anchors = (
{
name = L;
pos = (543,-100);
},
{
name = U;
pos = (543,1370);
}
);
layerId = "8BF1279D-F38F-4102-BF8D-9111B5ED49F5";
shapes = (
{
closed = 1;
nodes = (
(1029,0,l),
(1029,73,l),
(933,92,o),
(892,119,o),
(892,135,cs),
(892,1126,ls),
(892,1144,o),
(939,1169,o),
(1029,1187,c),
(1029,1260,l),
(174,1260,l),
(163,1221,o),
(146,1101,o),
(136,986,c),
(209,961,l),
(266,1117,o),
(298,1140,o),
(421,1140,cs),
(642,1140,l),
(642,739,l),
(508,739,ls),
(396,739,o),
(351,743,o),
(310,782,c),
(281,761,o),
(218,670,o),
(196,633,c),
(222,605,l),
(265,616,o),
(377,625,o),
(439,625,cs),
(642,625,l),
(642,193,ls),
(642,140,o),
(613,120,o),
(441,120,cs),
(256,120,ls),
(207,120,o),
(197,234,o),
(191,357,c),
(116,357,l),
(100,306,o),
(62,101,o),
(58,33,c),
(98,0,l)
);
}
);
width = 1089;
},
{
anchors = (
{
name = L;
pos = (532,-100);
},
{
name = U;
pos = (532,1370);
}
);
layerId = "E8A33793-4A0E-4E9A-9368-A1D232455500";
shapes = (
{
closed = 1;
nodes = (
(1004,0,l),
(1004,63,l),
(908,82,o),
(864,109,o),
(864,125,cs),
(864,1136,ls),
(864,1154,o),
(914,1179,o),
(1004,1197,c),
(1004,1260,l),
(176,1260,l),
(165,1221,o),
(147,1111,o),
(137,996,c),
(200,973,l),
(257,1129,o),
(293,1150,o),
(416,1150,cs),
(644,1150,l),
(644,739,l),
(508,739,ls),
(396,739,o),
(351,740,o),
(310,779,c),
(281,758,o),
(225,680,o),
(203,643,c),
(229,615,l),
(272,626,o),
(377,635,o),
(439,635,cs),
(644,635,l),
(644,183,ls),
(644,130,o),
(615,110,o),
(443,110,cs),
(248,110,ls),
(199,110,o),
(187,221,o),
(181,344,c),
(116,344,l),
(100,293,o),
(64,98,o),
(60,30,c),
(98,0,l)
);
}
);
width = 1065;
}
);
unicode = 398;
},
{
glyphname = Esh;
layers = (
{
anchors = (
{
name = L;
pos = (534,-100);
},
{
name = U;
pos = (534,1370);
}
);
hints = (
{
horizontal = 1;
name = hr01;
origin = (0,13);
target = (0,0);
type = Tag;
},
{
horizontal = 1;
name = hr02;
origin = (0,16);
target = (0,0);
type = Tag;
}
);
layerId = "DDA1A922-6BCD-4FE9-B3B8-E722553F0315";
shapes = (
{
closed = 1;
nodes = (
(1009,345,c),
(956,357,l),
(907,182,o),
(892,140,o),
(808,140,cs),
(256,140,l),
(653,674,l),
(311,1160,l),
(780,1160,ls),
(819,1160,o),
(866,1161,o),
(915,963,c),
(971,975,l),
(967,1276,l),
(887,1260,o),
(829,1260,o),
(754,1260,cs),
(80,1260,l),
(80,1217,l),
(496,635,l),
(59,43,l),
(90,0,l),
(983,0,l),
(989,72,o),
(1003,238,o)
);
}
);
width = 1064;
},
{
anchors = (
{
name = L;
pos = (550,-100);
},
{
name = U;
pos = (550,1370);
}
);
layerId = "8BF1279D-F38F-4102-BF8D-9111B5ED49F5";
shapes = (
{
closed = 1;
nodes = (
(1055,390,c),
(972,410,l),
(923,235,o),
(905,193,o),
(821,193,cs),
(330,193,l),
(680,674,l),
(384,1130,l),
(796,1130,ls),
(835,1130,o),
(882,1109,o),
(931,911,c),
(1017,930,l),
(1013,1276,l),
(933,1260,o),
(875,1260,o),
(800,1260,cs),
(66,1260,l),
(66,1210,l),
(459,613,l),
(45,51,l),
(83,0,l),
(1029,0,l),
(1035,72,o),
(1049,283,o)
);
}
);
width = 1121;
},
{
anchors = (
{
name = L;
pos = (545,-100);
},
{
name = U;
pos = (545,1370);
}
);
layerId = "E8A33793-4A0E-4E9A-9368-A1D232455500";
shapes = (
{
closed = 1;
nodes = (
(1040,375,c),
(967,392,l),
(918,217,o),
(901,175,o),
(817,175,cs),
(306,175,l),
(671,674,l),
(360,1140,l),
(791,1140,ls),
(830,1140,o),
(877,1126,o),
(926,928,c),
(1002,945,l),
(998,1276,l),
(918,1260,o),
(860,1260,o),
(785,1260,cs),
(71,1260,l),
(71,1212,l),
(472,620,l),
(50,48,l),
(86,0,l),
(1014,0,l),
(1020,72,o),
(1034,268,o)
);
}
);
width = 1102;
}
);
unicode = 425;
},
{
glyphname = Ezh;
layers = (
{
anchors = (
{
name = L;
pos = (535,-100);
},
{
name = U;
pos = (535,1370);
}
);
hints = (
{
horizontal = 1;
name = hr00;
origin = (0,0);
target = (0,0);
type = Tag;
}
);
layerId = "DDA1A922-6BCD-4FE9-B3B8-E722553F0315";
shapes = (
{
closed = 1;
nodes = (
(976,434,cs),
(976,668,o),
(811,793,o),
(638,793,cs),
(617,793,o),
(595,790,o),
(573,786,c),
(921,1217,l),
(896,1260,l),
(327,1260,ls),
(241,1260,o),
(208,1260,o),
(151,1276,c),
(121,975,l),
(178,963,l),
(205,1086,o),
(265,1160,o),
(308,1160,cs),
(690,1160,l),
(278,663,l),
(278,662,o),
(277,662,o),
(277,662,c),
(277,661,l),
(278,659,ls),
(285,648,o),
(301,627,o),
(310,619,cs),
(312,617,l),
(361,642,l),
(424,672,o),
(474,692,o),
(534,692,cs),
(715,692,o),
(826,543,o),
(826,383,cs),
(826,180,o),
(696,90,o),
(527,90,cs),
(416,90,o),
(290,166,o),
(233,265,c),
(178,257,o),
(94,168,o),
(94,153,cs),
(94,108,o),
(258,-30,o),
(488,-30,cs),
(742,-30,o),
(976,152,o)
);
}
);
width = 1066;
},
{
anchors = (
{
name = L;
pos = (557,-100);
},
{
name = U;
pos = (557,1370);
}
);
layerId = "8BF1279D-F38F-4102-BF8D-9111B5ED49F5";
shapes = (
{
closed = 1;
nodes = (
(1024,436,cs),
(1024,670,o),
(882,803,o),
(694,803,cs),
(678,803,o),
(660,801,o),
(641,798,c),
(969,1210,l),
(937,1260,l),
(345,1260,ls),
(259,1260,o),
(204,1260,o),
(147,1276,c),
(109,915,l),
(196,896,l),
(223,1019,o),
(287,1130,o),
(334,1130,cs),
(661,1130,l),
(281,658,l),
(281,657,o),
(280,657,o),
(280,657,c),
(280,656,l),
(282,653,ls),
(291,640,o),
(318,606,o),
(329,596,cs),
(332,593,l),
(368,615,l),
(440,655,o),
(481,664,o),
(545,664,cs),
(690,664,o),
(799,545,o),
(799,385,cs),
(799,215,o),
(699,115,o),
(530,115,cs),
(419,115,o),
(309,194,o),
(244,320,c),
(175,292,o),
(90,163,o),
(90,140,cs),
(90,87,o),
(261,-28,o),
(491,-28,cs),
(745,-28,o),
(1024,154,o)
);
}
);
width = 1107;
},
{
anchors = (
{
name = L;
pos = (550,-100);
},
{
name = U;
pos = (550,1370);
}
);
layerId = "E8A33793-4A0E-4E9A-9368-A1D232455500";
shapes = (
{
closed = 1;
nodes = (
(1008,435,cs),
(1008,669,o),
(858,800,o),
(675,800,cs),
(657,800,o),
(638,797,o),
(618,794,c),
(953,1212,l),
(923,1260,l),
(339,1260,ls),
(253,1260,o),
(205,1260,o),
(148,1276,c),
(113,935,l),
(190,918,l),
(217,1041,o),
(279,1140,o),
(325,1140,cs),
(670,1140,l),
(280,660,l),
(280,659,o),
(279,659,o),
(279,659,c),
(279,658,l),
(280,655,ls),
(289,643,o),
(312,613,o),
(322,604,cs),
(325,601,l),
(365,624,l),
(434,661,o),
(478,673,o),
(541,673,cs),
(698,673,o),
(808,544,o),
(808,384,cs),
(808,203,o),
(698,107,o),
(529,107,cs),
(418,107,o),
(302,185,o),
(240,302,c),
(176,280,o),
(91,165,o),
(91,144,cs),
(91,94,o),
(260,-29,o),
(490,-29,cs),
(744,-29,o),
(1008,153,o)
);
}
);
width = 1093;
}
);
unicode = 439;
},
{
glyphname = F;
layers = (
{
anchors = (
{
name = L;
pos = (473,-100);
},
{
name = U;
pos = (473,1370);
}
);
hints = (
{
horizontal = 1;
name = hr00;
origin = (0,0);
target = (0,0);
type = Tag;
}
);
layerId = "DDA1A922-6BCD-4FE9-B3B8-E722553F0315";
shapes = (
{
closed = 1;
nodes = (
(530,0,l),
(530,43,l),
(399,68,o),
(355,88,o),
(355,104,cs),
(355,651,l),
(467,651,ls),
(578,651,o),
(625,635,o),
(664,596,c),
(692,617,o),
(733,670,o),
(758,707,c),
(729,735,l),
(355,735,l),
(355,1170,l),
(729,1170,ls),
(780,1170,o),
(807,1133,o),
(811,1010,c),
(858,1010,l),
(874,1061,o),
(895,1167,o),
(897,1235,c),
(866,1260,l),
(50,1260,l),
(50,1217,l),
(146,1198,o),
(195,1171,o),
(195,1155,cs),
(195,104,ls),
(195,86,o),
(140,61,o),
(50,43,c),
(50,0,l)
);
}
);
width = 979;
},
{
anchors = (
{
name = L;
pos = (507,-100);
},
{
name = U;
pos = (507,1370);
}
);
layerId = "8BF1279D-F38F-4102-BF8D-9111B5ED49F5";
shapes = (
{
closed = 1;
nodes = (
(598,0,l),
(598,73,l),
(467,98,o),
(430,118,o),
(430,134,cs),
(430,629,l),
(542,629,ls),
(653,629,o),
(700,613,o),
(739,574,c),
(767,595,o),
(808,655,o),
(833,700,c),
(797,735,l),
(430,735,l),
(430,1140,l),
(774,1140,ls),
(825,1140,o),
(852,1073,o),
(856,950,c),
(933,950,l),
(949,1001,o),
(970,1160,o),
(972,1228,c),
(934,1260,l),
(43,1260,l),
(43,1187,l),
(139,1168,o),
(180,1141,o),
(180,1125,cs),
(180,134,ls),
(180,116,o),
(133,91,o),
(43,73,c),
(43,0,l)
);
}
);
width = 1039;
},
{
anchors = (
{
name = L;
pos = (496,-100);
},
{
name = U;
pos = (496,1370);
}
);
layerId = "E8A33793-4A0E-4E9A-9368-A1D232455500";
shapes = (
{
closed = 1;
nodes = (
(575,0,l),
(575,63,l),
(444,88,o),
(405,108,o),
(405,124,cs),
(405,636,l),
(517,636,ls),
(628,636,o),
(675,620,o),
(714,581,c),
(742,602,o),
(783,660,o),
(808,702,c),
(774,735,l),
(405,735,l),
(405,1150,l),
(759,1150,ls),
(810,1150,o),
(837,1093,o),
(841,970,c),
(908,970,l),
(924,1021,o),
(945,1162,o),
(947,1230,c),
(911,1260,l),
(45,1260,l),
(45,1197,l),
(141,1178,o),
(185,1151,o),
(185,1135,cs),
(185,124,ls),
(185,106,o),
(135,81,o),
(45,63,c),
(45,0,l)
);
}
);
width = 1019;
}
);
unicode = 70;
},
{
glyphname = G;
layers = (
{
anchors = (
{
name = H;
pos = (620,0);
},
{
name = L;
pos = (640,-100);
},
{
name = U;
pos = (640,1370);
}
);
hints = (
{
horizontal = 1;
name = hr00;
origin = (0,0);
target = (0,0);
type = Tag;
}
);
layerId = "DDA1A922-6BCD-4FE9-B3B8-E722553F0315";
shapes = (
{
closed = 1;
nodes = (
(1042,1188,cs),
(956,1253,o),
(825,1290,o),
(737,1290,cs),
(371,1290,o),
(70,1026,o),
(70,582,cs),
(70,170,o),
(350,-30,o),
(618,-30,cs),
(739,-30,o),
(842,-8,o),
(1040,154,c),
(1040,485,ls),
(1040,516,o),
(1069,549,o),
(1145,567,c),
(1145,610,l),
(684,610,l),
(684,567,l),
(846,541,o),
(890,514,o),
(890,485,cs),
(890,146,l),
(825,110,o),
(742,90,o),
(645,90,cs),
(442,90,o),
(225,266,o),
(225,637,cs),
(225,1053,o),
(498,1180,o),
(598,1180,cs),
(729,1180,o),
(825,1161,o),
(913,1077,c),
(946,1071,l),
(981,1102,o),
(1061,1174,o)
);
}
);
width = 1194;
},
{
anchors = (
{
name = H;
pos = (635,0);
},
{
name = L;
pos = (657,-100);
},
{
name = U;
pos = (657,1370);
}
);
layerId = "8BF1279D-F38F-4102-BF8D-9111B5ED49F5";
shapes = (
{
closed = 1;
nodes = (
(1095,1188,cs),
(1009,1253,o),
(840,1290,o),
(752,1290,cs),
(356,1290,o),
(55,1026,o),
(55,582,cs),
(55,170,o),
(343,-31,o),
(633,-30,cs),
(754,-30,o),
(895,7,o),
(1093,169,c),
(1093,470,ls),
(1093,501,o),
(1114,534,o),
(1190,552,c),
(1190,625,l),
(692,625,l),
(692,552,l),
(842,526,o),
(853,499,o),
(853,470,cs),
(853,165,l),
(806,142,o),
(749,128,o),
(676,128,cs),
(488,128,o),
(308,281,o),
(308,637,cs),
(308,1053,o),
(528,1165,o),
(628,1165,cs),
(744,1165,o),
(833,1124,o),
(921,995,c),
(984,981,l),
(1019,1012,o),
(1114,1174,o)
);
}
);
width = 1232;
},
{
anchors = (
{
name = H;
pos = (630,0);
},
{
name = L;
pos = (651,-100);
},
{
name = U;
pos = (651,1370);
}
);
layerId = "E8A33793-4A0E-4E9A-9368-A1D232455500";
shapes = (
{
closed = 1;
nodes = (
(1077,1188,cs),
(991,1253,o),
(835,1290,o),
(747,1290,cs),
(361,1290,o),
(60,1026,o),
(60,582,cs),
(60,170,o),
(345,-31,o),
(628,-30,cs),
(749,-30,o),
(877,2,o),
(1075,164,c),
(1075,475,ls),
(1075,506,o),
(1099,539,o),
(1175,557,c),
(1175,620,l),
(689,620,l),
(689,557,l),
(843,531,o),
(865,504,o),
(865,475,cs),
(865,159,l),
(812,131,o),
(747,115,o),
(666,115,cs),
(473,115,o),
(280,276,o),
(280,637,cs),
(280,1053,o),
(518,1170,o),
(618,1170,cs),
(739,1170,o),
(830,1136,o),
(918,1022,c),
(971,1011,l),
(1006,1042,o),
(1096,1174,o)
);
}
);
width = 1219;
}
);
unicode = 71;
},
{
glyphname = Glottalstopsmall;
layers = (
{
anchors = (
{
name = L;
pos = (475,-100);
},
{
name = U;
pos = (475,1370);
}
);
layerId = "DDA1A922-6BCD-4FE9-B3B8-E722553F0315";
shapes = (
{
closed = 1;
nodes = (
(720,0,l),
(720,43,l),
(611,61,o),
(555,84,o),
(555,104,cs),
(555,455,ls),
(555,690,o),
(890,688,o),
(890,985,cs),
(890,1172,o),
(758,1290,o),
(522,1290,cs),
(259,1290,o),
(40,1131,o),
(40,943,cs),
(40,923,o),
(45,900,o),
(47,890,c),
(74,860,l),
(133,866,o),
(188,876,o),
(231,898,c),
(218,922,o),
(214,946,o),
(214,976,cs),
(214,1080,o),
(308,1190,o),
(444,1190,cs),
(623,1190,o),
(730,1104,o),
(730,940,cs),
(730,740,o),
(395,685,o),
(395,396,cs),
(395,104,ls),
(395,82,o),
(345,63,o),
(230,43,c),
(230,0,l)
);
}
);
width = 950;
},
{
anchors = (
{
name = L;
pos = (498,-100);
},
{
name = U;
pos = (498,1370);
}
);
layerId = "8BF1279D-F38F-4102-BF8D-9111B5ED49F5";
shapes = (
{
closed = 1;
nodes = (
(780,0,l),
(780,73,l),
(671,91,o),
(623,114,o),
(623,134,cs),
(623,470,ls),
(623,705,o),
(950,673,o),
(950,970,cs),
(950,1157,o),
(826,1290,o),
(545,1290,cs),
(222,1290,o),
(25,1109,o),
(25,921,cs),
(25,901,o),
(30,870,o),
(32,860,c),
(59,830,l),
(118,836,o),
(271,861,o),
(314,883,c),
(301,907,o),
(297,939,o),
(297,969,cs),
(297,1073,o),
(363,1161,o),
(474,1163,cs),
(608,1165,o),
(693,1082,o),
(693,918,cs),
(693,703,o),
(373,693,o),
(373,404,cs),
(373,134,ls),
(373,112,o),
(330,93,o),
(215,73,c),
(215,0,l)
);
}
);
width = 995;
},
{
anchors = (
{
name = L;
pos = (490,-100);
},
{
name = U;
pos = (490,1370);
}
);
layerId = "E8A33793-4A0E-4E9A-9368-A1D232455500";
shapes = (
{
closed = 1;
nodes = (
(760,0,l),
(760,63,l),
(651,81,o),
(600,104,o),
(600,124,cs),
(600,465,ls),
(600,700,o),
(930,678,o),
(930,975,cs),
(930,1162,o),
(803,1290,o),
(537,1290,cs),
(234,1290,o),
(30,1116,o),
(30,928,cs),
(30,908,o),
(35,880,o),
(37,870,c),
(64,840,l),
(123,846,o),
(243,866,o),
(286,888,c),
(273,912,o),
(269,941,o),
(269,971,cs),
(269,1075,o),
(345,1171,o),
(464,1172,cs),
(613,1173,o),
(705,1089,o),
(705,925,cs),
(705,715,o),
(380,690,o),
(380,401,cs),
(380,124,ls),
(380,102,o),
(335,83,o),
(220,63,c),
(220,0,l)
);
}
);
width = 980;
}
);
unicode = 577;
},
{
glyphname = H;
layers = (
{
anchors = (
{
name = H;
pos = (270,0);
},
{
name = L;
pos = (660,-100);
},
{
name = U;
pos = (660,1370);
}
);
hints = (
{
horizontal = 1;
name = hr00;
origin = (0,0);
target = (0,0);
type = Tag;
}
);
layerId = "DDA1A922-6BCD-4FE9-B3B8-E722553F0315";
shapes = (
{
closed = 1;
nodes = (
(500,0,l),
(500,43,l),
(403,61,o),
(355,88,o),
(355,104,cs),
(355,615,l),
(965,615,l),
(965,104,ls),
(965,86,o),
(910,61,o),
(820,43,c),
(820,0,l),
(1270,0,l),
(1270,43,l),
(1174,61,o),
(1125,88,o),
(1125,104,cs),
(1125,1155,ls),
(1125,1174,o),
(1180,1198,o),
(1270,1217,c),
(1270,1260,l),
(820,1260,l),
(820,1217,l),
(916,1198,o),
(965,1171,o),
(965,1155,cs),
(965,705,l),
(355,705,l),
(355,1155,ls),
(355,1174,o),
(410,1198,o),
(500,1217,c),
(500,1260,l),
(50,1260,l),
(50,1217,l),
(146,1198,o),
(195,1171,o),
(195,1155,cs),
(195,104,ls),
(195,86,o),
(140,61,o),
(50,43,c),
(50,0,l)
);
}
);
width = 1339;
},
{
anchors = (
{
name = H;
pos = (276,0);
},
{
name = L;
pos = (690,-100);
},
{
name = U;
pos = (690,1370);
}
);
layerId = "8BF1279D-F38F-4102-BF8D-9111B5ED49F5";
shapes = (
{
closed = 1;
nodes = (
(568,0,l),
(568,73,l),
(471,91,o),
(430,118,o),
(430,134,cs),
(430,600,l),
(950,600,l),
(950,134,ls),
(950,116,o),
(903,91,o),
(813,73,c),
(813,0,l),
(1338,0,l),
(1338,73,l),
(1242,91,o),
(1200,118,o),
(1200,134,cs),
(1200,1125,ls),
(1200,1144,o),
(1248,1168,o),
(1338,1187,c),
(1338,1260,l),
(813,1260,l),
(813,1187,l),
(909,1168,o),
(950,1141,o),
(950,1125,cs),
(950,720,l),
(430,720,l),
(430,1125,ls),
(430,1144,o),
(478,1168,o),
(568,1187,c),
(568,1260,l),
(43,1260,l),
(43,1187,l),
(139,1168,o),
(180,1141,o),
(180,1125,cs),
(180,134,ls),
(180,116,o),
(133,91,o),
(43,73,c),
(43,0,l)
);
}
);
width = 1399;
},
{
anchors = (
{
name = H;
pos = (274,0);
},
{
name = L;
pos = (680,-100);
},
{
name = U;
pos = (680,1370);
}
);
layerId = "E8A33793-4A0E-4E9A-9368-A1D232455500";
shapes = (
{
closed = 1;
nodes = (
(545,0,l),
(545,63,l),
(448,81,o),
(405,108,o),
(405,124,cs),
(405,605,l),
(955,605,l),
(955,124,ls),
(955,106,o),
(905,81,o),
(815,63,c),
(815,0,l),
(1315,0,l),
(1315,63,l),
(1219,81,o),
(1175,108,o),
(1175,124,cs),
(1175,1135,ls),
(1175,1154,o),
(1225,1178,o),
(1315,1197,c),
(1315,1260,l),
(815,1260,l),
(815,1197,l),
(911,1178,o),
(955,1151,o),
(955,1135,cs),
(955,715,l),
(405,715,l),
(405,1135,ls),
(405,1154,o),
(455,1178,o),
(545,1197,c),
(545,1260,l),
(45,1260,l),
(45,1197,l),
(141,1178,o),
(185,1151,o),
(185,1135,cs),
(185,124,ls),
(185,106,o),
(135,81,o),
(45,63,c),
(45,0,l)
);
}
);
width = 1379;
}
);
unicode = 72;
},
{
glyphname = I;
layers = (
{
anchors = (
{
name = H;
pos = (295,0);
},
{
name = L;
pos = (295,-100);
},
{
name = O;
pos = (345,0);
},
{
name = U;
pos = (295,1370);
}
);
hints = (
{
horizontal = 1;
name = hr00;
origin = (0,0);
target = (0,0);
type = Tag;
}
);
layerId = "DDA1A922-6BCD-4FE9-B3B8-E722553F0315";
shapes = (
{
closed = 1;
nodes = (
(520,0,l),
(520,43,l),
(424,61,o),
(375,88,o),
(375,104,cs),
(375,1155,ls),
(375,1174,o),
(430,1198,o),
(520,1217,c),
(520,1260,l),
(70,1260,l),
(70,1217,l),
(166,1198,o),
(215,1171,o),
(215,1155,cs),
(215,104,ls),
(215,86,o),
(160,61,o),
(70,43,c),
(70,0,l)
);
}
);
width = 610;
},
{
anchors = (
{
name = H;
pos = (325,0);
},
{
name = L;
pos = (325,-100);
},
{
name = O;
pos = (383,0);
},
{
name = U;
pos = (325,1370);
}
);
layerId = "8BF1279D-F38F-4102-BF8D-9111B5ED49F5";
shapes = (
{
closed = 1;
nodes = (
(588,0,l),
(588,73,l),
(492,91,o),
(450,118,o),
(450,134,cs),
(450,1125,ls),
(450,1144,o),
(498,1168,o),
(588,1187,c),
(588,1260,l),
(63,1260,l),
(63,1187,l),
(159,1168,o),
(200,1141,o),
(200,1125,cs),
(200,134,ls),
(200,116,o),
(153,91,o),
(63,73,c),
(63,0,l)
);
}
);
width = 670;
},
{
anchors = (
{
name = H;
pos = (315,0);
},
{
name = L;
pos = (315,-100);
},
{
name = O;
pos = (370,0);
},
{
name = U;
pos = (315,1370);
}
);
layerId = "E8A33793-4A0E-4E9A-9368-A1D232455500";
shapes = (
{
closed = 1;
nodes = (
(565,0,l),
(565,63,l),
(469,81,o),
(425,108,o),
(425,124,cs),
(425,1135,ls),
(425,1154,o),
(475,1178,o),
(565,1197,c),
(565,1260,l),
(65,1260,l),
(65,1197,l),
(161,1178,o),
(205,1151,o),
(205,1135,cs),
(205,124,ls),
(205,106,o),
(155,81,o),
(65,63,c),
(65,0,l)
);
}
);
width = 650;
}
);
unicode = 73;
},
{
glyphname = Istroke;
layers = (
{
anchors = (
{
name = L;
pos = (296,-100);
},
{
name = U;
pos = (296,1370);
}
);
hints = (
{
horizontal = 1;
name = hr00;
origin = (0,0);
target = (0,0);
type = Tag;
}
);
layerId = "DDA1A922-6BCD-4FE9-B3B8-E722553F0315";
shapes = (
{
closed = 1;
nodes = (
(545,682,l),
(520,705,l),
(375,705,l),
(375,1155,ls),
(375,1174,o),
(430,1198,o),
(520,1217,c),
(520,1260,l),
(70,1260,l),
(70,1217,l),
(166,1198,o),
(215,1171,o),
(215,1155,cs),
(215,705,l),
(70,705,l),
(62,684,o),
(54,659,o),
(48,639,c),
(70,615,l),
(215,615,l),
(215,104,ls),
(215,86,o),
(160,61,o),
(70,43,c),
(70,0,l),
(520,0,l),
(520,43,l),
(424,61,o),
(375,88,o),
(375,104,cs),
(375,615,l),
(520,615,l)
);
}
);
width = 610;
},
{
anchors = (
{
name = L;
pos = (326,-100);
},
{
name = U;
pos = (326,1370);
}
);
layerId = "8BF1279D-F38F-4102-BF8D-9111B5ED49F5";
shapes = (
{
closed = 1;
nodes = (
(620,697,l),
(595,720,l),
(450,720,l),
(450,1125,ls),
(450,1144,o),
(498,1168,o),
(588,1187,c),
(588,1260,l),
(63,1260,l),
(63,1187,l),
(159,1168,o),
(200,1141,o),
(200,1125,cs),
(200,720,l),
(66,720,l),
(58,699,o),
(39,644,o),
(33,624,c),
(55,600,l),
(200,600,l),
(200,134,ls),
(200,116,o),
(153,91,o),
(63,73,c),
(63,0,l),
(588,0,l),
(588,73,l),
(492,91,o),
(450,118,o),
(450,134,cs),
(450,600,l),
(584,600,l)
);
}
);
width = 670;
},
{
anchors = (
{
name = L;
pos = (316,-100);
},
{
name = U;
pos = (316,1370);
}
);
layerId = "E8A33793-4A0E-4E9A-9368-A1D232455500";
shapes = (
{
closed = 1;
nodes = (
(595,692,l),
(570,715,l),
(425,715,l),
(425,1135,ls),
(425,1154,o),
(475,1178,o),
(565,1197,c),
(565,1260,l),
(65,1260,l),
(65,1197,l),
(161,1178,o),
(205,1151,o),
(205,1135,cs),
(205,715,l),
(67,715,l),
(59,694,o),
(44,649,o),
(38,629,c),
(60,605,l),
(205,605,l),
(205,124,ls),
(205,106,o),
(155,81,o),
(65,63,c),
(65,0,l),
(565,0,l),
(565,63,l),
(469,81,o),
(425,108,o),
(425,124,cs),
(425,605,l),
(563,605,l)
);
}
);
width = 650;
}
);
unicode = 407;
},
{
glyphname = J;
layers = (
{
anchors = (
{
name = L;
pos = (330,-600);
},
{
name = U;
pos = (330,1370);
}
);
hints = (
{
horizontal = 1;
name = hr00;
origin = (0,0);
target = (0,0);
type = Tag;
}
);
layerId = "DDA1A922-6BCD-4FE9-B3B8-E722553F0315";
shapes = (
{
closed = 1;
nodes = (
(555,1217,c),
(555,1260,l),
(55,1260,l),
(55,1217,l),
(215,1194,o),
(250,1171,o),
(250,1155,cs),
(250,133,ls),
(250,-180,o),
(154,-257,o),
(84,-257,cs),
(33,-257,o),
(0,-249,o),
(-74,-200,c),
(-111,-214,o),
(-190,-278,o),
(-190,-300,cs),
(-190,-323,o),
(-106,-380,o),
(-25,-380,cs),
(27,-380,o),
(140,-346,o),
(211,-288,c),
(316,-203,o),
(410,-111,o),
(410,205,cs),
(410,1155,ls),
(410,1174,o),
(465,1198,o)
);
}
);
width = 625;
},
{
anchors = (
{
name = L;
pos = (354,-600);
},
{
name = U;
pos = (354,1370);
}
);
layerId = "8BF1279D-F38F-4102-BF8D-9111B5ED49F5";
shapes = (
{
closed = 1;
nodes = (
(623,1187,c),
(623,1260,l),
(48,1260,l),
(48,1187,l),
(208,1164,o),
(235,1141,o),
(235,1125,cs),
(235,111,ls),
(235,-203,o),
(162,-250,o),
(92,-250,cs),
(41,-250,o),
(-23,-227,o),
(-97,-163,c),
(-134,-177,o),
(-265,-293,o),
(-265,-323,cs),
(-265,-353,o),
(-144,-418,o),
(-25,-418,cs),
(65,-418,o),
(178,-369,o),
(249,-311,c),
(354,-226,o),
(485,-111,o),
(485,183,cs),
(485,1125,ls),
(485,1144,o),
(533,1168,o)
);
}
);
width = 685;
},
{
anchors = (
{
name = L;
pos = (346,-600);
},
{
name = U;
pos = (346,1370);
}
);
layerId = "E8A33793-4A0E-4E9A-9368-A1D232455500";
shapes = (
{
closed = 1;
nodes = (
(600,1197,c),
(600,1260,l),
(50,1260,l),
(50,1197,l),
(210,1174,o),
(240,1151,o),
(240,1135,cs),
(240,118,ls),
(240,-195,o),
(159,-252,o),
(89,-252,cs),
(38,-252,o),
(-15,-234,o),
(-89,-175,c),
(-126,-189,o),
(-240,-288,o),
(-240,-315,cs),
(-240,-343,o),
(-131,-405,o),
(-25,-405,cs),
(52,-405,o),
(165,-361,o),
(236,-303,c),
(341,-218,o),
(460,-111,o),
(460,190,cs),
(460,1135,ls),
(460,1154,o),
(510,1178,o)
);
}
);
width = 665;
}
);
unicode = 74;
},
{
glyphname = K;
layers = (
{
anchors = (
{
name = H;
pos = (275,0);
},
{
name = L;
pos = (612,-100);
},
{
name = U;
pos = (590,1370);
}
);
hints = (
{
horizontal = 1;
name = hr00;
origin = (0,0);
target = (0,0);
type = Tag;
}
);
layerId = "DDA1A922-6BCD-4FE9-B3B8-E722553F0315";
shapes = (
{
closed = 1;
nodes = (
(500,0,l),
(500,43,l),
(403,61,o),
(355,88,o),
(355,104,cs),
(355,639,l),
(854,29,ls),
(881,-4,o),
(909,-14,o),
(948,-14,cs),
(1012,-14,o),
(1096,12,o),
(1174,37,c),
(1167,80,l),
(1098,72,o),
(1032,74,o),
(985,127,cs),
(502,671,l),
(940,1155,ls),
(981,1200,o),
(1024,1206,o),
(1110,1217,c),
(1110,1260,l),
(690,1260,l),
(690,1217,l),
(795,1208,o),
(825,1200,o),
(764,1128,cs),
(355,646,l),
(355,1155,ls),
(355,1174,o),
(410,1198,o),
(500,1217,c),
(500,1260,l),
(50,1260,l),
(50,1217,l),
(146,1198,o),
(195,1171,o),
(195,1155,cs),
(195,104,ls),
(195,86,o),
(140,61,o),
(50,43,c),
(50,0,l)
);
}
);
width = 1184;
},
{
anchors = (
{
name = H;
pos = (287,0);
},
{
name = L;
pos = (653,-100);
},
{
name = U;
pos = (629,1370);
}
);
layerId = "8BF1279D-F38F-4102-BF8D-9111B5ED49F5";
shapes = (
{
closed = 1;
nodes = (
(568,0,l),
(568,73,l),
(471,91,o),
(430,118,o),
(430,134,cs),
(430,625,l),
(907,29,ls),
(934,-4,o),
(962,-14,o),
(1001,-14,cs),
(1065,-14,o),
(1186,27,o),
(1264,52,c),
(1257,125,l),
(1188,117,o),
(1141,118,o),
(1098,165,c),
(616,676,l),
(1045,1125,ls),
(1087,1169,o),
(1114,1176,o),
(1200,1187,c),
(1200,1260,l),
(750,1260,l),
(750,1187,l),
(855,1178,o),
(863,1170,o),
(802,1098,cs),
(430,659,l),
(430,1125,ls),
(430,1144,o),
(478,1168,o),
(568,1187,c),
(568,1260,l),
(43,1260,l),
(43,1187,l),
(139,1168,o),
(180,1141,o),
(180,1125,cs),
(180,134,ls),
(180,116,o),
(133,91,o),
(43,73,c),
(43,0,l)
);
}
);
width = 1267;
},
{
anchors = (
{
name = H;
pos = (283,0);
},
{
name = L;
pos = (639,-100);
},
{
name = U;
pos = (616,1370);
}
);
layerId = "E8A33793-4A0E-4E9A-9368-A1D232455500";
shapes = (
{
closed = 1;
nodes = (
(545,0,l),
(545,63,l),
(448,81,o),
(405,108,o),
(405,124,cs),
(405,630,l),
(889,29,ls),
(916,-4,o),
(944,-14,o),
(983,-14,cs),
(1047,-14,o),
(1156,22,o),
(1234,47,c),
(1227,110,l),
(1158,102,o),
(1104,103,o),
(1060,152,cs),
(578,674,l),
(1010,1135,ls),
(1051,1179,o),
(1084,1186,o),
(1170,1197,c),
(1170,1260,l),
(730,1260,l),
(730,1197,l),
(835,1188,o),
(850,1180,o),
(789,1108,cs),
(405,655,l),
(405,1135,ls),
(405,1154,o),
(455,1178,o),
(545,1197,c),
(545,1260,l),
(45,1260,l),
(45,1197,l),
(141,1178,o),
(185,1151,o),
(185,1135,cs),
(185,124,ls),
(185,106,o),
(135,81,o),
(45,63,c),
(45,0,l)
);
}
);
width = 1239;
}
);
unicode = 75;
},
{
glyphname = Khook;
layers = (
{
anchors = (
{
name = L;
pos = (641,-100);
},
{
name = U;
pos = (641,1370);
}
);
hints = (
{
horizontal = 1;
name = hr00;
origin = (0,0);
target = (0,0);
type = Tag;
}
);
layerId = "DDA1A922-6BCD-4FE9-B3B8-E722553F0315";
shapes = (
{
closed = 1;
nodes = (
(500,0,l),
(500,43,l),
(403,61,o),
(355,88,o),
(355,104,cs),
(355,639,l),
(854,29,ls),
(881,-4,o),
(909,-14,o),
(948,-14,cs),
(1012,-14,o),
(1096,12,o),
(1174,37,c),
(1167,80,l),
(1098,72,o),
(1032,74,o),
(985,127,cs),
(500,673,l),
(804,1042,ls),
(849,1096,o),
(904,1151,o),
(959,1151,cs),
(1015,1151,o),
(1056,1108,o),
(1058,1027,cs),
(1059,989,o),
(1049,942,o),
(1024,885,c),
(1042,856,l),
(1105,873,o),
(1214,921,o),
(1221,943,c),
(1229,981,o),
(1233,1015,o),
(1233,1046,cs),
(1232,1205,o),
(1125,1270,o),
(1000,1270,cs),
(896,1270,o),
(804,1213,o),
(717,1103,cs),
(355,647,l),
(355,1155,ls),
(355,1174,o),
(410,1198,o),
(500,1217,c),
(500,1260,l),
(50,1260,l),
(50,1217,l),
(146,1198,o),
(195,1171,o),
(195,1155,cs),
(195,104,ls),
(195,86,o),
(140,61,o),
(50,43,c),
(50,0,l)
);
}
);
width = 1263;
},
{
anchors = (
{
name = L;
pos = (671,-100);
},
{
name = U;
pos = (671,1370);
}
);
layerId = "8BF1279D-F38F-4102-BF8D-9111B5ED49F5";
shapes = (
{
closed = 1;
nodes = (
(568,0,l),
(568,73,l),
(471,91,o),
(430,118,o),
(430,134,cs),
(430,625,l),
(907,29,ls),
(934,-4,o),
(962,-14,o),
(1001,-14,cs),
(1065,-14,o),
(1186,27,o),
(1264,52,c),
(1257,125,l),
(1188,117,o),
(1142,115,o),
(1098,165,c),
(616,675,l),
(921,1036,l),
(947,1068,o),
(978,1097,o),
(1016,1097,cs),
(1053,1097,o),
(1080,1076,o),
(1081,1005,cs),
(1081,965,o),
(1056,898,o),
(1032,855,c),
(1065,804,l),
(1128,821,o),
(1274,884,o),
(1281,906,c),
(1289,938,o),
(1301,997,o),
(1301,1031,cs),
(1300,1190,o),
(1202,1270,o),
(1075,1270,cs),
(953,1270,o),
(855,1214,o),
(770,1103,cs),
(430,661,l),
(430,1125,ls),
(430,1144,o),
(478,1168,o),
(568,1187,c),
(568,1260,l),
(43,1260,l),
(43,1187,l),
(139,1168,o),
(180,1141,o),
(180,1125,cs),
(180,134,ls),
(180,116,o),
(133,91,o),
(43,73,c),
(43,0,l)
);
}
);
width = 1316;
},
{
anchors = (
{
name = L;
pos = (661,-100);
},
{
name = U;
pos = (661,1370);
}
);
layerId = "E8A33793-4A0E-4E9A-9368-A1D232455500";
shapes = (
{
closed = 1;
nodes = (
(545,0,l),
(545,63,l),
(448,81,o),
(405,108,o),
(405,124,cs),
(405,630,l),
(889,29,ls),
(916,-4,o),
(944,-14,o),
(983,-14,cs),
(1047,-14,o),
(1156,22,o),
(1234,47,c),
(1227,110,l),
(1158,102,o),
(1105,101,o),
(1060,152,cs),
(577,674,l),
(882,1038,ls),
(914,1077,o),
(953,1115,o),
(997,1115,cs),
(1040,1115,o),
(1072,1087,o),
(1073,1012,cs),
(1073,973,o),
(1053,913,o),
(1029,865,c),
(1057,821,l),
(1120,838,o),
(1254,896,o),
(1261,918,c),
(1269,952,o),
(1278,1003,o),
(1278,1036,cs),
(1277,1195,o),
(1176,1270,o),
(1050,1270,cs),
(934,1270,o),
(838,1214,o),
(752,1103,cs),
(405,656,l),
(405,1135,ls),
(405,1154,o),
(455,1178,o),
(545,1197,c),
(545,1260,l),
(45,1260,l),
(45,1197,l),
(141,1178,o),
(185,1151,o),
(185,1135,cs),
(185,124,ls),
(185,106,o),
(135,81,o),
(45,63,c),
(45,0,l)
);
}
);
width = 1298;
}
);
unicode = 408;
},
{
glyphname = L;
layers = (
{
anchors = (
{
name = H;
pos = (497,0);
},
{
name = L;
pos = (497,-100);
},
{
name = R;
pos = (750,900);
},
{
name = U;
pos = (467,1370);
}
);
hints = (
{
horizontal = 1;
name = hr00;
origin = (0,0);
target = (0,0);
type = Tag;
}
);
layerId = "DDA1A922-6BCD-4FE9-B3B8-E722553F0315";
shapes = (
{
closed = 1;
nodes = (
(944,244,c),
(901,262,l),
(844,106,o),
(807,90,o),
(684,90,cs),
(541,90,ls),
(395,90,o),
(355,117,o),
(355,164,cs),
(355,1155,ls),
(355,1174,o),
(410,1198,o),
(500,1217,c),
(500,1260,l),
(50,1260,l),
(50,1217,l),
(146,1198,o),
(195,1171,o),
(195,1155,cs),
(195,104,ls),
(195,86,o),
(140,61,o),
(50,43,c),
(50,0,l),
(903,0,l),
(913,39,o),
(934,129,o)
);
}
);
width = 975;
},
{
anchors = (
{
name = H;
pos = (531,0);
},
{
name = L;
pos = (531,-100);
},
{
name = R;
pos = (818,900);
},
{
name = U;
pos = (498,1370);
}
);
layerId = "8BF1279D-F38F-4102-BF8D-9111B5ED49F5";
shapes = (
{
closed = 1;
nodes = (
(1019,304,c),
(946,330,l),
(889,174,o),
(852,120,o),
(729,120,cs),
(616,120,ls),
(470,120,o),
(430,147,o),
(430,194,cs),
(430,1125,ls),
(430,1144,o),
(478,1168,o),
(568,1187,c),
(568,1260,l),
(43,1260,l),
(43,1187,l),
(139,1168,o),
(180,1141,o),
(180,1125,cs),
(180,134,ls),
(180,116,o),
(133,91,o),
(43,73,c),
(43,0,l),
(978,0,l),
(988,39,o),
(1009,189,o)
);
}
);
width = 1043;
},
{
anchors = (
{
name = H;
pos = (520,0);
},
{
name = L;
pos = (520,-100);
},
{
name = R;
pos = (795,900);
},
{
name = U;
pos = (488,1370);
}
);
layerId = "E8A33793-4A0E-4E9A-9368-A1D232455500";
shapes = (
{
closed = 1;
nodes = (
(994,284,c),
(931,307,l),
(874,151,o),
(837,110,o),
(714,110,cs),
(591,110,ls),
(445,110,o),
(405,137,o),
(405,184,cs),
(405,1135,ls),
(405,1154,o),
(455,1178,o),
(545,1197,c),
(545,1260,l),
(45,1260,l),
(45,1197,l),
(141,1178,o),
(185,1151,o),
(185,1135,cs),
(185,124,ls),
(185,106,o),
(135,81,o),
(45,63,c),
(45,0,l),
(953,0,l),
(963,39,o),
(984,169,o)
);
}
);
width = 1020;
}
);
unicode = 76;
},
{
glyphname = Lbar;
layers = (
{
anchors = (
{
name = L;
pos = (497,-100);
},
{
name = U;
pos = (467,1370);
}
);
layerId = "DDA1A922-6BCD-4FE9-B3B8-E722553F0315";
shapes = (
{
closed = 1;
nodes = (
(620,604,l),
(595,627,l),
(66,627,l),
(58,606,o),
(50,582,o),
(44,562,c),
(66,537,l),
(595,537,l)
);
},
{
ref = L;
}
);
width = 975;
},
{
anchors = (
{
name = L;
pos = (526,-100);
},
{
name = U;
pos = (496,1370);
}
);
layerId = "8BF1279D-F38F-4102-BF8D-9111B5ED49F5";
shapes = (
{
closed = 1;
nodes = (
(751,633,l),
(726,656,l),
(65,656,l),
(57,635,o),
(38,580,o),
(32,560,c),
(54,536,l),
(715,536,l)
);
},
{
ref = L;
}
);
width = 1043;
},
{
anchors = (
{
name = L;
pos = (516,-100);
},
{
name = U;
pos = (486,1370);
}
);
layerId = "E8A33793-4A0E-4E9A-9368-A1D232455500";
shapes = (
{
closed = 1;
nodes = (
(707,623,l),
(682,646,l),
(65,646,l),
(57,625,o),
(42,581,o),
(36,561,c),
(58,536,l),
(675,536,l)
);
},
{
ref = L;
}
);
width = 1020;
}
);
unicode = 573;
},
{
glyphname = Ldoublebar;
layers = (
{
anchors = (
{
name = L;
pos = (497,-100);
},
{
name = U;
pos = (467,1370);
}
);
hints = (
{
horizontal = 1;
name = hr00;
origin = (0,0);
target = (0,0);
type = Tag;
}
);
layerId = "DDA1A922-6BCD-4FE9-B3B8-E722553F0315";
shapes = (
{
closed = 1;
nodes = (
(944,244,c),
(901,262,l),
(844,106,o),
(807,90,o),
(684,90,cs),
(541,90,ls),
(395,90,o),
(355,117,o),
(355,164,cs),
(355,437,l),
(595,437,l),
(620,504,l),
(595,527,l),
(355,527,l),
(355,637,l),
(595,637,l),
(620,704,l),
(595,727,l),
(355,727,l),
(355,1155,ls),
(355,1174,o),
(410,1198,o),
(500,1217,c),
(500,1260,l),
(50,1260,l),
(50,1217,l),
(146,1198,o),
(195,1171,o),
(195,1155,cs),
(195,727,l),
(66,727,l),
(58,706,o),
(50,682,o),
(44,662,c),
(66,637,l),
(195,637,l),
(195,527,l),
(66,527,l),
(58,506,o),
(50,482,o),
(44,462,c),
(66,437,l),
(195,437,l),
(195,104,ls),
(195,86,o),
(140,61,o),
(50,43,c),
(50,0,l),
(903,0,l),
(913,39,o),
(934,129,o)
);
}
);
width = 975;
},
{
anchors = (
{
name = L;
pos = (526,-100);
},
{
name = U;
pos = (496,1370);
}
);
layerId = "8BF1279D-F38F-4102-BF8D-9111B5ED49F5";
shapes = (
{
closed = 1;
nodes = (
(1019,304,c),
(946,330,l),
(889,174,o),
(852,120,o),
(729,120,cs),
(616,120,ls),
(470,120,o),
(430,147,o),
(430,194,cs),
(430,437,l),
(715,437,l),
(751,534,l),
(726,557,l),
(430,557,l),
(430,675,l),
(715,675,l),
(751,772,l),
(726,795,l),
(430,795,l),
(430,1125,ls),
(430,1144,o),
(478,1168,o),
(568,1187,c),
(568,1260,l),
(43,1260,l),
(43,1187,l),
(139,1168,o),
(180,1141,o),
(180,1125,cs),
(180,795,l),
(65,795,l),
(57,774,o),
(38,719,o),
(32,699,c),
(54,675,l),
(180,675,l),
(180,557,l),
(65,557,l),
(57,536,o),
(38,481,o),
(32,461,c),
(54,437,l),
(180,437,l),
(180,134,ls),
(180,116,o),
(133,91,o),
(43,73,c),
(43,0,l),
(978,0,l),
(988,39,o),
(1009,189,o)
);
}
);
width = 1043;
},
{
anchors = (
{
name = L;
pos = (516,-100);
},
{
name = U;
pos = (486,1370);
}
);
layerId = "E8A33793-4A0E-4E9A-9368-A1D232455500";
shapes = (
{
closed = 1;
nodes = (
(994,284,c),
(931,307,l),
(874,151,o),
(837,110,o),
(714,110,cs),
(591,110,ls),
(445,110,o),
(405,137,o),
(405,184,cs),
(405,437,l),
(675,437,l),
(707,524,l),
(682,547,l),
(405,547,l),
(405,662,l),
(675,662,l),
(707,749,l),
(682,772,l),
(405,772,l),
(405,1135,ls),
(405,1154,o),
(455,1178,o),
(545,1197,c),
(545,1260,l),
(45,1260,l),
(45,1197,l),
(141,1178,o),
(185,1151,o),
(185,1135,cs),
(185,772,l),
(65,772,l),
(57,751,o),
(42,707,o),
(36,687,c),
(58,662,l),
(185,662,l),
(185,547,l),
(65,547,l),
(57,526,o),
(42,481,o),
(36,461,c),
(58,437,l),
(185,437,l),
(185,124,ls),
(185,106,o),
(135,81,o),
(45,63,c),
(45,0,l),
(953,0,l),
(963,39,o),
(984,169,o)
);
}
);
width = 1020;
}
);
unicode = 11360;
},
{
glyphname = Lmiddletilde;
layers = (
{
anchors = (
{
name = L;
pos = (497,-100);
},
{
name = U;
pos = (467,1370);
}
);
hints = (
{
horizontal = 1;
name = hr00;
origin = (0,2);
target = (0,2);
type = Tag;
}
);
layerId = "DDA1A922-6BCD-4FE9-B3B8-E722553F0315";
shapes = (
{
closed = 1;
nodes = (
(913,39,o),
(934,129,o),
(944,244,c),
(901,262,l),
(844,106,o),
(807,90,o),
(684,90,cs),
(541,90,ls),
(395,90,o),
(355,117,o),
(355,164,cs),
(355,499,l),
(364,497,o),
(373,496,o),
(382,496,cs),
(486,496,o),
(575,613,o),
(622,721,c),
(568,744,l),
(523,666,o),
(474,621,o),
(423,621,cs),
(402,621,o),
(379,633,o),
(355,649,c),
(355,1155,ls),
(355,1174,o),
(410,1198,o),
(500,1217,c),
(500,1260,l),
(50,1260,l),
(50,1217,l),
(146,1198,o),
(195,1171,o),
(195,1155,cs),
(195,733,l),
(189,733,o),
(184,734,o),
(179,734,cs),
(75,734,o),
(-13,617,o),
(-60,508,c),
(-7,488,l),
(42,562,o),
(83,609,o),
(136,609,cs),
(155,609,o),
(175,602,o),
(195,591,c),
(195,104,ls),
(195,86,o),
(140,61,o),
(50,43,c),
(50,0,l),
(903,0,l)
);
}
);
width = 975;
},
{
anchors = (
{
name = L;
pos = (526,-100);
},
{
name = U;
pos = (493,1370);
}
);
layerId = "8BF1279D-F38F-4102-BF8D-9111B5ED49F5";
shapes = (
{
closed = 1;
nodes = (
(1019,304,c),
(946,330,l),
(889,174,o),
(852,120,o),
(729,120,cs),
(616,120,ls),
(470,120,o),
(430,147,o),
(430,194,cs),
(430,522,l),
(446,522,ls),
(569,522,o),
(654,655,o),
(701,763,c),
(624,794,l),
(579,716,o),
(538,678,o),
(479,678,cs),
(463,678,o),
(447,681,o),
(430,687,c),
(430,1125,ls),
(430,1144,o),
(478,1168,o),
(568,1187,c),
(568,1260,l),
(43,1260,l),
(43,1187,l),
(139,1168,o),
(180,1141,o),
(180,1125,cs),
(180,784,l),
(168,784,ls),
(46,784,o),
(-39,649,o),
(-86,540,c),
(-11,512,l),
(38,586,o),
(72,627,o),
(132,627,cs),
(148,627,o),
(164,624,o),
(180,620,c),
(180,134,ls),
(180,116,o),
(133,91,o),
(43,73,c),
(43,0,l),
(978,0,l),
(988,39,o),
(1009,189,o)
);
}
);
width = 1043;
},
{
anchors = (
{
name = H;
pos = (520,0);
},
{
name = L;
pos = (520,-100);
},
{
name = R;
pos = (795,900);
},
{
name = U;
pos = (488,1370);
}
);
layerId = "E8A33793-4A0E-4E9A-9368-A1D232455500";
shapes = (
{
closed = 1;
nodes = (
(874,151,o),
(837,110,o),
(714,110,cs),
(591,110,ls),
(445,110,o),
(405,137,o),
(405,184,cs),
(405,492,l),
(408,492,ls),
(524,492,o),
(616,645,o),
(663,753,c),
(594,780,l),
(549,702,o),
(505,663,o),
(449,663,cs),
(435,663,o),
(420,667,o),
(405,672,c),
(405,1135,ls),
(405,1154,o),
(455,1178,o),
(545,1197,c),
(545,1260,l),
(45,1260,l),
(45,1197,l),
(141,1178,o),
(185,1151,o),
(185,1135,cs),
(185,769,l),
(178,770,o),
(172,770,o),
(165,770,cs),
(49,770,o),
(-42,617,o),
(-89,508,c),
(-21,482,l),
(28,556,o),
(64,599,o),
(122,599,cs),
(143,599,o),
(164,593,o),
(185,585,c),
(185,124,ls),
(185,106,o),
(135,81,o),
(45,63,c),
(45,0,l),
(953,0,l),
(963,39,o),
(984,169,o),
(994,284,c),
(931,307,l)
);
}
);
width = 1020;
}
);
unicode = 11362;
},
{
glyphname = Lslash;
layers = (
{
anchors = (
{
name = L;
pos = (492,-100);
},
{
name = U;
pos = (492,1370);
}
);
hints = (
{
horizontal = 1;
name = hr00;
origin = (0,0);
target = (0,0);
type = Tag;
}
);
layerId = "DDA1A922-6BCD-4FE9-B3B8-E722553F0315";
shapes = (
{
closed = 1;
nodes = (
(944,244,c),
(901,262,l),
(844,106,o),
(807,90,o),
(684,90,cs),
(541,90,ls),
(395,90,o),
(355,117,o),
(355,164,cs),
(355,614,l),
(606,741,l),
(625,764,o),
(648,804,o),
(659,828,c),
(633,853,l),
(355,712,l),
(355,1155,ls),
(355,1174,o),
(410,1198,o),
(500,1217,c),
(500,1260,l),
(50,1260,l),
(50,1217,l),
(146,1198,o),
(195,1171,o),
(195,1155,cs),
(195,632,l),
(92,580,l),
(75,564,o),
(50,516,o),
(41,491,c),
(68,469,l),
(195,533,l),
(195,104,ls),
(195,86,o),
(140,61,o),
(50,43,c),
(50,0,l),
(903,0,l),
(913,39,o),
(934,129,o)
);
}
);
width = 975;
},
{
anchors = (
{
name = L;
pos = (522,-100);
},
{
name = U;
pos = (522,1370);
}
);
layerId = "8BF1279D-F38F-4102-BF8D-9111B5ED49F5";
shapes = (
{
closed = 1;
nodes = (
(1019,304,c),
(946,330,l),
(889,174,o),
(852,120,o),
(729,120,cs),
(616,120,ls),
(470,120,o),
(430,147,o),
(430,194,cs),
(430,597,l),
(695,731,l),
(713,760,o),
(734,818,o),
(741,857,c),
(715,882,l),
(430,738,l),
(430,1125,ls),
(430,1144,o),
(478,1168,o),
(568,1187,c),
(568,1260,l),
(43,1260,l),
(43,1187,l),
(139,1168,o),
(180,1141,o),
(180,1125,cs),
(180,613,l),
(69,557,l),
(54,533,o),
(31,468,o),
(25,428,c),
(52,406,l),
(180,470,l),
(180,134,ls),
(180,116,o),
(133,91,o),
(43,73,c),
(43,0,l),
(978,0,l),
(988,39,o),
(1009,189,o)
);
}
);
width = 1043;
},
{
anchors = (
{
name = L;
pos = (512,-100);
},
{
name = U;
pos = (512,1370);
}
);
layerId = "E8A33793-4A0E-4E9A-9368-A1D232455500";
shapes = (
{
closed = 1;
nodes = (
(994,284,c),
(931,307,l),
(874,151,o),
(837,110,o),
(714,110,cs),
(591,110,ls),
(445,110,o),
(405,137,o),
(405,184,cs),
(405,603,l),
(665,734,l),
(683,761,o),
(705,813,o),
(713,847,c),
(687,872,l),
(405,729,l),
(405,1135,ls),
(405,1154,o),
(455,1178,o),
(545,1197,c),
(545,1260,l),
(45,1260,l),
(45,1197,l),
(141,1178,o),
(185,1151,o),
(185,1135,cs),
(185,619,l),
(76,565,l),
(61,543,o),
(37,484,o),
(30,449,c),
(57,427,l),
(185,491,l),
(185,124,ls),
(185,106,o),
(135,81,o),
(45,63,c),
(45,0,l),
(953,0,l),
(963,39,o),
(984,169,o)
);
}
);
width = 1020;
}
);
unicode = 321;
},
{
glyphname = M;
layers = (
{
anchors = (
{
name = L;
pos = (815,-100);
},
{
name = U;
pos = (815,1370);
}
);
hints = (
{
horizontal = 1;
name = hr00;
origin = (0,0);
target = (0,0);
type = Tag;
}
);
layerId = "DDA1A922-6BCD-4FE9-B3B8-E722553F0315";
shapes = (
{
closed = 1;
nodes = (
(1550,1217,c),
(1550,1260,l),
(1264,1260,ls),
(1239,1260,o),
(1234,1256,o),
(1200,1176,cs),
(818,274,l),
(420,1176,ls),
(388,1248,o),
(383,1260,o),
(356,1260,cs),
(70,1260,l),
(70,1217,l),
(110,1217,o),
(165,1206,o),
(215,1177,c),
(205,104,ls),
(205,86,o),
(151,61,o),
(60,43,c),
(60,0,l),
(465,0,l),
(465,43,l),
(369,61,o),
(320,88,o),
(320,104,cs),
(329,1033,l),
(774,0,l),
(823,0,l),
(1261,1040,l),
(1270,104,ls),
(1270,86,o),
(1205,61,o),
(1115,43,c),
(1115,0,l),
(1570,0,l),
(1570,43,l),
(1474,61,o),
(1425,88,o),
(1425,104,cs),
(1415,1181,l),
(1462,1203,o),
(1512,1217,o)
);
}
);
width = 1651;
},
{
anchors = (
{
name = L;
pos = (856,-100);
},
{
name = U;
pos = (856,1370);
}
);
layerId = "8BF1279D-F38F-4102-BF8D-9111B5ED49F5";
shapes = (
{
closed = 1;
nodes = (
(1633,1187,c),
(1633,1260,l),
(1294,1260,ls),
(1269,1260,o),
(1257,1255,o),
(1223,1176,c),
(848,341,l),
(480,1176,ls),
(448,1248,o),
(436,1260,o),
(409,1260,cs),
(63,1260,l),
(63,1187,l),
(102,1187,o),
(153,1178,o),
(200,1152,c),
(190,134,ls),
(190,116,o),
(144,91,o),
(53,73,c),
(53,0,l),
(473,0,l),
(473,73,l),
(377,91,o),
(335,118,o),
(335,134,cs),
(343,945,l),
(759,0,l),
(853,0,l),
(1277,947,l),
(1285,134,ls),
(1285,116,o),
(1228,91,o),
(1138,73,c),
(1138,0,l),
(1660,0,l),
(1660,73,l),
(1564,91,o),
(1515,118,o),
(1515,134,cs),
(1505,1159,l),
(1553,1177,o),
(1600,1187,o)
);
}
);
width = 1734;
},
{
anchors = (
{
name = L;
pos = (842,-100);
},
{
name = U;
pos = (842,1370);
}
);
layerId = "E8A33793-4A0E-4E9A-9368-A1D232455500";
shapes = (
{
closed = 1;
nodes = (
(1605,1197,c),
(1605,1260,l),
(1284,1260,ls),
(1259,1260,o),
(1249,1255,o),
(1215,1176,cs),
(838,319,l),
(460,1176,ls),
(428,1248,o),
(418,1260,o),
(391,1260,cs),
(65,1260,l),
(65,1197,l),
(104,1197,o),
(157,1187,o),
(205,1160,c),
(195,124,ls),
(195,106,o),
(146,81,o),
(55,63,c),
(55,0,l),
(470,0,l),
(470,63,l),
(374,81,o),
(330,108,o),
(330,124,cs),
(338,974,l),
(764,0,l),
(843,0,l),
(1271,978,l),
(1280,124,ls),
(1280,106,o),
(1220,81,o),
(1130,63,c),
(1130,0,l),
(1630,0,l),
(1630,63,l),
(1534,81,o),
(1485,108,o),
(1485,124,cs),
(1475,1166,l),
(1522,1186,o),
(1570,1197,o)
);
}
);
width = 1706;
}
);
unicode = 77;
},
{
glyphname = N;
layers = (
{
anchors = (
{
name = H;
pos = (1075,0);
},
{
name = L;
pos = (665,-100);
},
{
name = U;
pos = (665,1370);
}
);
hints = (
{
horizontal = 1;
name = hr00;
origin = (0,0);
target = (0,0);
type = Tag;
}
);
layerId = "DDA1A922-6BCD-4FE9-B3B8-E722553F0315";
shapes = (
{
closed = 1;
nodes = (
(460,0,l),
(460,43,l),
(357,57,o),
(315,88,o),
(315,104,cs),
(315,993,l),
(1016,21,ls),
(1032,-1,o),
(1069,-22,o),
(1135,-30,c),
(1135,1155,ls),
(1135,1174,o),
(1184,1204,o),
(1280,1217,c),
(1280,1260,l),
(870,1260,l),
(870,1217,l),
(977,1202,o),
(1015,1171,o),
(1015,1155,cs),
(1015,276,l),
(358,1182,ls),
(308,1251,o),
(301,1260,o),
(262,1260,cs),
(50,1260,l),
(50,1217,l),
(102,1209,o),
(151,1190,o),
(195,1149,c),
(195,104,ls),
(195,86,o),
(148,55,o),
(50,43,c),
(50,0,l)
);
}
);
width = 1329;
},
{
anchors = (
{
name = H;
pos = (1105,0);
},
{
name = L;
pos = (680,-100);
},
{
name = U;
pos = (680,1370);
}
);
layerId = "8BF1279D-F38F-4102-BF8D-9111B5ED49F5";
shapes = (
{
closed = 1;
nodes = (
(468,0,l),
(468,73,l),
(365,87,o),
(330,118,o),
(330,134,cs),
(330,920,l),
(941,74,ls),
(977,25,o),
(1053,-20,o),
(1180,-30,c),
(1180,1125,ls),
(1180,1144,o),
(1222,1174,o),
(1318,1187,c),
(1318,1260,l),
(893,1260,l),
(893,1187,l),
(1000,1172,o),
(1030,1141,o),
(1030,1125,cs),
(1030,334,l),
(418,1182,ls),
(368,1251,o),
(361,1260,o),
(322,1260,cs),
(43,1260,l),
(43,1187,l),
(90,1179,o),
(137,1154,o),
(180,1114,c),
(180,134,ls),
(180,116,o),
(141,85,o),
(43,73,c),
(43,0,l)
);
}
);
width = 1359;
},
{
anchors = (
{
name = H;
pos = (1095,0);
},
{
name = L;
pos = (675,-100);
},
{
name = U;
pos = (675,1370);
}
);
layerId = "E8A33793-4A0E-4E9A-9368-A1D232455500";
shapes = (
{
closed = 1;
nodes = (
(465,0,l),
(465,63,l),
(362,77,o),
(325,108,o),
(325,124,cs),
(325,944,l),
(966,56,ls),
(995,16,o),
(1058,-21,o),
(1165,-30,c),
(1165,1135,ls),
(1165,1154,o),
(1209,1184,o),
(1305,1197,c),
(1305,1260,l),
(885,1260,l),
(885,1197,l),
(992,1182,o),
(1025,1151,o),
(1025,1135,cs),
(1025,315,l),
(398,1182,ls),
(348,1251,o),
(341,1260,o),
(302,1260,cs),
(45,1260,l),
(45,1197,l),
(94,1189,o),
(141,1166,o),
(185,1126,c),
(185,124,ls),
(185,106,o),
(143,75,o),
(45,63,c),
(45,0,l)
);
}
);
width = 1349;
}
);
unicode = 78;
},
{
glyphname = Nhookleft;
layers = (
{
anchors = (
{
name = L;
pos = (665,-600);
},
{
name = U;
pos = (665,1370);
}
);
hints = (
{
horizontal = 1;
name = hr00;
origin = (0,0);
target = (0,0);
type = Tag;
}
);
layerId = "DDA1A922-6BCD-4FE9-B3B8-E722553F0315";
shapes = (
{
closed = 1;
nodes = (
(1135,-30,c),
(1135,1155,ls),
(1135,1174,o),
(1184,1204,o),
(1280,1217,c),
(1280,1260,l),
(870,1260,l),
(870,1217,l),
(977,1202,o),
(1015,1171,o),
(1015,1155,cs),
(1015,276,l),
(358,1182,l),
(307,1251,o),
(301,1260,o),
(262,1260,cs),
(50,1260,l),
(50,1217,l),
(102,1208,o),
(150,1190,o),
(195,1149,c),
(195,133,ls),
(195,-180,o),
(99,-257,o),
(29,-257,cs),
(-22,-257,o),
(-55,-249,o),
(-129,-200,c),
(-166,-214,o),
(-245,-278,o),
(-245,-300,cs),
(-245,-323,o),
(-161,-380,o),
(-80,-380,cs),
(-28,-380,o),
(84,-345,o),
(156,-288,c),
(260,-202,o),
(315,-111,o),
(315,205,cs),
(315,993,l),
(1016,21,ls),
(1032,-1,o),
(1069,-22,o)
);
}
);
width = 1329;
},
{
anchors = (
{
name = L;
pos = (655,-600);
},
{
name = U;
pos = (655,1370);
}
);
layerId = "8BF1279D-F38F-4102-BF8D-9111B5ED49F5";
shapes = (
{
closed = 1;
nodes = (
(1180,-30,c),
(1180,1125,ls),
(1180,1144,o),
(1222,1174,o),
(1318,1187,c),
(1318,1260,l),
(893,1260,l),
(893,1187,l),
(1000,1172,o),
(1030,1141,o),
(1030,1125,cs),
(1030,334,l),
(418,1182,ls),
(368,1251,o),
(361,1260,o),
(322,1260,cs),
(43,1260,l),
(43,1187,l),
(90,1179,o),
(137,1153,o),
(180,1114,c),
(180,74,ls),
(180,-141,o),
(128,-250,o),
(34,-250,cs),
(-27,-250,o),
(-96,-227,o),
(-155,-159,c),
(-193,-174,o),
(-324,-301,o),
(-324,-323,cs),
(-324,-361,o),
(-194,-418,o),
(-74,-418,cs),
(39,-418,o),
(153,-340,o),
(216,-273,cs),
(311,-171,o),
(330,-47,o),
(330,132,cs),
(330,920,l),
(941,74,ls),
(977,25,o),
(1053,-20,o)
);
}
);
width = 1359;
},
{
anchors = (
{
name = L;
pos = (658,-600);
},
{
name = U;
pos = (658,1370);
}
);
layerId = "E8A33793-4A0E-4E9A-9368-A1D232455500";
shapes = (
{
closed = 1;
nodes = (
(1165,-30,c),
(1165,1135,ls),
(1165,1154,o),
(1210,1184,o),
(1306,1197,c),
(1306,1260,l),
(886,1260,l),
(886,1197,l),
(993,1182,o),
(1025,1151,o),
(1025,1135,cs),
(1025,315,l),
(398,1182,l),
(348,1251,o),
(341,1260,o),
(302,1260,cs),
(46,1260,l),
(46,1197,l),
(94,1189,o),
(142,1165,o),
(185,1126,c),
(185,94,ls),
(185,-154,o),
(119,-252,o),
(33,-252,cs),
(-25,-252,o),
(-82,-234,o),
(-146,-173,c),
(-184,-187,o),
(-297,-293,o),
(-297,-315,cs),
(-297,-348,o),
(-183,-405,o),
(-76,-405,cs),
(17,-405,o),
(130,-342,o),
(196,-278,c),
(294,-181,o),
(325,-68,o),
(325,156,cs),
(325,944,l),
(966,56,ls),
(996,16,o),
(1059,-21,o)
);
}
);
width = 1349;
}
);
unicode = 413;
},
{
glyphname = Eng;
layers = (
{
anchors = (
{
name = L;
pos = (664,-600);
},
{
name = U;
pos = (660,1370);
}
);
guides = (
{
angle = 90;
pos = (663,0);
}
);
hints = (
{
horizontal = 1;
name = hr01;
origin = (0,37);
target = (0,0);
type = Tag;
}
);
layerId = "DDA1A922-6BCD-4FE9-B3B8-E722553F0315";
shapes = (
{
closed = 1;
nodes = (
(1125,277,c),
(1125,981,ls),
(1125,1231,o),
(979,1290,o),
(864,1290,cs),
(721,1290,o),
(560,1210,o),
(355,928,c),
(355,1255,l),
(320,1290,l),
(249,1253,o),
(145,1227,o),
(55,1210,c),
(55,1167,l),
(190,1153,o),
(195,1135,o),
(195,1030,cs),
(195,104,ls),
(195,86,o),
(139,61,o),
(49,43,c),
(49,0,l),
(500,0,l),
(500,43,l),
(403,61,o),
(355,88,o),
(355,104,cs),
(355,748,l),
(560,1073,o),
(690,1150,o),
(797,1150,cs),
(897,1150,o),
(965,1090,o),
(965,872,cs),
(965,224,ls),
(965,-106,o),
(830,-264,o),
(704,-264,cs),
(636,-264,o),
(539,-233,o),
(467,-161,c),
(428,-177,o),
(330,-249,o),
(330,-272,cs),
(330,-314,o),
(462,-380,o),
(578,-380,cs),
(674,-380,o),
(793,-344,o),
(866,-288,cs),
(1001,-184,o),
(1125,1,o)
);
}
);
width = 1235;
},
{
anchors = (
{
name = L;
pos = (696,-600);
},
{
name = U;
pos = (696,1370);
}
);
layerId = "8BF1279D-F38F-4102-BF8D-9111B5ED49F5";
shapes = (
{
closed = 1;
nodes = (
(1200,277,c),
(1200,981,ls),
(1200,1231,o),
(1054,1290,o),
(939,1290,cs),
(796,1290,o),
(649,1234,o),
(430,1026,c),
(430,1248,l),
(388,1290,l),
(296,1253,o),
(142,1221,o),
(48,1210,c),
(48,1137,l),
(183,1123,o),
(180,1105,o),
(180,1000,cs),
(180,134,ls),
(180,116,o),
(132,91,o),
(42,73,c),
(42,0,l),
(575,0,l),
(575,73,l),
(478,91,o),
(430,118,o),
(430,134,cs),
(430,838,l),
(614,1048,o),
(734,1098,o),
(812,1098,cs),
(912,1098,o),
(950,1060,o),
(950,872,cs),
(950,224,ls),
(950,-106,o),
(865,-257,o),
(749,-257,cs),
(657,-257,o),
(579,-195,o),
(505,-124,c),
(466,-140,o),
(308,-279,o),
(308,-302,cs),
(308,-344,o),
(485,-418,o),
(601,-418,cs),
(739,-418,o),
(863,-355,o),
(934,-296,cs),
(1100,-155,o),
(1200,1,o)
);
}
);
width = 1332;
},
{
anchors = (
{
name = L;
pos = (685,-600);
},
{
name = U;
pos = (684,1370);
}
);
layerId = "E8A33793-4A0E-4E9A-9368-A1D232455500";
shapes = (
{
closed = 1;
nodes = (
(1175,277,c),
(1175,981,ls),
(1175,1231,o),
(1029,1290,o),
(914,1290,cs),
(771,1290,o),
(619,1226,o),
(405,993,c),
(405,1250,l),
(365,1290,l),
(280,1253,o),
(143,1223,o),
(50,1210,c),
(50,1147,l),
(185,1133,o),
(185,1115,o),
(185,1010,cs),
(185,124,ls),
(185,106,o),
(134,81,o),
(44,63,c),
(44,0,l),
(550,0,l),
(550,63,l),
(453,81,o),
(405,108,o),
(405,124,cs),
(405,808,l),
(596,1056,o),
(719,1115,o),
(807,1115,cs),
(907,1115,o),
(955,1070,o),
(955,872,cs),
(955,224,ls),
(955,-106,o),
(853,-259,o),
(734,-259,cs),
(650,-259,o),
(565,-208,o),
(492,-136,c),
(453,-152,o),
(315,-269,o),
(315,-292,cs),
(315,-334,o),
(477,-405,o),
(593,-405,cs),
(717,-405,o),
(839,-351,o),
(911,-293,cs),
(1067,-165,o),
(1175,1,o)
);
}
);
width = 1300;
}
);
unicode = 330;
userData = {
com.typemytype.robofont.guides = (
{
angle = 90;
isGlobal = 0;
magnetic = 5;
x = 663;
y = 0;
}
);
};
},
{
glyphname = O;
layers = (
{
anchors = (
{
name = H;
pos = (585,0);
},
{
name = L;
pos = (615,-100);
},
{
name = O;
pos = (676,0);
},
{
name = R;
pos = (1150,900);
},
{
name = U;
pos = (615,1370);
}
);
hints = (
{
horizontal = 1;
name = hr00;
origin = (0,0);
target = (0,0);
type = Tag;
}
);
layerId = "DDA1A922-6BCD-4FE9-B3B8-E722553F0315";
shapes = (
{
closed = 1;
nodes = (
(1138,647,c),
(1138,973,o),
(963,1290,o),
(633,1290,cs),
(319,1290,o),
(70,975,o),
(70,612,cs),
(70,276,o),
(254,-30,o),
(575,-30,cs),
(879,-30,o),
(1138,285,o)
);
},
{
closed = 1;
nodes = (
(983,629,c),
(983,276,o),
(825,90,o),
(604,90,cs),
(399,90,o),
(225,342,o),
(225,641,cs),
(225,967,o),
(367,1175,o),
(604,1175,cs),
(831,1175,o),
(983,905,o)
);
}
);
width = 1229;
},
{
anchors = (
{
name = H;
pos = (606,0);
},
{
name = L;
pos = (638,-100);
},
{
name = O;
pos = (703,0);
},
{
name = R;
pos = (1188,900);
},
{
name = U;
pos = (638,1370);
}
);
layerId = "8BF1279D-F38F-4102-BF8D-9111B5ED49F5";
shapes = (
{
closed = 1;
nodes = (
(1198,647,c),
(1198,973,o),
(1008,1290,o),
(656,1290,cs),
(304,1290,o),
(55,975,o),
(55,612,cs),
(55,276,o),
(261,-30,o),
(598,-30,cs),
(923,-30,o),
(1198,285,o)
);
},
{
closed = 1;
nodes = (
(946,629,c),
(946,276,o),
(818,105,o),
(642,105,cs),
(459,105,o),
(308,342,o),
(308,641,cs),
(308,967,o),
(412,1160,o),
(604,1160,cs),
(809,1160,o),
(946,905,o)
);
}
);
width = 1274;
},
{
anchors = (
{
name = H;
pos = (599,0);
},
{
name = L;
pos = (630,-100);
},
{
name = O;
pos = (694,0);
},
{
name = R;
pos = (1175,900);
},
{
name = U;
pos = (630,1370);
}
);
layerId = "E8A33793-4A0E-4E9A-9368-A1D232455500";
shapes = (
{
closed = 1;
nodes = (
(1178,647,c),
(1178,973,o),
(993,1290,o),
(648,1290,cs),
(309,1290,o),
(60,975,o),
(60,612,cs),
(60,276,o),
(259,-30,o),
(590,-30,cs),
(908,-30,o),
(1178,285,o)
);
},
{
closed = 1;
nodes = (
(958,629,c),
(958,276,o),
(820,100,o),
(629,100,cs),
(439,100,o),
(280,342,o),
(280,641,cs),
(280,967,o),
(397,1165,o),
(604,1165,cs),
(816,1165,o),
(958,905,o)
);
}
);
width = 1259;
}
);
unicode = 79;
},
{
glyphname = Obarred;
layers = (
{
anchors = (
{
name = L;
pos = (604,-100);
},
{
name = U;
pos = (604,1370);
}
);
hints = (
{
horizontal = 1;
name = hr00;
origin = (0,0);
target = (0,0);
type = Tag;
}
);
layerId = "DDA1A922-6BCD-4FE9-B3B8-E722553F0315";
shapes = (
{
closed = 1;
nodes = (
(1138,647,cs),
(1138,973,o),
(963,1290,o),
(633,1290,cs),
(319,1290,o),
(70,975,o),
(70,612,cs),
(70,276,o),
(254,-30,o),
(575,-30,cs),
(879,-30,o),
(1138,285,o)
);
},
{
closed = 1;
nodes = (
(982,615,l),
(978,271,o),
(822,90,o),
(604,90,cs),
(405,90,o),
(235,327,o),
(225,615,c)
);
},
{
closed = 1;
nodes = (
(979,705,c),
(227,705,l),
(244,994,o),
(383,1175,o),
(604,1175,cs),
(810,1175,o),
(954,952,o)
);
}
);
width = 1229;
},
{
anchors = (
{
name = L;
pos = (627,-100);
},
{
name = U;
pos = (627,1370);
}
);
layerId = "8BF1279D-F38F-4102-BF8D-9111B5ED49F5";
shapes = (
{
closed = 1;
nodes = (
(1198,647,cs),
(1198,973,o),
(1008,1290,o),
(656,1290,cs),
(304,1290,o),
(55,975,o),
(55,612,cs),
(55,276,o),
(261,-30,o),
(598,-30,cs),
(923,-30,o),
(1198,285,o)
);
},
{
closed = 1;
nodes = (
(945,600,l),
(938,267,o),
(812,105,o),
(642,105,cs),
(467,105,o),
(321,320,o),
(308,600,c)
);
},
{
closed = 1;
nodes = (
(940,720,c),
(310,720,l),
(325,998,o),
(428,1160,o),
(604,1160,cs),
(786,1160,o),
(914,958,o)
);
}
);
width = 1274;
},
{
anchors = (
{
name = L;
pos = (619,-100);
},
{
name = U;
pos = (619,1370);
}
);
layerId = "E8A33793-4A0E-4E9A-9368-A1D232455500";
shapes = (
{
closed = 1;
nodes = (
(1178,647,cs),
(1178,973,o),
(993,1290,o),
(648,1290,cs),
(309,1290,o),
(60,975,o),
(60,612,cs),
(60,276,o),
(259,-30,o),
(590,-30,cs),
(908,-30,o),
(1178,285,o)
);
},
{
closed = 1;
nodes = (
(957,605,l),
(951,268,o),
(815,100,o),
(629,100,cs),
(446,100,o),
(292,322,o),
(280,605,c)
);
},
{
closed = 1;
nodes = (
(953,715,c),
(282,715,l),
(298,997,o),
(413,1165,o),
(604,1165,cs),
(794,1165,o),
(927,956,o)
);
}
);
width = 1259;
}
);
unicode = 415;
},
{
glyphname = Ohorn;
layers = (
{
anchors = (
{
name = L;
pos = (615,-100);
},
{
name = U;
pos = (615,1370);
}
);
hints = (
{
horizontal = 1;
name = hr00;
origin = (0,0);
target = (0,0);
type = Tag;
}
);
layerId = "DDA1A922-6BCD-4FE9-B3B8-E722553F0315";
shapes = (
{
closed = 1;
nodes = (
(1220,1392,cs),
(1220,1431,o),
(1199,1466,o),
(1168,1495,c),
(990,1415,l),
(1027,1384,o),
(1048,1349,o),
(1048,1311,cs),
(1048,1276,o),
(1014,1223,o),
(935,1174,c),
(856,1246,o),
(755,1290,o),
(633,1290,cs),
(319,1290,o),
(70,975,o),
(70,612,cs),
(70,276,o),
(254,-30,o),
(575,-30,cs),
(879,-30,o),
(1138,285,o),
(1138,647,cs),
(1138,825,o),
(1085,1000,o),
(984,1123,c),
(1167,1221,o),
(1220,1329,o)
);
},
{
closed = 1;
nodes = (
(983,629,cs),
(983,276,o),
(825,90,o),
(604,90,cs),
(399,90,o),
(225,342,o),
(225,641,cs),
(225,967,o),
(367,1175,o),
(604,1175,cs),
(831,1175,o),
(983,905,o)
);
}
);
width = 1229;
},
{
anchors = (
{
name = L;
pos = (628,-100);
},
{
name = U;
pos = (628,1370);
}
);
layerId = "8BF1279D-F38F-4102-BF8D-9111B5ED49F5";
shapes = (
{
closed = 1;
nodes = (
(1265,1392,cs),
(1265,1447,o),
(1235,1504,o),
(1198,1533,c),
(938,1415,l),
(975,1384,o),
(1003,1349,o),
(1003,1311,cs),
(1003,1282,o),
(991,1241,o),
(947,1200,c),
(868,1256,o),
(770,1290,o),
(656,1290,cs),
(304,1290,o),
(55,975,o),
(55,612,cs),
(55,276,o),
(261,-30,o),
(598,-30,cs),
(923,-30,o),
(1198,285,o),
(1198,647,cs),
(1198,824,o),
(1141,998,o),
(1034,1121,c),
(1193,1213,o),
(1265,1314,o)
);
},
{
closed = 1;
nodes = (
(946,629,cs),
(946,276,o),
(818,105,o),
(642,105,cs),
(459,105,o),
(308,342,o),
(308,641,cs),
(308,967,o),
(412,1160,o),
(604,1160,cs),
(809,1160,o),
(946,905,o)
);
}
);
width = 1274;
},
{
anchors = (
{
name = L;
pos = (624,-100);
},
{
name = U;
pos = (624,1370);
}
);
layerId = "E8A33793-4A0E-4E9A-9368-A1D232455500";
shapes = (
{
closed = 1;
nodes = (
(1250,1392,cs),
(1250,1442,o),
(1223,1491,o),
(1188,1520,c),
(955,1415,l),
(992,1384,o),
(1018,1349,o),
(1018,1311,cs),
(1018,1280,o),
(999,1235,o),
(943,1191,c),
(864,1253,o),
(765,1290,o),
(648,1290,cs),
(309,1290,o),
(60,975,o),
(60,612,cs),
(60,276,o),
(259,-30,o),
(590,-30,cs),
(908,-30,o),
(1178,285,o),
(1178,647,cs),
(1178,824,o),
(1122,999,o),
(1017,1122,c),
(1184,1216,o),
(1250,1319,o)
);
},
{
closed = 1;
nodes = (
(958,629,cs),
(958,276,o),
(820,100,o),
(629,100,cs),
(439,100,o),
(280,342,o),
(280,641,cs),
(280,967,o),
(397,1165,o),
(604,1165,cs),
(816,1165,o),
(958,905,o)
);
}
);
width = 1259;
}
);
unicode = 416;
},
{
glyphname = Oopen;
layers = (
{
anchors = (
{
name = L;
pos = (539,-100);
},
{
name = U;
pos = (539,1370);
}
);
hints = (
{
horizontal = 1;
name = hr00;
origin = (0,0);
target = (0,0);
type = Tag;
}
);
layerId = "DDA1A922-6BCD-4FE9-B3B8-E722553F0315";
shapes = (
{
closed = 1;
nodes = (
(1018,678,c),
(1018,1065,o),
(764,1290,o),
(514,1290,cs),
(379,1290,o),
(250,1260,o),
(70,1081,c),
(76,1073,o),
(92,1042,o),
(106,1036,c),
(266,1149,o),
(373,1175,o),
(444,1175,cs),
(635,1175,o),
(863,995,o),
(863,641,cs),
(863,225,o),
(684,85,o),
(496,85,cs),
(338,85,o),
(235,203,o),
(235,299,cs),
(235,373,o),
(250,412,o),
(326,457,c),
(303,506,l),
(256,489,o),
(180,463,o),
(121,432,c),
(76,381,o),
(61,330,o),
(61,274,cs),
(61,137,o),
(190,-30,o),
(451,-30,cs),
(778,-30,o),
(1018,258,o)
);
}
);
width = 1098;
},
{
anchors = (
{
name = L;
pos = (554,-100);
},
{
name = U;
pos = (554,1370);
}
);
layerId = "8BF1279D-F38F-4102-BF8D-9111B5ED49F5";
shapes = (
{
closed = 1;
nodes = (
(1071,678,c),
(1071,1065,o),
(814,1290,o),
(537,1290,cs),
(402,1290,o),
(220,1245,o),
(40,1074,c),
(46,1066,o),
(77,1012,o),
(91,1006,c),
(251,1112,o),
(358,1134,o),
(429,1134,cs),
(620,1134,o),
(818,995,o),
(818,641,cs),
(818,230,o),
(675,115,o),
(519,115,cs),
(383,115,o),
(288,214,o),
(288,314,cs),
(288,388,o),
(303,442,o),
(379,487,c),
(344,566,l),
(297,549,o),
(165,501,o),
(106,470,c),
(61,419,o),
(46,345,o),
(46,289,cs),
(46,141,o),
(169,-30,o),
(466,-30,cs),
(818,-30,o),
(1071,258,o)
);
}
);
width = 1136;
},
{
anchors = (
{
name = L;
pos = (549,-100);
},
{
name = U;
pos = (549,1370);
}
);
layerId = "E8A33793-4A0E-4E9A-9368-A1D232455500";
shapes = (
{
closed = 1;
nodes = (
(1053,678,c),
(1053,1065,o),
(797,1290,o),
(529,1290,cs),
(394,1290,o),
(230,1250,o),
(50,1076,c),
(56,1068,o),
(82,1022,o),
(96,1016,c),
(256,1124,o),
(363,1148,o),
(434,1148,cs),
(625,1148,o),
(833,995,o),
(833,641,cs),
(833,228,o),
(678,105,o),
(511,105,cs),
(368,105,o),
(270,210,o),
(270,309,cs),
(270,383,o),
(285,432,o),
(361,477,c),
(330,546,l),
(283,529,o),
(170,488,o),
(111,457,c),
(66,406,o),
(51,340,o),
(51,284,cs),
(51,140,o),
(176,-30,o),
(461,-30,cs),
(805,-30,o),
(1053,258,o)
);
}
);
width = 1123;
}
);
unicode = 390;
},
{
glyphname = Oslash;
layers = (
{
anchors = (
{
name = L;
pos = (604,-100);
},
{
name = U;
pos = (604,1370);
}
);
hints = (
{
horizontal = 1;
name = hr00;
origin = (0,0);
target = (0,0);
type = Tag;
}
);
layerId = "DDA1A922-6BCD-4FE9-B3B8-E722553F0315";
shapes = (
{
closed = 1;
nodes = (
(1130,1280,l),
(1102,1313,l),
(1061,1303,o),
(1012,1286,o),
(975,1264,c),
(921,1187,l),
(844,1251,o),
(748,1290,o),
(633,1290,cs),
(319,1290,o),
(70,975,o),
(70,612,cs),
(70,443,o),
(116,281,o),
(204,162,c),
(76,-20,l),
(104,-53,l),
(137,-43,o),
(209,-23,o),
(233,-2,c),
(286,74,l),
(364,9,o),
(460,-30,o),
(575,-30,cs),
(879,-30,o),
(1138,285,o),
(1138,647,cs),
(1138,813,o),
(1092,978,o),
(1003,1099,c)
);
},
{
closed = 1;
nodes = (
(225,641,cs),
(225,967,o),
(367,1175,o),
(604,1175,cs),
(694,1175,o),
(773,1132,o),
(834,1063,c),
(305,307,l),
(255,400,o),
(225,516,o)
);
},
{
closed = 1;
nodes = (
(983,629,cs),
(983,276,o),
(825,90,o),
(604,90,cs),
(520,90,o),
(441,132,o),
(377,203,c),
(905,959,l),
(955,864,o),
(983,747,o)
);
}
);
width = 1229;
},
{
anchors = (
{
name = L;
pos = (627,-100);
},
{
name = U;
pos = (627,1370);
}
);
layerId = "8BF1279D-F38F-4102-BF8D-9111B5ED49F5";
shapes = (
{
closed = 1;
nodes = (
(1189,1276,l),
(1157,1313,l),
(1116,1308,o),
(1033,1286,o),
(996,1264,c),
(948,1199,l),
(869,1256,o),
(771,1290,o),
(656,1290,cs),
(304,1290,o),
(55,975,o),
(55,612,cs),
(55,445,o),
(106,286,o),
(198,168,c),
(64,-16,l),
(96,-53,l),
(129,-48,o),
(235,-23,o),
(259,-2,c),
(306,63,l),
(386,4,o),
(485,-30,o),
(598,-30,cs),
(923,-30,o),
(1198,285,o),
(1198,647,cs),
(1198,811,o),
(1149,973,o),
(1056,1094,c)
);
},
{
closed = 1;
nodes = (
(308,641,cs),
(308,967,o),
(412,1160,o),
(604,1160,cs),
(693,1160,o),
(770,1111,o),
(828,1033,c),
(351,378,l),
(324,455,o),
(308,545,o)
);
},
{
closed = 1;
nodes = (
(946,629,cs),
(946,276,o),
(818,105,o),
(642,105,cs),
(560,105,o),
(485,152,o),
(427,230,c),
(904,885,l),
(931,807,o),
(946,719,o)
);
}
);
width = 1274;
},
{
anchors = (
{
name = L;
pos = (619,-100);
},
{
name = U;
pos = (619,1370);
}
);
layerId = "E8A33793-4A0E-4E9A-9368-A1D232455500";
shapes = (
{
closed = 1;
nodes = (
(1169,1277,l),
(1139,1313,l),
(1098,1306,o),
(1026,1286,o),
(989,1264,c),
(939,1195,l),
(861,1254,o),
(763,1290,o),
(648,1290,cs),
(309,1290,o),
(60,975,o),
(60,612,cs),
(60,444,o),
(109,284,o),
(200,166,c),
(68,-17,l),
(99,-53,l),
(132,-46,o),
(226,-23,o),
(250,-2,c),
(299,67,l),
(379,6,o),
(477,-30,o),
(590,-30,cs),
(908,-30,o),
(1178,285,o),
(1178,647,cs),
(1178,812,o),
(1130,975,o),
(1038,1096,c)
);
},
{
closed = 1;
nodes = (
(280,641,cs),
(280,967,o),
(397,1165,o),
(604,1165,cs),
(693,1165,o),
(771,1118,o),
(830,1043,c),
(335,354,l),
(301,437,o),
(280,535,o)
);
},
{
closed = 1;
nodes = (
(958,629,cs),
(958,276,o),
(820,100,o),
(629,100,cs),
(546,100,o),
(470,145,o),
(410,221,c),
(904,910,l),
(939,826,o),
(958,728,o)
);
}
);
width = 1259;
}
);
unicode = 216;
},
{
glyphname = OE;
layers = (
{
anchors = (
{
name = L;
pos = (822,-100);
},
{
name = U;
pos = (822,1370);
}
);
hints = (
{
horizontal = 1;
name = hr00;
origin = (0,0);
target = (0,0);
type = Tag;
}
);
layerId = "DDA1A922-6BCD-4FE9-B3B8-E722553F0315";
shapes = (
{
closed = 1;
nodes = (
(1575,244,c),
(1532,262,l),
(1473,106,o),
(1432,90,o),
(1309,90,cs),
(1180,90,ls),
(1004,90,o),
(1016,115,o),
(1016,154,cs),
(1016,655,l),
(1116,655,ls),
(1229,655,o),
(1274,639,o),
(1315,600,c),
(1341,621,o),
(1382,670,o),
(1407,707,c),
(1378,735,l),
(1016,735,l),
(1016,1169,l),
(1339,1169,ls),
(1391,1169,o),
(1415,1133,o),
(1421,1010,c),
(1468,1010,l),
(1485,1061,o),
(1503,1167,o),
(1507,1235,c),
(1477,1260,l),
(885,1260,l),
(779,1262,o),
(739,1290,o),
(633,1290,cs),
(319,1290,o),
(70,975,o),
(70,612,cs),
(70,276,o),
(254,-30,o),
(575,-30,cs),
(692,-30,o),
(738,-2,o),
(880,0,c),
(1534,0,l),
(1544,39,o),
(1565,129,o)
);
},
{
closed = 1;
nodes = (
(604,90,cs),
(399,90,o),
(225,342,o),
(225,641,cs),
(225,967,o),
(367,1176,o),
(604,1176,cs),
(698,1176,o),
(784,1153,o),
(854,1099,c),
(854,139,l),
(788,95,o),
(711,90,o)
);
}
);
width = 1634;
},
{
anchors = (
{
name = L;
pos = (867,-100);
},
{
name = U;
pos = (867,1370);
}
);
layerId = "8BF1279D-F38F-4102-BF8D-9111B5ED49F5";
shapes = (
{
closed = 1;
nodes = (
(1679,304,c),
(1606,330,l),
(1549,174,o),
(1506,120,o),
(1383,120,cs),
(1284,120,ls),
(1108,120,o),
(1090,145,o),
(1090,184,cs),
(1090,625,l),
(1221,625,ls),
(1333,625,o),
(1378,609,o),
(1419,570,c),
(1448,591,o),
(1489,663,o),
(1511,700,c),
(1477,735,l),
(1090,735,l),
(1090,1140,l),
(1416,1140,ls),
(1465,1140,o),
(1492,1073,o),
(1498,950,c),
(1573,950,l),
(1589,1001,o),
(1610,1160,o),
(1614,1228,c),
(1574,1260,l),
(889,1260,l),
(802,1262,o),
(762,1290,o),
(656,1290,cs),
(310,1290,o),
(55,975,o),
(55,612,cs),
(55,276,o),
(265,-30,o),
(598,-30,cs),
(715,-30,o),
(740,-2,o),
(880,0,c),
(1638,0,l),
(1649,39,o),
(1669,189,o)
);
},
{
closed = 1;
nodes = (
(642,105,cs),
(455,105,o),
(308,342,o),
(308,641,cs),
(308,967,o),
(414,1161,o),
(604,1161,cs),
(690,1161,o),
(778,1130,o),
(840,1067,c),
(840,159,l),
(785,120,o),
(740,105,o)
);
}
);
width = 1726;
},
{
anchors = (
{
name = L;
pos = (852,-100);
},
{
name = U;
pos = (852,1370);
}
);
layerId = "E8A33793-4A0E-4E9A-9368-A1D232455500";
shapes = (
{
closed = 1;
nodes = (
(1644,284,c),
(1581,307,l),
(1524,151,o),
(1481,110,o),
(1358,110,cs),
(1249,110,ls),
(1073,110,o),
(1065,135,o),
(1065,174,cs),
(1065,635,l),
(1186,635,ls),
(1298,635,o),
(1343,619,o),
(1384,580,c),
(1412,601,o),
(1453,665,o),
(1476,702,c),
(1444,735,l),
(1065,735,l),
(1065,1150,l),
(1390,1150,ls),
(1440,1150,o),
(1466,1093,o),
(1472,970,c),
(1538,970,l),
(1554,1021,o),
(1574,1162,o),
(1578,1230,c),
(1542,1260,l),
(888,1260,l),
(794,1262,o),
(754,1290,o),
(648,1290,cs),
(313,1290,o),
(60,975,o),
(60,612,cs),
(60,276,o),
(261,-30,o),
(590,-30,cs),
(707,-30,o),
(739,-2,o),
(880,0,c),
(1603,0,l),
(1614,39,o),
(1634,169,o)
);
},
{
closed = 1;
nodes = (
(629,100,cs),
(436,100,o),
(280,342,o),
(280,641,cs),
(280,967,o),
(398,1166,o),
(604,1166,cs),
(692,1166,o),
(780,1138,o),
(844,1078,c),
(844,152,l),
(786,112,o),
(730,100,o)
);
}
);
width = 1695;
}
);
unicode = 338;
},
{
glyphname = P;
layers = (
{
anchors = (
{
name = L;
pos = (511,-100);
},
{
name = U;
pos = (511,1370);
}
);
hints = (
{
horizontal = 1;
name = hr00;
origin = (0,0);
target = (0,0);
type = Tag;
}
);
layerId = "DDA1A922-6BCD-4FE9-B3B8-E722553F0315";
shapes = (
{
closed = 1;
nodes = (
(530,0,l),
(530,43,l),
(391,66,o),
(355,88,o),
(355,104,cs),
(355,1204,l),
(387,1205,o),
(420,1206,o),
(453,1206,cs),
(659,1206,o),
(827,1114,o),
(827,895,cs),
(827,707,o),
(666,610,o),
(543,610,cs),
(496,610,o),
(444,615,o),
(389,640,c),
(412,565,l),
(457,545,o),
(512,535,o),
(573,535,cs),
(729,535,o),
(982,659,o),
(982,936,cs),
(982,1165,o),
(797,1290,o),
(510,1290,cs),
(348,1290,o),
(170,1265,o),
(41,1230,c),
(50,1168,l),
(97,1176,o),
(146,1184,o),
(195,1190,c),
(195,104,ls),
(195,86,o),
(140,61,o),
(50,43,c),
(50,0,l)
);
}
);
width = 1071;
},
{
anchors = (
{
name = L;
pos = (558,-100);
},
{
name = U;
pos = (558,1370);
}
);
layerId = "8BF1279D-F38F-4102-BF8D-9111B5ED49F5";
shapes = (
{
closed = 1;
nodes = (
(598,0,l),
(598,73,l),
(459,96,o),
(430,118,o),
(430,134,cs),
(430,1182,l),
(459,1183,o),
(487,1184,o),
(513,1184,cs),
(704,1184,o),
(835,1084,o),
(835,895,cs),
(835,707,o),
(719,625,o),
(603,625,cs),
(556,625,o),
(519,630,o),
(464,655,c),
(495,550,l),
(540,530,o),
(602,520,o),
(663,520,cs),
(840,519,o),
(1087,659,o),
(1087,936,cs),
(1087,1165,o),
(880,1290,o),
(570,1290,cs),
(393,1290,o),
(174,1265,o),
(30,1230,c),
(43,1138,l),
(83,1145,o),
(130,1152,o),
(180,1158,c),
(180,134,ls),
(180,116,o),
(133,91,o),
(43,73,c),
(43,0,l)
);
}
);
width = 1161;
},
{
anchors = (
{
name = L;
pos = (542,-100);
},
{
name = U;
pos = (542,1370);
}
);
layerId = "E8A33793-4A0E-4E9A-9368-A1D232455500";
shapes = (
{
closed = 1;
nodes = (
(576,0,l),
(576,63,l),
(437,86,o),
(405,108,o),
(405,124,cs),
(405,1189,l),
(435,1190,o),
(465,1191,o),
(493,1191,cs),
(689,1191,o),
(833,1094,o),
(833,895,cs),
(833,707,o),
(702,620,o),
(583,620,cs),
(536,620,o),
(494,625,o),
(439,650,c),
(468,555,l),
(513,535,o),
(572,525,o),
(633,525,cs),
(803,524,o),
(1052,659,o),
(1052,936,cs),
(1052,1165,o),
(853,1290,o),
(550,1290,cs),
(378,1290,o),
(173,1265,o),
(34,1230,c),
(46,1148,l),
(88,1155,o),
(136,1163,o),
(185,1169,c),
(185,124,ls),
(185,106,o),
(136,81,o),
(46,63,c),
(46,0,l)
);
}
);
width = 1131;
}
);
unicode = 80;
},
{
glyphname = Thorn;
layers = (
{
anchors = (
{
name = L;
pos = (515,-100);
},
{
name = U;
pos = (515,1370);
}
);
hints = (
{
horizontal = 1;
name = hr00;
origin = (0,0);
target = (0,0);
type = Tag;
}
);
layerId = "DDA1A922-6BCD-4FE9-B3B8-E722553F0315";
shapes = (
{
closed = 1;
nodes = (
(530,0,l),
(530,43,l),
(391,66,o),
(355,88,o),
(355,104,cs),
(355,933,l),
(387,935,o),
(420,936,o),
(453,936,cs),
(659,936,o),
(827,846,o),
(827,625,cs),
(827,436,o),
(666,340,o),
(543,340,cs),
(496,340,o),
(444,344,o),
(389,369,c),
(412,298,l),
(457,275,o),
(512,265,o),
(573,265,cs),
(729,265,o),
(982,389,o),
(982,666,cs),
(982,895,o),
(797,1020,o),
(510,1020,cs),
(447,1020,o),
(397,1018,o),
(355,1014,c),
(355,1155,ls),
(355,1174,o),
(393,1194,o),
(530,1217,c),
(530,1260,l),
(49,1260,l),
(49,1217,l),
(145,1198,o),
(195,1171,o),
(195,1155,cs),
(195,104,ls),
(195,86,o),
(139,61,o),
(49,43,c),
(49,0,l)
);
}
);
width = 1071;
},
{
anchors = (
{
name = L;
pos = (564,-100);
},
{
name = U;
pos = (564,1370);
}
);
layerId = "8BF1279D-F38F-4102-BF8D-9111B5ED49F5";
shapes = (
{
closed = 1;
nodes = (
(598,0,l),
(598,73,l),
(459,96,o),
(430,118,o),
(430,134,cs),
(430,917,l),
(459,919,o),
(487,920,o),
(513,920,cs),
(704,920,o),
(835,822,o),
(835,633,cs),
(835,444,o),
(719,363,o),
(603,363,cs),
(556,363,o),
(519,367,o),
(464,392,c),
(495,288,l),
(540,268,o),
(602,258,o),
(663,258,cs),
(840,257,o),
(1087,397,o),
(1087,674,cs),
(1087,903,o),
(880,1028,o),
(570,1028,cs),
(523,1028,o),
(476,1026,o),
(430,1023,c),
(430,1125,ls),
(430,1144,o),
(461,1164,o),
(598,1187,c),
(598,1260,l),
(42,1260,l),
(42,1187,l),
(138,1168,o),
(180,1141,o),
(180,1125,cs),
(180,134,ls),
(180,116,o),
(132,91,o),
(42,73,c),
(42,0,l)
);
}
);
width = 1161;
},
{
anchors = (
{
name = L;
pos = (548,-100);
},
{
name = U;
pos = (548,1370);
}
);
layerId = "E8A33793-4A0E-4E9A-9368-A1D232455500";
shapes = (
{
closed = 1;
nodes = (
(575,0,l),
(575,63,l),
(436,86,o),
(405,108,o),
(405,124,cs),
(405,922,l),
(435,924,o),
(464,925,o),
(493,925,cs),
(689,925,o),
(832,830,o),
(832,630,cs),
(832,441,o),
(701,355,o),
(583,355,cs),
(536,355,o),
(494,359,o),
(439,384,c),
(467,291,l),
(512,270,o),
(572,260,o),
(633,260,cs),
(803,260,o),
(1052,394,o),
(1052,671,cs),
(1052,900,o),
(852,1025,o),
(550,1025,cs),
(497,1025,o),
(449,1023,o),
(405,1020,c),
(405,1135,ls),
(405,1154,o),
(438,1174,o),
(575,1197,c),
(575,1260,l),
(44,1260,l),
(44,1197,l),
(140,1178,o),
(185,1151,o),
(185,1135,cs),
(185,124,ls),
(185,106,o),
(134,81,o),
(44,63,c),
(44,0,l)
);
}
);
width = 1131;
}
);
unicode = 222;
},
{
glyphname = Q;
layers = (
{
anchors = (
{
name = L;
pos = (604,-270);
},
{
name = U;
pos = (604,1370);
}
);
hints = (
{
horizontal = 1;
name = hr00;
origin = (0,0);
target = (0,0);
type = Tag;
}
);
layerId = "DDA1A922-6BCD-4FE9-B3B8-E722553F0315";
shapes = (
{
closed = 1;
nodes = (
(1282,-117,c),
(1255,-82,l),
(1176,-141,o),
(1141,-160,o),
(1108,-160,cs),
(1009,-160,o),
(888,-52,o),
(765,12,c),
(979,109,o),
(1138,364,o),
(1138,647,cs),
(1138,973,o),
(963,1290,o),
(633,1290,cs),
(319,1290,o),
(70,975,o),
(70,612,cs),
(70,260,o),
(281,-30,o),
(575,-30,cs),
(590,-30,o),
(605,-29,o),
(620,-27,c),
(780,-120,o),
(936,-305,o),
(1102,-305,cs),
(1143,-305,o),
(1219,-233,o)
);
},
{
closed = 1;
nodes = (
(983,629,cs),
(983,276,o),
(825,90,o),
(604,90,cs),
(399,90,o),
(225,342,o),
(225,641,cs),
(225,967,o),
(367,1175,o),
(604,1175,cs),
(831,1175,o),
(983,905,o)
);
}
);
width = 1229;
},
{
anchors = (
{
name = L;
pos = (655,-270);
},
{
name = U;
pos = (655,1370);
}
);
layerId = "8BF1279D-F38F-4102-BF8D-9111B5ED49F5";
shapes = (
{
closed = 1;
nodes = (
(1417,-125,c),
(1368,-60,l),
(1289,-119,o),
(1261,-130,o),
(1228,-130,cs),
(1109,-130,o),
(981,-28,o),
(832,26,c),
(1045,133,o),
(1198,377,o),
(1198,647,cs),
(1198,973,o),
(1008,1290,o),
(656,1290,cs),
(304,1290,o),
(55,975,o),
(55,612,cs),
(55,272,o),
(268,-30,o),
(598,-30,cs),
(617,-30,o),
(637,-28,o),
(656,-26,c),
(845,-123,o),
(1036,-328,o),
(1222,-328,cs),
(1263,-328,o),
(1354,-241,o)
);
},
{
closed = 1;
nodes = (
(946,629,cs),
(946,276,o),
(818,105,o),
(642,105,cs),
(459,105,o),
(308,342,o),
(308,641,cs),
(308,967,o),
(412,1160,o),
(604,1160,cs),
(809,1160,o),
(946,905,o)
);
}
);
width = 1274;
},
{
anchors = (
{
name = L;
pos = (638,-270);
},
{
name = U;
pos = (638,1370);
}
);
layerId = "E8A33793-4A0E-4E9A-9368-A1D232455500";
shapes = (
{
closed = 1;
nodes = (
(1372,-122,c),
(1330,-67,l),
(1251,-126,o),
(1221,-140,o),
(1188,-140,cs),
(1076,-140,o),
(950,-36,o),
(810,21,c),
(1023,125,o),
(1178,373,o),
(1178,647,cs),
(1178,973,o),
(993,1290,o),
(648,1290,cs),
(309,1290,o),
(60,975,o),
(60,612,cs),
(60,268,o),
(272,-30,o),
(590,-30,cs),
(608,-30,o),
(626,-28,o),
(644,-26,c),
(823,-122,o),
(1003,-320,o),
(1182,-320,cs),
(1223,-320,o),
(1309,-238,o)
);
},
{
closed = 1;
nodes = (
(958,629,cs),
(958,276,o),
(820,100,o),
(629,100,cs),
(439,100,o),
(280,342,o),
(280,641,cs),
(280,967,o),
(397,1165,o),
(604,1165,cs),
(816,1165,o),
(958,905,o)
);
}
);
width = 1259;
}
);
unicode = 81;
},
{
glyphname = Qhooktail;
layers = (
{
anchors = (
{
name = L;
pos = (604,-600);
},
{
name = U;
pos = (604,1370);
}
);
layerId = "DDA1A922-6BCD-4FE9-B3B8-E722553F0315";
shapes = (
{
closed = 1;
nodes = (
(894,-168,l),
(894,-374,o),
(925,-500,o),
(1097,-500,cs),
(1265,-500,o),
(1452,-364,o),
(1452,-235,c),
(1433,-196,l),
(1378,-196,o),
(1267,-243,o),
(1267,-264,c),
(1274,-278,o),
(1278,-292,o),
(1278,-306,cs),
(1278,-358,o),
(1229,-405,o),
(1171,-405,cs),
(1063,-405,o),
(1054,-312,o),
(1054,-106,cs),
(1054,964,ls),
(1054,1126,o),
(1091,1250,o),
(1091,1250,c),
(1049,1288,l),
(1018,1253,o),
(973,1203,o),
(930,1174,c),
(828,1273,o),
(755,1290,o),
(671,1290,cs),
(610,1290,o),
(504,1259,o),
(413,1203,cs),
(299,1133,o),
(66,911,o),
(66,597,cs),
(66,198,o),
(312,-30,o),
(489,-30,cs),
(653,-30,o),
(769,64,o),
(894,225,c)
);
},
{
closed = 1;
nodes = (
(544,105,cs),
(383,105,o),
(216,333,o),
(216,638,cs),
(216,974,o),
(455,1155,o),
(634,1155,cs),
(748,1155,o),
(842,1094,o),
(894,991,c),
(894,332,l),
(787,222,o),
(651,105,o)
);
}
);
width = 1229;
},
{
anchors = (
{
name = L;
pos = (653,-600);
},
{
name = U;
pos = (653,1370);
}
);
layerId = "8BF1279D-F38F-4102-BF8D-9111B5ED49F5";
shapes = (
{
closed = 1;
nodes = (
(894,-198,l),
(894,-397,o),
(1008,-493,o),
(1172,-493,cs),
(1408,-493,o),
(1602,-319,o),
(1602,-190,c),
(1576,-136,l),
(1521,-136,o),
(1335,-191,o),
(1335,-212,c),
(1342,-226,o),
(1346,-240,o),
(1346,-254,cs),
(1346,-306,o),
(1312,-375,o),
(1246,-375,cs),
(1161,-375,o),
(1144,-305,o),
(1144,-99,cs),
(1144,964,ls),
(1144,1126,o),
(1181,1243,o),
(1181,1243,c),
(1132,1288,l),
(1106,1259,o),
(1034,1206,o),
(973,1168,c),
(862,1273,o),
(757,1290,o),
(671,1290,cs),
(582,1290,o),
(482,1259,o),
(391,1203,cs),
(277,1133,o),
(51,911,o),
(51,597,cs),
(51,198,o),
(275,-30,o),
(489,-30,cs),
(647,-30,o),
(767,49,o),
(894,206,c)
);
},
{
closed = 1;
nodes = (
(597,165,cs),
(451,165,o),
(291,348,o),
(291,638,cs),
(291,974,o),
(478,1140,o),
(634,1140,cs),
(739,1140,o),
(837,1077,o),
(894,987,c),
(894,354,l),
(799,254,o),
(703,165,o)
);
}
);
width = 1364;
},
{
anchors = (
{
name = L;
pos = (637,-600);
},
{
name = U;
pos = (637,1370);
}
);
layerId = "E8A33793-4A0E-4E9A-9368-A1D232455500";
shapes = (
{
closed = 1;
nodes = (
(894,-188,l),
(894,-389,o),
(980,-495,o),
(1147,-495,cs),
(1360,-495,o),
(1552,-334,o),
(1552,-205,c),
(1528,-156,l),
(1473,-156,o),
(1312,-208,o),
(1312,-229,c),
(1319,-243,o),
(1323,-257,o),
(1323,-271,cs),
(1323,-323,o),
(1284,-385,o),
(1221,-385,cs),
(1128,-385,o),
(1114,-307,o),
(1114,-101,cs),
(1114,964,ls),
(1114,1126,o),
(1151,1245,o),
(1151,1245,c),
(1104,1288,l),
(1077,1257,o),
(1014,1205,o),
(959,1170,c),
(851,1273,o),
(756,1290,o),
(671,1290,cs),
(591,1290,o),
(489,1259,o),
(398,1203,cs),
(284,1133,o),
(56,911,o),
(56,597,cs),
(56,198,o),
(287,-30,o),
(489,-30,cs),
(649,-30,o),
(768,54,o),
(894,212,c)
);
},
{
closed = 1;
nodes = (
(579,145,cs),
(428,145,o),
(266,343,o),
(266,638,cs),
(266,974,o),
(470,1145,o),
(634,1145,cs),
(742,1145,o),
(839,1083,o),
(894,988,c),
(894,347,l),
(795,243,o),
(686,145,o)
);
}
);
width = 1319;
}
);
unicode = 586;
},
{
glyphname = R;
layers = (
{
anchors = (
{
name = H;
pos = (275,0);
},
{
name = L;
pos = (520,-100);
},
{
name = U;
pos = (520,1370);
}
);
hints = (
{
horizontal = 1;
name = hr00;
origin = (0,0);
target = (0,0);
type = Tag;
}
);
layerId = "DDA1A922-6BCD-4FE9-B3B8-E722553F0315";
shapes = (
{
closed = 1;
nodes = (
(500,0,l),
(500,43,l),
(403,61,o),
(355,88,o),
(355,104,cs),
(355,611,l),
(392,603,o),
(427,600,o),
(461,600,cs),
(479,600,o),
(497,600,o),
(514,602,c),
(817,41,l),
(835,11,o),
(877,-14,o),
(915,-14,cs),
(967,-14,o),
(1051,8,o),
(1139,37,c),
(1128,80,l),
(1038,72,o),
(988,81,o),
(948,139,c),
(645,625,l),
(811,675,o),
(927,796,o),
(927,987,cs),
(927,1159,o),
(778,1290,o),
(469,1290,cs),
(293,1290,o),
(166,1261,o),
(41,1230,c),
(50,1168,l),
(99,1175,o),
(148,1183,o),
(195,1189,c),
(195,104,ls),
(195,86,o),
(140,61,o),
(50,43,c),
(50,0,l)
);
},
{
closed = 1;
nodes = (
(432,1206,cs),
(670,1206,o),
(772,1102,o),
(772,956,cs),
(772,780,o),
(654,684,o),
(444,684,cs),
(415,684,o),
(391,685,o),
(355,691,c),
(355,1203,l),
(381,1205,o),
(407,1206,o)
);
}
);
width = 1149;
},
{
anchors = (
{
name = H;
pos = (289,0);
},
{
name = L;
pos = (559,-100);
},
{
name = U;
pos = (559,1370);
}
);
layerId = "8BF1279D-F38F-4102-BF8D-9111B5ED49F5";
shapes = (
{
closed = 1;
nodes = (
(568,0,l),
(568,73,l),
(471,91,o),
(430,118,o),
(430,134,cs),
(430,596,l),
(467,588,o),
(502,585,o),
(536,585,cs),
(549,585,o),
(562,585,o),
(575,586,c),
(862,41,l),
(880,11,o),
(922,-14,o),
(960,-14,cs),
(1012,-14,o),
(1156,23,o),
(1244,52,c),
(1229,125,l),
(1139,117,o),
(1110,128,o),
(1068,184,c),
(753,620,l),
(918,677,o),
(1032,804,o),
(1032,987,cs),
(1032,1159,o),
(891,1290,o),
(529,1290,cs),
(338,1290,o),
(170,1261,o),
(30,1230,c),
(43,1138,l),
(85,1144,o),
(132,1151,o),
(180,1157,c),
(180,134,ls),
(180,116,o),
(133,91,o),
(43,73,c),
(43,0,l)
);
},
{
closed = 1;
nodes = (
(485,1184,cs),
(715,1184,o),
(780,1080,o),
(780,956,cs),
(780,795,o),
(699,699,o),
(519,699,cs),
(490,699,o),
(466,700,o),
(430,706,c),
(430,1182,l),
(449,1183,o),
(468,1184,o)
);
}
);
width = 1239;
},
{
anchors = (
{
name = H;
pos = (284,0);
},
{
name = L;
pos = (546,-100);
},
{
name = U;
pos = (546,1370);
}
);
layerId = "E8A33793-4A0E-4E9A-9368-A1D232455500";
shapes = (
{
closed = 1;
nodes = (
(546,0,l),
(546,63,l),
(449,81,o),
(405,108,o),
(405,124,cs),
(405,601,l),
(442,593,o),
(477,590,o),
(511,590,cs),
(526,590,o),
(541,590,o),
(555,591,c),
(847,41,l),
(865,11,o),
(907,-14,o),
(945,-14,cs),
(997,-14,o),
(1121,18,o),
(1209,47,c),
(1196,110,l),
(1106,102,o),
(1070,112,o),
(1028,169,c),
(717,622,l),
(883,676,o),
(997,801,o),
(997,987,cs),
(997,1159,o),
(854,1290,o),
(509,1290,cs),
(323,1290,o),
(169,1261,o),
(34,1230,c),
(46,1148,l),
(90,1154,o),
(138,1162,o),
(185,1168,c),
(185,124,ls),
(185,106,o),
(136,81,o),
(46,63,c),
(46,0,l)
);
},
{
closed = 1;
nodes = (
(467,1191,cs),
(700,1191,o),
(777,1087,o),
(777,956,cs),
(777,790,o),
(684,694,o),
(494,694,cs),
(465,694,o),
(441,695,o),
(405,701,c),
(405,1189,l),
(426,1190,o),
(448,1191,o)
);
}
);
width = 1209;
}
);
unicode = 82;
},
{
glyphname = S;
layers = (
{
anchors = (
{
name = H;
pos = (480,0);
},
{
name = L;
pos = (500,-100);
},
{
name = U;
pos = (500,1370);
}
);
hints = (
{
horizontal = 1;
name = hr00;
origin = (0,0);
target = (0,0);
type = Tag;
}
);
layerId = "DDA1A922-6BCD-4FE9-B3B8-E722553F0315";
shapes = (
{
closed = 1;
nodes = (
(885,377,c),
(885,772,o),
(257,762,o),
(257,1014,cs),
(257,1090,o),
(319,1190,o),
(467,1190,cs),
(543,1190,o),
(635,1159,o),
(709,1071,c),
(745,1065,l),
(778,1094,o),
(842,1182,o),
(823,1198,c),
(774,1251,o),
(647,1290,o),
(526,1290,cs),
(233,1290,o),
(127,1092,o),
(127,967,cs),
(127,580,o),
(750,649,o),
(750,324,cs),
(750,197,o),
(616,90,o),
(496,90,cs),
(360,90,o),
(233,162,o),
(172,319,c),
(131,324,l),
(111,252,o),
(113,78,o),
(131,68,cs),
(225,8,o),
(352,-30,o),
(440,-30,cs),
(741,-30,o),
(885,199,o)
);
}
);
width = 975;
},
{
anchors = (
{
name = H;
pos = (512,0);
},
{
name = L;
pos = (535,-100);
},
{
name = U;
pos = (535,1370);
}
);
layerId = "8BF1279D-F38F-4102-BF8D-9111B5ED49F5";
shapes = (
{
closed = 1;
nodes = (
(968,377,c),
(968,772,o),
(332,770,o),
(332,1022,cs),
(332,1098,o),
(387,1175,o),
(520,1175,cs),
(596,1175,o),
(696,1136,o),
(754,1011,c),
(820,1005,l),
(853,1034,o),
(925,1182,o),
(906,1198,c),
(857,1251,o),
(715,1290,o),
(571,1290,cs),
(248,1290,o),
(112,1085,o),
(112,960,cs),
(112,573,o),
(743,634,o),
(743,309,cs),
(743,182,o),
(631,113,o),
(511,113,cs),
(375,113,o),
(256,222,o),
(195,379,c),
(124,384,l),
(96,282,o),
(98,78,o),
(116,68,cs),
(210,8,o),
(375,-30,o),
(470,-30,cs),
(809,-30,o),
(968,199,o)
);
}
);
width = 1050;
},
{
anchors = (
{
name = H;
pos = (501,0);
},
{
name = L;
pos = (523,-100);
},
{
name = U;
pos = (523,1370);
}
);
layerId = "E8A33793-4A0E-4E9A-9368-A1D232455500";
shapes = (
{
closed = 1;
nodes = (
(940,377,c),
(940,772,o),
(307,767,o),
(307,1019,cs),
(307,1095,o),
(364,1180,o),
(502,1180,cs),
(578,1180,o),
(676,1144,o),
(739,1031,c),
(795,1025,l),
(828,1054,o),
(897,1182,o),
(878,1198,c),
(829,1251,o),
(692,1290,o),
(556,1290,cs),
(243,1290,o),
(117,1087,o),
(117,962,cs),
(117,575,o),
(745,639,o),
(745,314,cs),
(745,187,o),
(626,105,o),
(506,105,cs),
(370,105,o),
(248,202,o),
(187,359,c),
(126,364,l),
(101,272,o),
(103,78,o),
(121,68,cs),
(215,8,o),
(367,-30,o),
(460,-30,cs),
(786,-30,o),
(940,199,o)
);
}
);
width = 1025;
}
);
unicode = 83;
},
{
glyphname = T;
layers = (
{
anchors = (
{
name = H;
pos = (551,0);
},
{
name = L;
pos = (546,-100);
},
{
name = U;
pos = (546,1370);
}
);
hints = (
{
horizontal = 1;
name = hr00;
origin = (0,0);
target = (0,0);
type = Tag;
}
);
layerId = "DDA1A922-6BCD-4FE9-B3B8-E722553F0315";
shapes = (
{
closed = 1;
nodes = (
(795,0,l),
(795,43,l),
(672,68,o),
(631,98,o),
(631,115,cs),
(631,1170,l),
(915,1170,ls),
(972,1170,o),
(982,1124,o),
(1008,1000,c),
(1053,1000,l),
(1069,1084,o),
(1081,1167,o),
(1083,1235,c),
(1053,1260,l),
(43,1260,l),
(29,1190,o),
(16,1092,o),
(10,1014,c),
(53,995,l),
(113,1151,o),
(131,1170,o),
(172,1170,cs),
(471,1170,l),
(471,115,ls),
(471,96,o),
(430,68,o),
(307,43,c),
(307,0,l)
);
}
);
width = 1128;
},
{
anchors = (
{
name = H;
pos = (577,0);
},
{
name = L;
pos = (576,-100);
},
{
name = U;
pos = (576,1370);
}
);
layerId = "8BF1279D-F38F-4102-BF8D-9111B5ED49F5";
shapes = (
{
closed = 1;
nodes = (
(863,0,l),
(863,73,l),
(740,98,o),
(706,128,o),
(706,145,cs),
(706,1140,l),
(953,1140,ls),
(1010,1140,o),
(1012,1064,o),
(1038,940,c),
(1113,940,l),
(1129,1024,o),
(1149,1160,o),
(1151,1228,c),
(1113,1260,l),
(43,1260,l),
(29,1190,o),
(9,1036,o),
(3,958,c),
(76,931,l),
(136,1087,o),
(161,1140,o),
(202,1140,cs),
(456,1140,l),
(456,145,ls),
(456,126,o),
(423,98,o),
(300,73,c),
(300,0,l)
);
}
);
width = 1188;
},
{
anchors = (
{
name = H;
pos = (568,0);
},
{
name = L;
pos = (566,-100);
},
{
name = U;
pos = (566,1370);
}
);
layerId = "E8A33793-4A0E-4E9A-9368-A1D232455500";
shapes = (
{
closed = 1;
nodes = (
(840,0,l),
(840,63,l),
(717,88,o),
(681,118,o),
(681,135,cs),
(681,1150,l),
(940,1150,ls),
(997,1150,o),
(1002,1084,o),
(1028,960,c),
(1093,960,l),
(1109,1044,o),
(1126,1162,o),
(1128,1230,c),
(1093,1260,l),
(43,1260,l),
(29,1190,o),
(11,1055,o),
(5,977,c),
(68,952,l),
(128,1108,o),
(151,1150,o),
(192,1150,cs),
(461,1150,l),
(461,135,ls),
(461,116,o),
(425,88,o),
(302,63,c),
(302,0,l)
);
}
);
width = 1168;
}
);
unicode = 84;
},
{
glyphname = U;
layers = (
{
anchors = (
{
name = H;
pos = (677,0);
},
{
name = L;
pos = (677,-100);
},
{
name = O;
pos = (760,0);
},
{
name = R;
pos = (1330,900);
},
{
name = U;
pos = (677,1370);
}
);
hints = (
{
horizontal = 1;
name = hr00;
origin = (0,0);
target = (0,0);
type = Tag;
}
);
layerId = "DDA1A922-6BCD-4FE9-B3B8-E722553F0315";
shapes = (
{
closed = 1;
nodes = (
(1275,1217,c),
(1275,1260,l),
(855,1260,l),
(855,1217,l),
(951,1198,o),
(1000,1171,o),
(1000,1155,cs),
(1000,483,ls),
(1000,285,o),
(895,85,o),
(705,85,cs),
(477,85,o),
(355,238,o),
(355,494,cs),
(355,1155,ls),
(355,1174,o),
(410,1198,o),
(500,1217,c),
(500,1260,l),
(50,1260,l),
(50,1217,l),
(146,1198,o),
(195,1171,o),
(195,1155,cs),
(195,444,ls),
(195,119,o),
(391,-30,o),
(666,-30,cs),
(954,-30,o),
(1130,174,o),
(1130,524,cs),
(1130,1155,ls),
(1130,1174,o),
(1185,1198,o)
);
}
);
width = 1339;
},
{
anchors = (
{
name = H;
pos = (692,0);
},
{
name = L;
pos = (692,-100);
},
{
name = O;
pos = (778,0);
},
{
name = R;
pos = (1360,900);
},
{
name = U;
pos = (692,1370);
}
);
layerId = "8BF1279D-F38F-4102-BF8D-9111B5ED49F5";
shapes = (
{
closed = 1;
nodes = (
(1313,1187,c),
(1313,1260,l),
(863,1260,l),
(863,1187,l),
(959,1168,o),
(1000,1141,o),
(1000,1125,cs),
(1000,498,ls),
(1000,300,o),
(933,115,o),
(743,115,cs),
(515,115,o),
(430,253,o),
(430,509,cs),
(430,1125,ls),
(430,1144,o),
(478,1168,o),
(568,1187,c),
(568,1260,l),
(43,1260,l),
(43,1187,l),
(139,1168,o),
(180,1141,o),
(180,1125,cs),
(180,444,ls),
(180,119,o),
(406,-30,o),
(681,-30,cs),
(969,-30,o),
(1175,174,o),
(1175,524,cs),
(1175,1125,ls),
(1175,1144,o),
(1223,1168,o)
);
}
);
width = 1369;
},
{
anchors = (
{
name = H;
pos = (687,0);
},
{
name = L;
pos = (687,-100);
},
{
name = O;
pos = (772,0);
},
{
name = R;
pos = (1350,900);
},
{
name = U;
pos = (687,1370);
}
);
layerId = "E8A33793-4A0E-4E9A-9368-A1D232455500";
shapes = (
{
closed = 1;
nodes = (
(1300,1197,c),
(1300,1260,l),
(860,1260,l),
(860,1197,l),
(956,1178,o),
(1000,1151,o),
(1000,1135,cs),
(1000,493,ls),
(1000,295,o),
(920,105,o),
(730,105,cs),
(502,105,o),
(405,248,o),
(405,504,cs),
(405,1135,ls),
(405,1154,o),
(455,1178,o),
(545,1197,c),
(545,1260,l),
(45,1260,l),
(45,1197,l),
(141,1178,o),
(185,1151,o),
(185,1135,cs),
(185,444,ls),
(185,119,o),
(401,-30,o),
(676,-30,cs),
(964,-30,o),
(1160,174,o),
(1160,524,cs),
(1160,1135,ls),
(1160,1154,o),
(1210,1178,o)
);
}
);
width = 1359;
}
);
unicode = 85;
},
{
glyphname = Ubar;
layers = (
{
anchors = (
{
name = L;
pos = (677,-100);
},
{
name = U;
pos = (677,1370);
}
);
hints = (
{
horizontal = 1;
name = hr00;
origin = (0,0);
target = (0,0);
type = Tag;
}
);
layerId = "DDA1A922-6BCD-4FE9-B3B8-E722553F0315";
shapes = (
{
closed = 1;
nodes = (
(1275,1217,c),
(1275,1260,l),
(855,1260,l),
(855,1217,l),
(951,1198,o),
(1000,1171,o),
(1000,1155,cs),
(1000,705,l),
(355,705,l),
(355,1155,ls),
(355,1174,o),
(410,1198,o),
(500,1217,c),
(500,1260,l),
(50,1260,l),
(50,1217,l),
(146,1198,o),
(195,1171,o),
(195,1155,cs),
(195,705,l),
(66,705,l),
(58,684,o),
(50,660,o),
(44,640,c),
(66,615,l),
(195,615,l),
(195,444,ls),
(195,119,o),
(391,-30,o),
(666,-30,cs),
(954,-30,o),
(1130,174,o),
(1130,524,cs),
(1130,615,l),
(1260,615,l),
(1285,682,l),
(1260,705,l),
(1130,705,l),
(1130,1155,ls),
(1130,1174,o),
(1185,1198,o)
);
},
{
closed = 1;
nodes = (
(705,85,cs),
(477,85,o),
(355,238,o),
(355,494,cs),
(355,615,l),
(1000,615,l),
(1000,483,ls),
(1000,285,o),
(895,85,o)
);
}
);
width = 1339;
},
{
anchors = (
{
name = L;
pos = (698,-100);
},
{
name = U;
pos = (698,1370);
}
);
layerId = "8BF1279D-F38F-4102-BF8D-9111B5ED49F5";
shapes = (
{
closed = 1;
nodes = (
(1320,1187,c),
(1320,1260,l),
(870,1260,l),
(870,1187,l),
(966,1168,o),
(1008,1141,o),
(1008,1125,cs),
(1008,720,l),
(438,720,l),
(438,1125,ls),
(438,1144,o),
(485,1168,o),
(575,1187,c),
(575,1260,l),
(50,1260,l),
(50,1187,l),
(146,1168,o),
(188,1141,o),
(188,1125,cs),
(188,720,l),
(78,720,l),
(70,699,o),
(47,644,o),
(41,624,c),
(63,600,l),
(188,600,l),
(188,444,ls),
(188,119,o),
(414,-30,o),
(689,-30,cs),
(977,-30,o),
(1183,174,o),
(1183,524,cs),
(1183,600,l),
(1290,600,l),
(1330,697,l),
(1305,720,l),
(1183,720,l),
(1183,1125,ls),
(1183,1144,o),
(1230,1168,o)
);
},
{
closed = 1;
nodes = (
(750,115,cs),
(522,115,o),
(438,253,o),
(438,509,cs),
(438,600,l),
(1008,600,l),
(1008,498,ls),
(1008,300,o),
(940,115,o)
);
}
);
width = 1384;
},
{
anchors = (
{
name = L;
pos = (691,-100);
},
{
name = U;
pos = (691,1370);
}
);
layerId = "E8A33793-4A0E-4E9A-9368-A1D232455500";
shapes = (
{
closed = 1;
nodes = (
(1305,1197,c),
(1305,1260,l),
(865,1260,l),
(865,1197,l),
(961,1178,o),
(1005,1151,o),
(1005,1135,cs),
(1005,715,l),
(410,715,l),
(410,1135,ls),
(410,1154,o),
(460,1178,o),
(550,1197,c),
(550,1260,l),
(50,1260,l),
(50,1197,l),
(146,1178,o),
(190,1151,o),
(190,1135,cs),
(190,715,l),
(74,715,l),
(66,694,o),
(48,649,o),
(42,629,c),
(64,605,l),
(190,605,l),
(190,444,ls),
(190,119,o),
(406,-30,o),
(681,-30,cs),
(969,-30,o),
(1165,174,o),
(1165,524,cs),
(1165,605,l),
(1280,605,l),
(1315,692,l),
(1290,715,l),
(1165,715,l),
(1165,1135,ls),
(1165,1154,o),
(1215,1178,o)
);
},
{
closed = 1;
nodes = (
(735,105,cs),
(507,105,o),
(410,248,o),
(410,504,cs),
(410,605,l),
(1005,605,l),
(1005,493,ls),
(1005,295,o),
(925,105,o)
);
}
);
width = 1369;
}
);
unicode = 580;
},
{
glyphname = Uhorn;
layers = (
{
anchors = (
{
name = L;
pos = (677,-100);
},
{
name = U;
pos = (677,1370);
}
);
hints = (
{
horizontal = 1;
name = hr00;
origin = (0,0);
target = (0,0);
type = Tag;
}
);
layerId = "DDA1A922-6BCD-4FE9-B3B8-E722553F0315";
shapes = (
{
closed = 1;
nodes = (
(1400,1392,cs),
(1400,1431,o),
(1379,1466,o),
(1348,1495,c),
(1170,1415,l),
(1207,1384,o),
(1228,1349,o),
(1228,1311,cs),
(1228,1296,o),
(1222,1279,o),
(1210,1260,c),
(855,1260,l),
(855,1217,l),
(951,1198,o),
(1000,1171,o),
(1000,1155,cs),
(1000,483,ls),
(1000,285,o),
(895,85,o),
(705,85,cs),
(477,85,o),
(355,238,o),
(355,494,cs),
(355,1155,ls),
(355,1174,o),
(410,1198,o),
(500,1217,c),
(500,1260,l),
(50,1260,l),
(50,1217,l),
(146,1198,o),
(195,1171,o),
(195,1155,cs),
(195,444,ls),
(195,119,o),
(391,-30,o),
(666,-30,cs),
(954,-30,o),
(1130,174,o),
(1130,524,cs),
(1130,1105,l),
(1341,1207,o),
(1400,1325,o)
);
}
);
width = 1400;
},
{
anchors = (
{
name = L;
pos = (718,-100);
},
{
name = U;
pos = (718,1370);
}
);
layerId = "8BF1279D-F38F-4102-BF8D-9111B5ED49F5";
shapes = (
{
closed = 1;
nodes = (
(1498,1392,cs),
(1498,1447,o),
(1468,1504,o),
(1431,1533,c),
(1170,1415,l),
(1207,1384,o),
(1236,1349,o),
(1236,1311,cs),
(1236,1296,o),
(1233,1279,o),
(1224,1260,c),
(863,1260,l),
(863,1187,l),
(959,1168,o),
(1000,1141,o),
(1000,1125,cs),
(1000,498,ls),
(1000,300,o),
(933,115,o),
(743,115,cs),
(515,115,o),
(430,253,o),
(430,509,cs),
(430,1125,ls),
(430,1144,o),
(478,1168,o),
(568,1187,c),
(568,1260,l),
(43,1260,l),
(43,1187,l),
(139,1168,o),
(180,1141,o),
(180,1125,cs),
(180,444,ls),
(180,119,o),
(406,-30,o),
(681,-30,cs),
(969,-30,o),
(1175,174,o),
(1175,524,cs),
(1175,1074,l),
(1398,1177,o),
(1498,1300,o)
);
}
);
width = 1498;
},
{
anchors = (
{
name = L;
pos = (704,-100);
},
{
name = U;
pos = (704,1370);
}
);
layerId = "E8A33793-4A0E-4E9A-9368-A1D232455500";
shapes = (
{
closed = 1;
nodes = (
(1465,1392,cs),
(1465,1442,o),
(1438,1491,o),
(1403,1520,c),
(1170,1415,l),
(1207,1384,o),
(1233,1349,o),
(1233,1311,cs),
(1233,1296,o),
(1229,1279,o),
(1219,1260,c),
(860,1260,l),
(860,1197,l),
(956,1178,o),
(1000,1151,o),
(1000,1135,cs),
(1000,493,ls),
(1000,295,o),
(920,105,o),
(730,105,cs),
(502,105,o),
(405,248,o),
(405,504,cs),
(405,1135,ls),
(405,1154,o),
(455,1178,o),
(545,1197,c),
(545,1260,l),
(45,1260,l),
(45,1197,l),
(141,1178,o),
(185,1151,o),
(185,1135,cs),
(185,444,ls),
(185,119,o),
(401,-30,o),
(676,-30,cs),
(964,-30,o),
(1160,174,o),
(1160,524,cs),
(1160,1084,l),
(1379,1187,o),
(1465,1308,o)
);
}
);
width = 1465;
}
);
unicode = 431;
},
{
glyphname = V;
layers = (
{
anchors = (
{
name = H;
pos = (665,0);
},
{
name = L;
pos = (655,-100);
},
{
name = O;
pos = (610,0);
},
{
name = U;
pos = (665,1370);
}
);
hints = (
{
horizontal = 1;
name = hr00;
origin = (0,0);
target = (0,0);
type = Tag;
}
);
layerId = "DDA1A922-6BCD-4FE9-B3B8-E722553F0315";
shapes = (
{
closed = 1;
nodes = (
(1290,1217,c),
(1290,1260,l),
(874,1260,l),
(874,1217,l),
(983,1204,o),
(1030,1190,o),
(1016,1151,cs),
(680,203,l),
(327,1153,ls),
(313,1191,o),
(349,1209,o),
(455,1217,c),
(455,1260,l),
(20,1260,l),
(20,1217,l),
(104,1206,o),
(149,1186,o),
(162,1151,cs),
(602,-30,l),
(637,-22,o),
(731,0,o),
(752,59,cs),
(1135,1151,l),
(1148,1188,o),
(1200,1200,o)
);
}
);
width = 1331;
},
{
anchors = (
{
name = H;
pos = (680,0);
},
{
name = L;
pos = (670,-100);
},
{
name = O;
pos = (623,0);
},
{
name = U;
pos = (680,1370);
}
);
layerId = "8BF1279D-F38F-4102-BF8D-9111B5ED49F5";
shapes = (
{
closed = 1;
nodes = (
(1328,1187,c),
(1328,1260,l),
(897,1260,l),
(897,1187,l),
(1006,1174,o),
(1038,1160,o),
(1024,1121,cs),
(727,286,l),
(402,1123,ls),
(387,1161,o),
(417,1179,o),
(523,1187,c),
(523,1260,l),
(13,1260,l),
(13,1187,l),
(97,1176,o),
(133,1156,o),
(147,1121,cs),
(602,-30,l),
(667,-15,o),
(776,23,o),
(797,82,cs),
(1173,1121,l),
(1186,1158,o),
(1238,1170,o)
);
}
);
width = 1361;
},
{
anchors = (
{
name = H;
pos = (675,0);
},
{
name = L;
pos = (665,-100);
},
{
name = O;
pos = (619,0);
},
{
name = U;
pos = (675,1370);
}
);
layerId = "E8A33793-4A0E-4E9A-9368-A1D232455500";
shapes = (
{
closed = 1;
nodes = (
(1315,1197,c),
(1315,1260,l),
(889,1260,l),
(889,1197,l),
(998,1184,o),
(1035,1170,o),
(1021,1131,cs),
(711,258,l),
(377,1133,ls),
(362,1171,o),
(394,1189,o),
(500,1197,c),
(500,1260,l),
(15,1260,l),
(15,1197,l),
(99,1186,o),
(138,1166,o),
(152,1131,cs),
(602,-30,l),
(657,-17,o),
(761,15,o),
(782,74,cs),
(1160,1131,l),
(1173,1168,o),
(1225,1180,o)
);
}
);
width = 1351;
}
);
unicode = 86;
},
{
glyphname = Vturned;
layers = (
{
anchors = (
{
name = L;
pos = (655,-100);
},
{
name = U;
pos = (665,1370);
}
);
hints = (
{
horizontal = 1;
name = hr00;
origin = (0,0);
target = (0,0);
type = Tag;
}
);
layerId = "DDA1A922-6BCD-4FE9-B3B8-E722553F0315";
shapes = (
{
closed = 1;
nodes = (
(20,43,c),
(20,0,l),
(436,0,l),
(436,43,l),
(327,56,o),
(280,70,o),
(294,109,cs),
(630,1057,l),
(983,107,ls),
(997,69,o),
(961,51,o),
(855,43,c),
(855,0,l),
(1290,0,l),
(1290,43,l),
(1206,54,o),
(1161,74,o),
(1148,109,cs),
(708,1290,l),
(673,1282,o),
(579,1260,o),
(558,1201,cs),
(175,109,l),
(162,72,o),
(110,60,o)
);
}
);
width = 1331;
},
{
anchors = (
{
name = L;
pos = (670,-100);
},
{
name = U;
pos = (680,1370);
}
);
layerId = "8BF1279D-F38F-4102-BF8D-9111B5ED49F5";
shapes = (
{
closed = 1;
nodes = (
(13,73,c),
(13,0,l),
(444,0,l),
(444,73,l),
(335,86,o),
(303,100,o),
(317,139,cs),
(613,975,l),
(938,137,ls),
(953,99,o),
(924,81,o),
(818,73,c),
(818,0,l),
(1328,0,l),
(1328,73,l),
(1244,84,o),
(1207,104,o),
(1193,139,cs),
(738,1290,l),
(673,1275,o),
(564,1238,o),
(543,1179,cs),
(168,139,l),
(155,102,o),
(103,90,o)
);
}
);
width = 1361;
},
{
anchors = (
{
name = L;
pos = (665,-100);
},
{
name = U;
pos = (675,1370);
}
);
layerId = "E8A33793-4A0E-4E9A-9368-A1D232455500";
shapes = (
{
closed = 1;
nodes = (
(15,63,c),
(15,0,l),
(441,0,l),
(441,63,l),
(332,76,o),
(295,90,o),
(309,129,cs),
(618,1002,l),
(953,127,ls),
(967,89,o),
(936,71,o),
(830,63,c),
(830,0,l),
(1315,0,l),
(1315,63,l),
(1231,74,o),
(1191,94,o),
(1178,129,cs),
(728,1290,l),
(673,1277,o),
(569,1245,o),
(548,1186,cs),
(170,129,l),
(157,92,o),
(105,80,o)
);
}
);
width = 1351;
}
);
unicode = 581;
},
{
glyphname = W;
layers = (
{
anchors = (
{
name = L;
pos = (861,-100);
},
{
name = U;
pos = (861,1370);
}
);
hints = (
{
horizontal = 1;
name = hr00;
origin = (0,0);
target = (0,0);
type = Tag;
}
);
layerId = "DDA1A922-6BCD-4FE9-B3B8-E722553F0315";
shapes = (
{
closed = 1;
nodes = (
(1702,1217,c),
(1702,1260,l),
(1278,1260,l),
(1278,1217,l),
(1368,1202,o),
(1438,1186,o),
(1432,1155,c),
(1245,250,l),
(891,1260,l),
(836,1260,l),
(512,250,l),
(313,1147,ls),
(307,1176,o),
(319,1204,o),
(449,1217,c),
(449,1260,l),
(20,1260,l),
(20,1217,l),
(115,1200,o),
(151,1180,o),
(158,1147,cs),
(418,-30,l),
(472,-18,o),
(550,2,o),
(569,59,cs),
(856,944,l),
(1182,-30,l),
(1223,-21,o),
(1309,2,o),
(1321,59,cs),
(1550,1155,ls),
(1554,1176,o),
(1584,1193,o)
);
}
);
width = 1741;
},
{
anchors = (
{
name = L;
pos = (876,-100);
},
{
name = U;
pos = (876,1370);
}
);
layerId = "8BF1279D-F38F-4102-BF8D-9111B5ED49F5";
shapes = (
{
closed = 1;
nodes = (
(1732,1187,c),
(1732,1260,l),
(1286,1260,l),
(1286,1187,l),
(1376,1172,o),
(1446,1156,o),
(1440,1125,c),
(1279,385,l),
(944,1260,l),
(844,1260,l),
(552,385,l),
(381,1117,ls),
(375,1146,o),
(379,1174,o),
(509,1187,c),
(509,1260,l),
(20,1260,l),
(20,1187,l),
(115,1170,o),
(151,1150,o),
(158,1117,cs),
(418,-30,l),
(472,-18,o),
(558,2,o),
(577,59,cs),
(864,877,l),
(1205,-30,l),
(1246,-21,o),
(1339,2,o),
(1351,59,cs),
(1580,1125,ls),
(1584,1146,o),
(1614,1163,o)
);
}
);
width = 1741;
},
{
anchors = (
{
name = L;
pos = (871,-100);
},
{
name = U;
pos = (871,1370);
}
);
layerId = "E8A33793-4A0E-4E9A-9368-A1D232455500";
shapes = (
{
closed = 1;
nodes = (
(1722,1197,c),
(1722,1260,l),
(1283,1260,l),
(1283,1197,l),
(1373,1182,o),
(1443,1166,o),
(1437,1135,c),
(1268,340,l),
(926,1260,l),
(841,1260,l),
(539,340,l),
(358,1127,ls),
(352,1156,o),
(359,1184,o),
(489,1197,c),
(489,1260,l),
(20,1260,l),
(20,1197,l),
(115,1180,o),
(151,1160,o),
(158,1127,cs),
(418,-30,l),
(472,-18,o),
(555,2,o),
(574,59,cs),
(861,899,l),
(1197,-30,l),
(1238,-21,o),
(1329,2,o),
(1341,59,cs),
(1570,1135,ls),
(1574,1156,o),
(1604,1173,o)
);
}
);
width = 1741;
}
);
unicode = 87;
},
{
glyphname = X;
layers = (
{
anchors = (
{
name = L;
pos = (630,-100);
},
{
name = U;
pos = (630,1370);
}
);
hints = (
{
horizontal = 1;
name = hr00;
origin = (0,0);
target = (0,0);
type = Tag;
}
);
layerId = "DDA1A922-6BCD-4FE9-B3B8-E722553F0315";
shapes = (
{
closed = 1;
nodes = (
(1229,0,l),
(1229,43,l),
(1151,53,o),
(1110,70,o),
(1071,127,cs),
(706,662,l),
(997,1133,ls),
(1032,1190,o),
(1083,1206,o),
(1180,1217,c),
(1180,1260,l),
(727,1260,l),
(727,1217,l),
(846,1208,o),
(895,1194,o),
(858,1133,c),
(632,770,l),
(385,1133,ls),
(345,1191,o),
(379,1206,o),
(492,1217,c),
(492,1260,l),
(41,1260,l),
(41,1217,l),
(129,1204,o),
(156,1192,o),
(197,1133,cs),
(530,644,l),
(213,127,ls),
(180,72,o),
(117,49,o),
(31,43,c),
(31,0,l),
(481,0,l),
(481,43,l),
(358,51,o),
(315,68,o),
(352,127,cs),
(604,535,l),
(883,127,ls),
(920,74,o),
(895,55,o),
(778,43,c),
(778,0,l)
);
}
);
width = 1260;
},
{
anchors = (
{
name = L;
pos = (645,-100);
},
{
name = U;
pos = (645,1370);
}
);
layerId = "8BF1279D-F38F-4102-BF8D-9111B5ED49F5";
shapes = (
{
closed = 1;
nodes = (
(1267,0,l),
(1267,73,l),
(1189,83,o),
(1155,100,o),
(1116,157,cs),
(761,675,l),
(1035,1103,ls),
(1070,1159,o),
(1121,1176,o),
(1218,1187,c),
(1218,1260,l),
(765,1260,l),
(765,1187,l),
(884,1178,o),
(903,1164,o),
(866,1103,c),
(675,800,l),
(468,1103,ls),
(428,1161,o),
(462,1176,o),
(575,1187,c),
(575,1260,l),
(34,1260,l),
(34,1187,l),
(122,1174,o),
(149,1162,o),
(190,1103,cs),
(515,628,l),
(206,157,l),
(170,104,o),
(110,79,o),
(24,73,c),
(24,0,l),
(474,0,l),
(474,73,l),
(351,81,o),
(336,99,o),
(375,157,cs),
(602,500,l),
(838,157,ls),
(875,104,o),
(850,85,o),
(733,73,c),
(733,0,l)
);
}
);
width = 1290;
},
{
anchors = (
{
name = L;
pos = (640,-100);
},
{
name = U;
pos = (640,1370);
}
);
layerId = "E8A33793-4A0E-4E9A-9368-A1D232455500";
shapes = (
{
closed = 1;
nodes = (
(1254,0,l),
(1254,63,l),
(1176,73,o),
(1140,90,o),
(1101,147,cs),
(742,671,l),
(1022,1113,ls),
(1057,1169,o),
(1108,1186,o),
(1205,1197,c),
(1205,1260,l),
(752,1260,l),
(752,1197,l),
(871,1188,o),
(900,1174,o),
(863,1113,c),
(660,790,l),
(440,1113,ls),
(400,1171,o),
(434,1186,o),
(547,1197,c),
(547,1260,l),
(36,1260,l),
(36,1197,l),
(124,1184,o),
(151,1172,o),
(192,1113,cs),
(520,633,l),
(208,147,ls),
(173,93,o),
(112,69,o),
(26,63,c),
(26,0,l),
(476,0,l),
(476,63,l),
(353,71,o),
(329,89,o),
(367,147,cs),
(602,512,l),
(853,147,ls),
(890,94,o),
(865,75,o),
(748,63,c),
(748,0,l)
);
}
);
width = 1280;
}
);
unicode = 88;
},
{
glyphname = Y;
layers = (
{
anchors = (
{
name = L;
pos = (604,-100);
},
{
name = U;
pos = (604,1370);
}
);
hints = (
{
horizontal = 1;
name = hr00;
origin = (0,0);
target = (0,0);
type = Tag;
}
);
layerId = "DDA1A922-6BCD-4FE9-B3B8-E722553F0315";
shapes = (
{
closed = 1;
nodes = (
(850,0,l),
(850,43,l),
(725,68,o),
(684,98,o),
(684,115,cs),
(684,541,l),
(1020,1151,ls),
(1039,1185,o),
(1085,1200,o),
(1176,1217,c),
(1176,1260,l),
(780,1260,l),
(780,1217,l),
(883,1204,o),
(911,1186,o),
(891,1151,cs),
(623,680,l),
(530,872,o),
(397,1102,o),
(297,1231,cs),
(276,1257,o),
(248,1270,o),
(219,1270,cs),
(164,1270,o),
(78,1260,o),
(0,1249,c),
(4,1206,l),
(115,1206,o),
(143,1180,o),
(168,1151,c),
(261,1023,o),
(426,753,o),
(524,537,c),
(524,115,ls),
(524,96,o),
(481,68,o),
(360,43,c),
(360,0,l)
);
}
);
width = 1217;
},
{
anchors = (
{
name = L;
pos = (627,-100);
},
{
name = U;
pos = (627,1370);
}
);
layerId = "8BF1279D-F38F-4102-BF8D-9111B5ED49F5";
shapes = (
{
closed = 1;
nodes = (
(910,0,l),
(910,73,l),
(785,98,o),
(752,128,o),
(752,145,cs),
(752,523,l),
(1073,1121,ls),
(1092,1155,o),
(1130,1170,o),
(1221,1187,c),
(1221,1260,l),
(803,1260,l),
(803,1187,l),
(906,1174,o),
(934,1156,o),
(914,1121,c),
(680,679,l),
(587,871,o),
(463,1092,o),
(365,1224,c),
(342,1253,o),
(301,1270,o),
(264,1270,cs),
(209,1270,o),
(78,1253,o),
(0,1242,c),
(4,1169,l),
(115,1169,o),
(137,1151,o),
(161,1121,c),
(254,996,o),
(405,743,o),
(502,529,c),
(502,145,ls),
(502,126,o),
(466,98,o),
(345,73,c),
(345,0,l)
);
}
);
width = 1255;
},
{
anchors = (
{
name = L;
pos = (619,-100);
},
{
name = U;
pos = (619,1370);
}
);
layerId = "E8A33793-4A0E-4E9A-9368-A1D232455500";
shapes = (
{
closed = 1;
nodes = (
(890,0,l),
(890,63,l),
(765,88,o),
(729,118,o),
(729,135,cs),
(729,529,l),
(1055,1131,ls),
(1074,1165,o),
(1115,1180,o),
(1206,1197,c),
(1206,1260,l),
(795,1260,l),
(795,1197,l),
(898,1184,o),
(926,1166,o),
(906,1131,cs),
(661,679,l),
(568,871,o),
(441,1095,o),
(342,1226,cs),
(320,1254,o),
(283,1270,o),
(249,1270,cs),
(194,1270,o),
(78,1255,o),
(0,1244,c),
(4,1181,l),
(115,1181,o),
(139,1161,o),
(163,1131,c),
(256,1005,o),
(412,746,o),
(509,532,c),
(509,135,ls),
(509,116,o),
(471,88,o),
(350,63,c),
(350,0,l)
);
}
);
width = 1242;
}
);
unicode = 89;
},
{
glyphname = Yhook;
layers = (
{
anchors = (
{
name = L;
pos = (604,-100);
},
{
name = U;
pos = (604,1370);
}
);
hints = (
{
horizontal = 1;
name = hr00;
origin = (0,0);
target = (0,0);
type = Tag;
}
);
layerId = "DDA1A922-6BCD-4FE9-B3B8-E722553F0315";
shapes = (
{
closed = 1;
nodes = (
(850,0,l),
(850,43,l),
(725,68,o),
(684,98,o),
(684,115,cs),
(684,541,l),
(989,1095,ls),
(1020,1151,o),
(1062,1201,o),
(1113,1201,cs),
(1179,1201,o),
(1212,1143,o),
(1212,1077,cs),
(1212,1029,o),
(1197,1001,o),
(1178,965,c),
(1196,936,l),
(1236,947,o),
(1361,989,o),
(1375,1023,cs),
(1381,1039,o),
(1387,1075,o),
(1387,1101,cs),
(1387,1218,o),
(1291,1320,o),
(1166,1320,cs),
(1007,1320,o),
(932,1222,o),
(862,1100,cs),
(623,680,l),
(530,872,o),
(397,1102,o),
(297,1231,cs),
(276,1257,o),
(248,1270,o),
(219,1270,cs),
(164,1270,o),
(78,1260,o),
(0,1249,c),
(4,1206,l),
(115,1206,o),
(143,1180,o),
(168,1151,c),
(261,1023,o),
(426,753,o),
(524,537,c),
(524,115,ls),
(524,96,o),
(481,68,o),
(360,43,c),
(360,0,l)
);
}
);
width = 1387;
},
{
anchors = (
{
name = L;
pos = (630,-100);
},
{
name = U;
pos = (630,1370);
}
);
layerId = "8BF1279D-F38F-4102-BF8D-9111B5ED49F5";
shapes = (
{
closed = 1;
nodes = (
(913,0,l),
(913,73,l),
(788,98,o),
(755,128,o),
(755,145,cs),
(755,528,l),
(1034,1050,ls),
(1064,1107,o),
(1100,1156,o),
(1151,1156,cs),
(1203,1156,o),
(1235,1116,o),
(1235,1055,cs),
(1235,1007,o),
(1205,956,o),
(1186,920,c),
(1211,861,l),
(1251,872,o),
(1414,944,o),
(1428,978,cs),
(1434,994,o),
(1447,1060,o),
(1447,1101,cs),
(1447,1218,o),
(1361,1320,o),
(1211,1320,cs),
(1052,1320,o),
(966,1225,o),
(901,1100,cs),
(684,680,l),
(591,872,o),
(465,1095,o),
(365,1224,cs),
(344,1250,o),
(308,1270,o),
(264,1270,cs),
(209,1270,o),
(78,1253,o),
(0,1242,c),
(4,1169,l),
(115,1169,o),
(136,1150,o),
(161,1121,c),
(254,992,o),
(408,738,o),
(505,523,c),
(505,145,ls),
(505,126,o),
(469,98,o),
(348,73,c),
(348,0,l)
);
}
);
width = 1455;
},
{
anchors = (
{
name = L;
pos = (621,-100);
},
{
name = U;
pos = (621,1370);
}
);
layerId = "E8A33793-4A0E-4E9A-9368-A1D232455500";
shapes = (
{
closed = 1;
nodes = (
(892,0,l),
(892,63,l),
(767,88,o),
(731,118,o),
(731,135,cs),
(731,532,l),
(1019,1065,ls),
(1049,1122,o),
(1087,1171,o),
(1138,1171,cs),
(1195,1171,o),
(1227,1125,o),
(1227,1062,cs),
(1227,1014,o),
(1202,971,o),
(1183,935,c),
(1206,886,l),
(1246,897,o),
(1396,959,o),
(1410,993,cs),
(1416,1009,o),
(1427,1065,o),
(1427,1101,cs),
(1427,1218,o),
(1338,1320,o),
(1196,1320,cs),
(1037,1320,o),
(955,1224,o),
(888,1100,cs),
(664,680,l),
(571,872,o),
(442,1097,o),
(342,1226,cs),
(321,1252,o),
(288,1270,o),
(249,1270,cs),
(194,1270,o),
(78,1255,o),
(0,1244,c),
(4,1181,l),
(115,1181,o),
(138,1160,o),
(163,1131,c),
(256,1002,o),
(414,743,o),
(511,528,c),
(511,135,ls),
(511,116,o),
(473,88,o),
(352,63,c),
(352,0,l)
);
}
);
width = 1432;
}
);
unicode = 435;
},
{
glyphname = Z;
layers = (
{
anchors = (
{
name = L;
pos = (535,-100);
},
{
name = U;
pos = (555,1370);
}
);
hints = (
{
horizontal = 1;
name = hr01;
origin = (0,11);
target = (0,0);
type = Tag;
},
{
horizontal = 1;
name = hr02;
origin = (0,16);
target = (0,0);
type = Tag;
}
);
layerId = "DDA1A922-6BCD-4FE9-B3B8-E722553F0315";
shapes = (
{
closed = 1;
nodes = (
(991,293,c),
(936,307,l),
(885,143,o),
(856,100,o),
(799,100,cs),
(276,100,l),
(981,1217,l),
(956,1260,l),
(340,1260,ls),
(262,1260,o),
(223,1260,o),
(150,1276,c),
(121,975,l),
(178,963,l),
(207,1102,o),
(268,1160,o),
(311,1160,cs),
(770,1160,l),
(59,45,l),
(88,0,l),
(979,0,l),
(981,78,o),
(987,207,o)
);
}
);
width = 1071;
},
{
anchors = (
{
name = L;
pos = (558,-100);
},
{
name = U;
pos = (579,1370);
}
);
layerId = "8BF1279D-F38F-4102-BF8D-9111B5ED49F5";
shapes = (
{
closed = 1;
nodes = (
(1044,353,c),
(959,375,l),
(908,211,o),
(879,130,o),
(822,130,cs),
(366,130,l),
(1034,1210,l),
(1001,1260,l),
(333,1260,ls),
(255,1260,o),
(216,1260,o),
(143,1276,c),
(106,915,l),
(193,896,l),
(222,1035,o),
(291,1130,o),
(334,1130,cs),
(725,1130,l),
(52,53,l),
(88,0,l),
(1032,0,l),
(1034,78,o),
(1040,267,o)
);
}
);
width = 1116;
},
{
anchors = (
{
name = L;
pos = (550,-100);
},
{
name = U;
pos = (571,1370);
}
);
layerId = "E8A33793-4A0E-4E9A-9368-A1D232455500";
shapes = (
{
closed = 1;
nodes = (
(1026,333,c),
(951,352,l),
(900,188,o),
(871,120,o),
(814,120,cs),
(336,120,l),
(1016,1212,l),
(986,1260,l),
(335,1260,ls),
(257,1260,o),
(218,1260,o),
(145,1276,c),
(111,935,l),
(188,918,l),
(217,1057,o),
(283,1140,o),
(326,1140,cs),
(740,1140,l),
(54,50,l),
(88,0,l),
(1014,0,l),
(1016,78,o),
(1022,247,o)
);
}
);
width = 1101;
}
);
unicode = 90;
},
{
glyphname = Saltillo;
layers = (
{
layerId = "DDA1A922-6BCD-4FE9-B3B8-E722553F0315";
shapes = (
{
closed = 1;
nodes = (
(357,1554,l),
(304,1580,l),
(276,1574,o),
(165,1538,o),
(135,1521,c),
(203,683,l),
(234,683,o),
(279,693,o),
(299,704,c)
);
}
);
width = 512;
},
{
layerId = "8BF1279D-F38F-4102-BF8D-9111B5ED49F5";
shapes = (
{
closed = 1;
nodes = (
(432,1550,l),
(379,1580,l),
(351,1574,o),
(158,1512,o),
(128,1495,c),
(222,676,l),
(253,676,o),
(328,686,o),
(348,697,c)
);
}
);
width = 580;
},
{
layerId = "E8A33793-4A0E-4E9A-9368-A1D232455500";
shapes = (
{
closed = 1;
nodes = (
(407,1551,l),
(354,1580,l),
(326,1574,o),
(160,1521,o),
(130,1504,c),
(215,678,l),
(246,678,o),
(311,688,o),
(331,699,c)
);
}
);
width = 557;
}
);
unicode = 42891;
},
{
glyphname = a;
layers = (
{
anchors = (
{
name = H;
pos = (700,0);
},
{
name = L;
pos = (460,-100);
},
{
name = O;
pos = (715,0);
},
{
name = R;
pos = (940,900);
},
{
name = U;
pos = (480,1050);
}
);
hints = (
{
horizontal = 1;
name = hr00;
origin = (0,0);
target = (0,0);
type = Tag;
}
);
layerId = "DDA1A922-6BCD-4FE9-B3B8-E722553F0315";
shapes = (
{
closed = 1;
nodes = (
(926,82,c),
(911,127,l),
(858,105,o),
(832,100,o),
(813,100,cs),
(789,100,o),
(773,122,o),
(773,178,cs),
(773,742,ls),
(773,879,o),
(690,960,o),
(544,960,cs),
(375,960,o),
(169,839,o),
(108,706,c),
(122,667,l),
(155,659,o),
(295,699,o),
(292,724,cs),
(284,804,o),
(369,858,o),
(455,860,cs),
(586,864,o),
(623,792,o),
(623,702,cs),
(623,561,l),
(316,516,o),
(234,465,o),
(170,401,cs),
(121,352,o),
(80,288,o),
(80,186,cs),
(80,31,o),
(197,-30,o),
(293,-30,cs),
(378,-30,o),
(503,22,o),
(623,143,c),
(626,36,o),
(658,-30,o),
(702,-30,cs),
(739,-30,o),
(813,4,o)
);
},
{
closed = 1;
nodes = (
(352,100,cs),
(317,100,o),
(244,123,o),
(244,229,cs),
(244,291,o),
(268,336,o),
(302,372,cs),
(345,417,o),
(400,450,o),
(623,486,c),
(623,227,l),
(522,140,o),
(431,100,o)
);
}
);
width = 940;
},
{
anchors = (
{
name = H;
pos = (762,0);
},
{
name = L;
pos = (492,-100);
},
{
name = O;
pos = (779,0);
},
{
name = R;
pos = (1023,900);
},
{
name = U;
pos = (515,1050);
}
);
layerId = "8BF1279D-F38F-4102-BF8D-9111B5ED49F5";
shapes = (
{
closed = 1;
nodes = (
(1016,112,c),
(994,187,l),
(941,165,o),
(922,160,o),
(903,160,cs),
(879,160,o),
(863,182,o),
(863,238,cs),
(863,720,ls),
(863,857,o),
(780,960,o),
(597,960,cs),
(375,960,o),
(150,835,o),
(86,676,c),
(107,622,l),
(140,614,o),
(370,677,o),
(367,702,cs),
(359,782,o),
(429,830,o),
(493,830,cs),
(594,831,o),
(623,770,o),
(623,687,cs),
(623,569,l),
(301,520,o),
(215,465,o),
(151,401,cs),
(102,352,o),
(65,291,o),
(65,201,cs),
(65,46,o),
(182,-30,o),
(293,-30,cs),
(379,-30,o),
(504,8,o),
(624,129,c),
(631,30,o),
(668,-30,o),
(717,-30,cs),
(766,-30,o),
(903,34,o)
);
},
{
closed = 1;
nodes = (
(412,145,cs),
(377,145,o),
(319,168,o),
(319,259,cs),
(319,315,o),
(342,352,o),
(377,387,cs),
(412,422,o),
(463,445,o),
(623,471,c),
(623,250,l),
(523,164,o),
(462,145,o)
);
}
);
width = 1023;
},
{
anchors = (
{
name = H;
pos = (741,0);
},
{
name = L;
pos = (481,-100);
},
{
name = O;
pos = (758,0);
},
{
name = R;
pos = (995,900);
},
{
name = U;
pos = (503,1050);
}
);
layerId = "E8A33793-4A0E-4E9A-9368-A1D232455500";
shapes = (
{
closed = 1;
nodes = (
(986,102,c),
(966,167,l),
(913,145,o),
(892,140,o),
(873,140,cs),
(849,140,o),
(833,162,o),
(833,218,cs),
(833,727,ls),
(833,864,o),
(750,960,o),
(579,960,cs),
(375,960,o),
(156,836,o),
(93,686,c),
(112,637,l),
(145,629,o),
(345,684,o),
(342,709,cs),
(334,789,o),
(409,839,o),
(480,840,cs),
(591,842,o),
(623,777,o),
(623,692,cs),
(623,566,l),
(306,519,o),
(221,465,o),
(157,401,cs),
(108,352,o),
(70,290,o),
(70,196,cs),
(70,41,o),
(187,-30,o),
(293,-30,cs),
(379,-30,o),
(504,13,o),
(624,134,c),
(629,32,o),
(665,-30,o),
(712,-30,cs),
(757,-30,o),
(873,24,o)
);
},
{
closed = 1;
nodes = (
(392,130,cs),
(357,130,o),
(294,153,o),
(294,249,cs),
(294,307,o),
(317,347,o),
(352,382,cs),
(390,420,o),
(442,447,o),
(623,476,c),
(623,242,l),
(523,156,o),
(452,130,o)
);
}
);
width = 995;
}
);
unicode = 97;
},
{
glyphname = "alpha-latin";
layers = (
{
anchors = (
{
name = H;
pos = (780,0);
},
{
name = L;
pos = (544,-100);
},
{
name = O;
pos = (790,0);
},
{
name = R;
pos = (1023,900);
},
{
name = U;
pos = (544,1050);
}
);
hints = (
{
horizontal = 1;
name = hr00;
origin = (0,0);
target = (0,0);
type = Tag;
}
);
layerId = "DDA1A922-6BCD-4FE9-B3B8-E722553F0315";
shapes = (
{
closed = 1;
nodes = (
(1009,84,c),
(1009,84,o),
(997,131,o),
(997,129,c),
(930,98,o),
(884,92,o),
(872,109,c),
(862,121,o),
(855,174,o),
(855,254,cs),
(855,723,ls),
(855,834,o),
(884,930,o),
(884,930,c),
(856,960,l),
(816,916,o),
(779,887,o),
(742,866,c),
(656,946,o),
(612,960,o),
(540,960,cs),
(264,960,o),
(80,674,o),
(80,444,cs),
(80,147,o),
(258,-30,o),
(405,-30,cs),
(521,-30,o),
(595,20,o),
(706,162,c),
(712,22,o),
(732,-30,o),
(788,-30,cs),
(807,-30,o),
(893,6,o)
);
},
{
closed = 1;
nodes = (
(705,256,l),
(604,149,o),
(541,100,o),
(477,100,cs),
(366,100,o),
(230,248,o),
(230,475,cs),
(230,725,o),
(340,850,o),
(510,850,cs),
(604,850,o),
(662,806,o),
(705,730,c),
(705,272,l)
);
}
);
width = 1023;
},
{
anchors = (
{
name = H;
pos = (839,0);
},
{
name = L;
pos = (579,-100);
},
{
name = O;
pos = (850,0);
},
{
name = R;
pos = (1100,900);
},
{
name = U;
pos = (579,1050);
}
);
layerId = "8BF1279D-F38F-4102-BF8D-9111B5ED49F5";
shapes = (
{
closed = 1;
nodes = (
(1093,115,c),
(1093,115,o),
(1065,190,o),
(1065,188,c),
(998,157,o),
(969,155,o),
(955,169,cs),
(942,181,o),
(938,234,o),
(938,314,cs),
(938,693,ls),
(938,804,o),
(967,923,o),
(967,923,c),
(927,960,l),
(872,918,o),
(807,882,o),
(754,857,c),
(677,939,o),
(617,960,o),
(540,960,cs),
(242,960,o),
(65,678,o),
(65,440,cs),
(65,136,o),
(236,-30,o),
(405,-30,cs),
(510,-30,o),
(588,11,o),
(703,135,c),
(714,15,o),
(743,-30,o),
(796,-30,cs),
(837,-30,o),
(977,37,o)
);
},
{
closed = 1;
nodes = (
(698,268,l),
(604,179,o),
(559,160,o),
(507,160,cs),
(411,160,o),
(305,274,o),
(305,501,cs),
(305,751,o),
(415,828,o),
(525,828,cs),
(597,828,o),
(666,779,o),
(698,705,c),
(698,272,l)
);
}
);
width = 1100;
},
{
anchors = (
{
name = H;
pos = (819,0);
},
{
name = L;
pos = (567,-100);
},
{
name = O;
pos = (830,0);
},
{
name = R;
pos = (1074,900);
},
{
name = U;
pos = (567,1050);
}
);
layerId = "E8A33793-4A0E-4E9A-9368-A1D232455500";
shapes = (
{
closed = 1;
nodes = (
(1065,105,c),
(1065,105,o),
(1042,170,o),
(1042,168,c),
(975,137,o),
(941,134,o),
(927,149,c),
(915,161,o),
(910,214,o),
(910,294,cs),
(910,703,ls),
(910,814,o),
(939,925,o),
(939,925,c),
(903,960,l),
(853,917,o),
(798,884,o),
(750,860,c),
(670,941,o),
(615,960,o),
(540,960,cs),
(249,960,o),
(70,677,o),
(70,441,cs),
(70,140,o),
(243,-30,o),
(405,-30,cs),
(514,-30,o),
(590,14,o),
(704,144,c),
(713,17,o),
(739,-30,o),
(793,-30,cs),
(827,-30,o),
(949,27,o)
);
},
{
closed = 1;
nodes = (
(700,264,l),
(604,169,o),
(553,140,o),
(497,140,cs),
(396,140,o),
(280,265,o),
(280,492,cs),
(280,742,o),
(390,835,o),
(520,835,cs),
(599,835,o),
(665,788,o),
(700,713,c),
(700,272,l)
);
}
);
width = 1074;
}
);
unicode = 593;
},
{
glyphname = ae;
layers = (
{
anchors = (
{
name = H;
pos = (738,0);
},
{
name = L;
pos = (738,-100);
},
{
name = O;
pos = (1020,0);
},
{
name = R;
pos = (1417,900);
},
{
name = U;
pos = (738,1050);
}
);
hints = (
{
horizontal = 1;
name = hr00;
origin = (0,0);
target = (0,0);
type = Tag;
}
);
layerId = "DDA1A922-6BCD-4FE9-B3B8-E722553F0315";
shapes = (
{
closed = 1;
nodes = (
(1337,557,c),
(1337,737,o),
(1268,960,o),
(1024,960,cs),
(946,960,o),
(835,924,o),
(749,816,c),
(718,912,o),
(652,960,o),
(535,960,cs),
(397,960,o),
(128,815,o),
(108,657,c),
(122,621,l),
(155,612,o),
(300,651,o),
(292,676,c),
(253,776,o),
(383,860,o),
(467,860,cs),
(598,860,o),
(623,766,o),
(623,662,cs),
(623,576,l),
(565,572,o),
(507,565,o),
(463,553,cs),
(203,479,o),
(80,344,o),
(80,186,cs),
(80,31,o),
(197,-30,o),
(293,-30,cs),
(377,-30,o),
(543,41,o),
(658,179,c),
(713,47,o),
(826,-30,o),
(944,-30,cs),
(1069,-30,o),
(1169,4,o),
(1329,195,c),
(1323,205,o),
(1309,227,o),
(1292,236,c),
(1151,113,o),
(1092,102,o),
(1008,102,cs),
(860,102,o),
(774,264,o),
(774,418,cs),
(774,443,o),
(774,466,o),
(776,489,c),
(1225,489,l),
(1268,506,o),
(1311,530,o)
);
},
{
closed = 1;
nodes = (
(637,243,c),
(539,147,o),
(424,100,o),
(352,100,cs),
(317,100,o),
(244,123,o),
(244,229,cs),
(244,338,o),
(326,424,o),
(526,473,c),
(542,478,o),
(579,482,o),
(623,485,c),
(623,365,ls),
(623,321,o),
(628,281,o)
);
},
{
closed = 1;
nodes = (
(995,860,cs),
(1120,860,o),
(1171,743,o),
(1171,616,cs),
(1171,588,o),
(1161,580,o),
(1133,580,cs),
(785,580,l),
(821,813,o),
(935,860,o)
);
}
);
width = 1417;
},
{
anchors = (
{
name = H;
pos = (782,0);
},
{
name = L;
pos = (782,-100);
},
{
name = O;
pos = (1090,0);
},
{
name = R;
pos = (1501,900);
},
{
name = U;
pos = (782,1050);
}
);
layerId = "8BF1279D-F38F-4102-BF8D-9111B5ED49F5";
shapes = (
{
closed = 1;
nodes = (
(1436,550,c),
(1436,760,o),
(1315,960,o),
(1079,960,cs),
(999,960,o),
(894,933,o),
(807,856,c),
(762,929,o),
(687,960,o),
(588,960,cs),
(450,960,o),
(166,874,o),
(86,663,c),
(107,612,l),
(140,603,o),
(369,665,o),
(363,691,c),
(339,776,o),
(436,830,o),
(505,830,cs),
(591,830,o),
(632,774,o),
(632,655,cs),
(632,576,l),
(564,573,o),
(492,567,o),
(456,558,cs),
(181,492,o),
(65,359,o),
(65,201,cs),
(65,31,o),
(197,-30,o),
(293,-30,cs),
(417,-30,o),
(559,32,o),
(680,181,c),
(754,48,o),
(891,-30,o),
(1006,-30,cs),
(1168,-30,o),
(1268,19,o),
(1428,195,c),
(1422,205,o),
(1393,250,o),
(1376,259,c),
(1250,166,o),
(1176,140,o),
(1092,140,cs),
(937,140,o),
(857,317,o),
(857,441,cs),
(857,447,o),
(857,462,o),
(858,467,c),
(1302,467,l),
(1345,484,o),
(1410,523,o)
);
},
{
closed = 1;
nodes = (
(645,264,c),
(557,174,o),
(474,145,o),
(412,145,cs),
(370,145,o),
(312,176,o),
(312,259,cs),
(312,338,o),
(358,419,o),
(526,456,c),
(539,459,o),
(585,461,o),
(632,463,c),
(632,365,ls),
(632,329,o),
(637,295,o)
);
},
{
closed = 1;
nodes = (
(1050,845,cs),
(1145,845,o),
(1210,758,o),
(1210,616,cs),
(1210,588,o),
(1200,580,o),
(1172,580,cs),
(865,580,l),
(892,813,o),
(988,845,o)
);
}
);
width = 1501;
},
{
anchors = (
{
name = H;
pos = (767,0);
},
{
name = L;
pos = (767,-100);
},
{
name = O;
pos = (1067,0);
},
{
name = R;
pos = (1473,900);
},
{
name = U;
pos = (767,1050);
}
);
layerId = "E8A33793-4A0E-4E9A-9368-A1D232455500";
shapes = (
{
closed = 1;
nodes = (
(1403,552,c),
(1403,752,o),
(1299,960,o),
(1061,960,cs),
(981,960,o),
(874,930,o),
(788,843,c),
(747,923,o),
(675,960,o),
(570,960,cs),
(432,960,o),
(153,854,o),
(93,661,c),
(112,615,l),
(145,606,o),
(346,660,o),
(339,686,c),
(310,776,o),
(418,840,o),
(492,840,cs),
(593,840,o),
(629,771,o),
(629,657,cs),
(629,576,l),
(564,573,o),
(497,566,o),
(458,556,cs),
(188,488,o),
(70,354,o),
(70,196,cs),
(70,31,o),
(197,-30,o),
(293,-30,cs),
(404,-30,o),
(554,35,o),
(673,180,c),
(740,48,o),
(869,-30,o),
(985,-30,cs),
(1135,-30,o),
(1235,14,o),
(1395,195,c),
(1389,205,o),
(1365,242,o),
(1348,251,c),
(1217,148,o),
(1148,127,o),
(1064,127,cs),
(911,127,o),
(829,299,o),
(829,433,cs),
(829,446,o),
(829,463,o),
(831,474,c),
(1276,474,l),
(1319,491,o),
(1377,525,o)
);
},
{
closed = 1;
nodes = (
(642,257,c),
(551,165,o),
(457,130,o),
(392,130,cs),
(352,130,o),
(289,158,o),
(289,249,cs),
(289,338,o),
(347,421,o),
(526,462,c),
(540,465,o),
(583,468,o),
(629,470,c),
(629,365,ls),
(629,326,o),
(634,290,o)
);
},
{
closed = 1;
nodes = (
(1031,850,cs),
(1136,850,o),
(1197,753,o),
(1197,616,cs),
(1197,588,o),
(1187,580,o),
(1159,580,cs),
(838,580,l),
(868,813,o),
(970,850,o)
);
}
);
width = 1473;
}
);
unicode = 230;
},
{
glyphname = b;
layers = (
{
anchors = (
{
name = H;
pos = (479,0);
},
{
name = L;
pos = (479,-100);
},
{
name = R;
pos = (1040,900);
},
{
name = U;
pos = (520,1620);
}
);
hints = (
{
horizontal = 1;
name = hr00;
origin = (0,0);
target = (0,0);
type = Tag;
}
);
layerId = "DDA1A922-6BCD-4FE9-B3B8-E722553F0315";
shapes = (
{
closed = 1;
nodes = (
(950,492,c),
(950,784,o),
(819,960,o),
(637,960,cs),
(561,960,o),
(423,887,o),
(290,727,c),
(290,1516,l),
(290,1516,o),
(263,1540,o),
(253,1550,c),
(177,1509,o),
(98,1491,o),
(10,1470,c),
(10,1430,l),
(119,1417,o),
(140,1419,o),
(140,1296,cs),
(140,96,l),
(284,16,o),
(418,-30,o),
(469,-30,cs),
(764,-30,o),
(950,260,o)
);
},
{
closed = 1;
nodes = (
(815,408,c),
(815,254,o),
(729,100,o),
(567,100,cs),
(520,100,o),
(396,123,o),
(290,203,c),
(290,610,l),
(402,776,o),
(520,825,o),
(567,825,cs),
(696,825,o),
(815,674,o)
);
}
);
width = 1040;
},
{
anchors = (
{
name = H;
pos = (513,0);
},
{
name = L;
pos = (513,-100);
},
{
name = R;
pos = (1100,900);
},
{
name = U;
pos = (568,1620);
}
);
layerId = "8BF1279D-F38F-4102-BF8D-9111B5ED49F5";
shapes = (
{
closed = 1;
nodes = (
(1025,507,c),
(1025,784,o),
(902,960,o),
(705,960,cs),
(629,960,o),
(498,917,o),
(365,802,c),
(365,1509,l),
(365,1509,o),
(331,1540,o),
(321,1550,c),
(222,1509,o),
(128,1491,o),
(3,1470,c),
(3,1400,l),
(112,1387,o),
(125,1389,o),
(125,1266,cs),
(125,96,l),
(269,24,o),
(426,-30,o),
(499,-30,cs),
(757,-30,o),
(1025,275,o)
);
},
{
closed = 1;
nodes = (
(804,416,c),
(804,262,o),
(737,138,o),
(597,138,cs),
(558,138,o),
(471,161,o),
(365,218,c),
(365,678,l),
(462,761,o),
(535,788,o),
(582,788,cs),
(704,788,o),
(804,682,o)
);
}
);
width = 1100;
},
{
anchors = (
{
name = H;
pos = (502,0);
},
{
name = L;
pos = (502,-100);
},
{
name = R;
pos = (1080,900);
},
{
name = U;
pos = (552,1620);
}
);
layerId = "E8A33793-4A0E-4E9A-9368-A1D232455500";
shapes = (
{
closed = 1;
nodes = (
(1000,502,c),
(1000,784,o),
(874,960,o),
(682,960,cs),
(606,960,o),
(473,907,o),
(340,777,c),
(340,1511,l),
(340,1511,o),
(308,1540,o),
(298,1550,c),
(207,1509,o),
(118,1491,o),
(5,1470,c),
(5,1410,l),
(114,1397,o),
(130,1399,o),
(130,1276,cs),
(130,96,l),
(274,21,o),
(423,-30,o),
(489,-30,cs),
(759,-30,o),
(1000,270,o)
);
},
{
closed = 1;
nodes = (
(808,413,c),
(808,259,o),
(734,125,o),
(587,125,cs),
(545,125,o),
(446,148,o),
(340,213,c),
(340,655,l),
(442,766,o),
(530,800,o),
(577,800,cs),
(701,800,o),
(808,679,o)
);
}
);
width = 1080;
}
);
unicode = 98;
},
{
glyphname = bhook;
layers = (
{
anchors = (
{
name = L;
pos = (544,-100);
},
{
name = U;
pos = (544,1690);
}
);
hints = (
{
horizontal = 1;
name = hr01;
origin = (0,3);
target = (0,0);
type = Tag;
},
{
horizontal = 1;
name = hr02;
origin = (0,6);
target = (0,0);
type = Tag;
},
{
horizontal = 1;
name = hr04;
origin = (1,6);
target = (0,0);
type = Tag;
},
{
horizontal = 1;
name = hr05;
origin = (1,10);
target = (0,0);
type = Tag;
}
);
layerId = "DDA1A922-6BCD-4FE9-B3B8-E722553F0315";
shapes = (
{
closed = 1;
nodes = (
(950,492,c),
(950,784,o),
(819,960,o),
(637,960,cs),
(561,960,o),
(423,887,o),
(290,727,c),
(290,936,ls),
(290,1317,o),
(426,1425,o),
(512,1425,cs),
(590,1425,o),
(672,1380,o),
(727,1311,c),
(766,1329,o),
(854,1399,o),
(854,1421,cs),
(854,1446,o),
(737,1550,o),
(618,1550,cs),
(567,1550,o),
(451,1516,o),
(379,1458,cs),
(236,1343,o),
(140,1212,o),
(140,881,cs),
(140,96,l),
(284,16,o),
(418,-30,o),
(469,-30,cs),
(764,-30,o),
(950,260,o)
);
},
{
closed = 1;
nodes = (
(815,408,c),
(815,254,o),
(729,100,o),
(567,100,cs),
(520,100,o),
(396,123,o),
(290,203,c),
(290,610,l),
(402,776,o),
(520,825,o),
(567,825,cs),
(696,825,o),
(815,674,o)
);
}
);
width = 1040;
},
{
anchors = (
{
name = L;
pos = (574,-100);
},
{
name = U;
pos = (574,1690);
}
);
layerId = "8BF1279D-F38F-4102-BF8D-9111B5ED49F5";
shapes = (
{
closed = 1;
nodes = (
(1025,507,c),
(1025,799,o),
(890,960,o),
(697,960,cs),
(621,960,o),
(498,917,o),
(365,802,c),
(365,929,ls),
(365,1310,o),
(469,1395,o),
(555,1395,cs),
(648,1395,o),
(734,1307,o),
(789,1238,c),
(828,1256,o),
(954,1371,o),
(954,1408,cs),
(954,1441,o),
(805,1550,o),
(656,1550,cs),
(530,1550,o),
(393,1482,o),
(319,1413,cs),
(183,1287,o),
(125,1160,o),
(125,836,cs),
(125,96,l),
(269,23,o),
(433,-30,o),
(507,-30,cs),
(758,-30,o),
(1025,275,o)
);
},
{
closed = 1;
nodes = (
(798,431,c),
(798,277,o),
(740,138,o),
(605,138,cs),
(558,138,o),
(471,161,o),
(365,218,c),
(365,678,l),
(462,761,o),
(528,788,o),
(575,788,cs),
(696,788,o),
(798,697,o)
);
}
);
width = 1100;
},
{
anchors = (
{
name = L;
pos = (564,-100);
},
{
name = U;
pos = (564,1690);
}
);
layerId = "E8A33793-4A0E-4E9A-9368-A1D232455500";
shapes = (
{
closed = 1;
nodes = (
(1000,502,c),
(1000,794,o),
(866,960,o),
(677,960,cs),
(601,960,o),
(473,907,o),
(340,777,c),
(340,931,ls),
(340,1312,o),
(455,1405,o),
(541,1405,cs),
(629,1405,o),
(713,1331,o),
(768,1262,c),
(807,1280,o),
(921,1380,o),
(921,1412,cs),
(921,1443,o),
(782,1550,o),
(643,1550,cs),
(542,1550,o),
(412,1493,o),
(339,1428,cs),
(201,1306,o),
(130,1177,o),
(130,851,cs),
(130,96,l),
(274,21,o),
(428,-30,o),
(494,-30,cs),
(760,-30,o),
(1000,270,o)
);
},
{
closed = 1;
nodes = (
(804,423,c),
(804,269,o),
(736,125,o),
(592,125,cs),
(545,125,o),
(446,148,o),
(340,213,c),
(340,655,l),
(442,766,o),
(525,800,o),
(572,800,cs),
(696,800,o),
(804,689,o)
);
}
);
width = 1080;
}
);
unicode = 595;
},
{
glyphname = c;
layers = (
{
anchors = (
{
name = H;
pos = (490,0);
},
{
name = L;
pos = (490,-100);
},
{
name = R;
pos = (895,900);
},
{
name = U;
pos = (490,1050);
}
);
hints = (
{
horizontal = 1;
name = hr00;
origin = (0,0);
target = (0,0);
type = Tag;
}
);
layerId = "DDA1A922-6BCD-4FE9-B3B8-E722553F0315";
shapes = (
{
closed = 1;
nodes = (
(840,190,c),
(801,231,l),
(653,104,o),
(612,100,o),
(537,100,cs),
(377,100,o),
(230,248,o),
(230,475,cs),
(230,725,o),
(360,850,o),
(500,850,cs),
(637,850,o),
(709,774,o),
(731,727,c),
(768,717,l),
(793,754,o),
(831,848,o),
(825,881,c),
(780,928,o),
(678,960,o),
(590,960,cs),
(303,960,o),
(80,731,o),
(80,444,cs),
(80,147,o),
(270,-30,o),
(465,-30,cs),
(590,-30,o),
(666,-14,o)
);
}
);
width = 895;
},
{
anchors = (
{
name = H;
pos = (511,0);
},
{
name = L;
pos = (511,-100);
},
{
name = R;
pos = (933,900);
},
{
name = U;
pos = (511,1050);
}
);
layerId = "8BF1279D-F38F-4102-BF8D-9111B5ED49F5";
shapes = (
{
closed = 1;
nodes = (
(893,190,c),
(839,254,l),
(698,149,o),
(642,138,o),
(567,138,cs),
(422,138,o),
(304,263,o),
(305,475,cs),
(306,733,o),
(413,835,o),
(530,835,cs),
(637,835,o),
(695,761,o),
(739,630,c),
(806,620,l),
(831,657,o),
(891,848,o),
(885,881,c),
(840,928,o),
(693,960,o),
(605,960,cs),
(288,960,o),
(65,731,o),
(65,444,cs),
(65,147,o),
(263,-30,o),
(480,-30,cs),
(605,-30,o),
(719,-7,o)
);
}
);
width = 933;
},
{
anchors = (
{
name = H;
pos = (504,0);
},
{
name = L;
pos = (504,-100);
},
{
name = R;
pos = (920,900);
},
{
name = U;
pos = (504,1050);
}
);
layerId = "E8A33793-4A0E-4E9A-9368-A1D232455500";
shapes = (
{
closed = 1;
nodes = (
(875,190,c),
(826,246,l),
(683,134,o),
(632,125,o),
(557,125,cs),
(407,125,o),
(279,258,o),
(280,475,cs),
(281,730,o),
(395,840,o),
(520,840,cs),
(637,840,o),
(700,765,o),
(736,662,c),
(793,652,l),
(818,689,o),
(871,848,o),
(865,881,c),
(820,928,o),
(688,960,o),
(600,960,cs),
(293,960,o),
(70,731,o),
(70,444,cs),
(70,147,o),
(265,-30,o),
(475,-30,cs),
(600,-30,o),
(701,-9,o)
);
}
);
width = 920;
}
);
unicode = 99;
},
{
glyphname = d;
layers = (
{
anchors = (
{
name = H;
pos = (820,0);
},
{
name = L;
pos = (525,-100);
},
{
name = R;
pos = (1065,900);
},
{
name = U;
pos = (335,1050);
}
);
hints = (
{
horizontal = 1;
name = hr00;
origin = (0,0);
target = (0,0);
type = Tag;
}
);
layerId = "DDA1A922-6BCD-4FE9-B3B8-E722553F0315";
shapes = (
{
closed = 1;
nodes = (
(1051,84,c),
(1038,127,l),
(958,96,o),
(930,92,o),
(918,106,cs),
(903,125,o),
(895,160,o),
(895,254,cs),
(895,1520,l),
(864,1550,l),
(795,1528,o),
(709,1499,o),
(600,1485,c),
(600,1446,l),
(741,1436,o),
(745,1421,o),
(745,1274,cs),
(745,897,l),
(673,950,o),
(613,960,o),
(551,960,cs),
(272,960,o),
(80,674,o),
(80,444,cs),
(80,147,o),
(268,-30,o),
(416,-30,cs),
(553,-30,o),
(645,46,o),
(747,169,c),
(756,24,o),
(785,-30,o),
(829,-30,cs),
(866,-30,o),
(928,2,o)
);
},
{
closed = 1;
nodes = (
(745,261,l),
(662,180,o),
(578,100,o),
(487,100,cs),
(377,100,o),
(230,248,o),
(230,475,cs),
(230,725,o),
(350,850,o),
(520,850,cs),
(615,850,o),
(701,806,o),
(745,730,c),
(745,272,l)
);
}
);
width = 1065;
},
{
anchors = (
{
name = H;
pos = (885,0);
},
{
name = L;
pos = (558,-100);
},
{
name = R;
pos = (1148,900);
},
{
name = U;
pos = (347,1050);
}
);
layerId = "8BF1279D-F38F-4102-BF8D-9111B5ED49F5";
shapes = (
{
closed = 1;
nodes = (
(1141,114,c),
(1113,187,l),
(1041,156,o),
(1023,157,o),
(1008,166,cs),
(992,177,o),
(985,205,o),
(985,299,cs),
(985,1513,l),
(947,1550,l),
(878,1528,o),
(754,1499,o),
(608,1485,c),
(608,1416,l),
(749,1406,o),
(745,1391,o),
(745,1244,cs),
(745,901,l),
(673,950,o),
(613,960,o),
(551,960,cs),
(265,960,o),
(65,712,o),
(65,444,cs),
(65,147,o),
(253,-30,o),
(431,-30,cs),
(555,-30,o),
(630,20,o),
(752,145,c),
(765,30,o),
(795,-30,o),
(844,-30,cs),
(881,-30,o),
(1018,32,o)
);
},
{
closed = 1;
nodes = (
(745,269,l),
(666,197,o),
(606,160,o),
(532,160,cs),
(422,160,o),
(305,286,o),
(305,498,cs),
(305,729,o),
(403,828,o),
(535,828,cs),
(624,828,o),
(697,783,o),
(745,706,c),
(745,302,l)
);
}
);
width = 1148;
},
{
anchors = (
{
name = H;
pos = (863,0);
},
{
name = L;
pos = (547,-100);
},
{
name = R;
pos = (1120,900);
},
{
name = U;
pos = (343,1050);
}
);
layerId = "E8A33793-4A0E-4E9A-9368-A1D232455500";
shapes = (
{
closed = 1;
nodes = (
(1111,104,c),
(1088,167,l),
(1013,136,o),
(992,135,o),
(978,146,cs),
(962,160,o),
(955,190,o),
(955,284,cs),
(955,1515,l),
(919,1550,l),
(850,1528,o),
(739,1499,o),
(605,1485,c),
(605,1426,l),
(746,1416,o),
(745,1401,o),
(745,1254,cs),
(745,900,l),
(673,950,o),
(613,960,o),
(551,960,cs),
(267,960,o),
(70,699,o),
(70,444,cs),
(70,147,o),
(258,-30,o),
(426,-30,cs),
(554,-30,o),
(635,29,o),
(750,153,c),
(762,28,o),
(792,-30,o),
(839,-30,cs),
(876,-30,o),
(988,22,o)
);
},
{
closed = 1;
nodes = (
(745,266,l),
(665,191,o),
(597,140,o),
(517,140,cs),
(407,140,o),
(280,273,o),
(280,490,cs),
(280,728,o),
(385,835,o),
(530,835,cs),
(621,835,o),
(698,791,o),
(745,714,c),
(745,292,l)
);
}
);
width = 1120;
}
);
unicode = 100;
},
{
glyphname = dcroat;
layers = (
{
anchors = (
{
name = L;
pos = (571,-100);
},
{
name = U;
pos = (571,1690);
}
);
hints = (
{
horizontal = 1;
name = hr00;
origin = (0,0);
target = (0,0);
type = Tag;
}
);
layerId = "DDA1A922-6BCD-4FE9-B3B8-E722553F0315";
shapes = (
{
closed = 1;
nodes = (
(1051,84,c),
(1038,127,l),
(958,96,o),
(930,92,o),
(918,106,cs),
(903,125,o),
(895,160,o),
(895,254,cs),
(895,1140,l),
(1040,1140,l),
(1063,1205,l),
(1040,1230,l),
(895,1230,l),
(895,1520,l),
(864,1550,l),
(795,1528,o),
(709,1499,o),
(600,1485,c),
(600,1446,l),
(741,1436,o),
(745,1421,o),
(745,1274,cs),
(745,1230,l),
(465,1230,l),
(455,1209,o),
(449,1183,o),
(442,1162,c),
(465,1140,l),
(745,1140,l),
(745,897,l),
(673,950,o),
(613,960,o),
(551,960,cs),
(272,960,o),
(80,674,o),
(80,444,cs),
(80,147,o),
(268,-30,o),
(416,-30,cs),
(553,-30,o),
(645,46,o),
(747,169,c),
(756,24,o),
(785,-31,o),
(829,-31,cs),
(866,-31,o),
(928,2,o)
);
},
{
closed = 1;
nodes = (
(745,261,l),
(662,180,o),
(578,100,o),
(487,100,cs),
(377,100,o),
(230,248,o),
(230,475,cs),
(230,725,o),
(350,850,o),
(520,850,cs),
(615,850,o),
(701,806,o),
(745,730,c),
(745,272,l)
);
}
);
width = 1065;
},
{
anchors = (
{
name = L;
pos = (608,-100);
},
{
name = U;
pos = (608,1690);
}
);
layerId = "8BF1279D-F38F-4102-BF8D-9111B5ED49F5";
shapes = (
{
closed = 1;
nodes = (
(1141,114,c),
(1113,187,l),
(1041,156,o),
(1023,157,o),
(1008,166,cs),
(992,177,o),
(985,205,o),
(985,299,cs),
(985,1114,l),
(1116,1114,l),
(1151,1209,l),
(1129,1234,l),
(985,1234,l),
(985,1513,l),
(947,1550,l),
(878,1528,o),
(754,1499,o),
(608,1485,c),
(608,1416,l),
(741,1406,o),
(745,1391,o),
(745,1259,cs),
(745,1234,l),
(469,1234,l),
(458,1213,o),
(439,1157,o),
(433,1136,c),
(456,1114,l),
(745,1114,l),
(745,901,l),
(673,950,o),
(613,960,o),
(551,960,cs),
(265,960,o),
(65,712,o),
(65,444,cs),
(65,147,o),
(253,-30,o),
(431,-30,cs),
(555,-30,o),
(630,20,o),
(752,145,c),
(765,30,o),
(795,-30,o),
(844,-30,cs),
(881,-30,o),
(1018,32,o)
);
},
{
closed = 1;
nodes = (
(745,269,l),
(666,197,o),
(606,160,o),
(532,160,cs),
(422,160,o),
(305,286,o),
(305,498,cs),
(305,729,o),
(403,828,o),
(535,828,cs),
(624,828,o),
(697,783,o),
(745,706,c),
(745,302,l)
);
}
);
width = 1148;
},
{
anchors = (
{
name = L;
pos = (596,-100);
},
{
name = U;
pos = (596,1690);
}
);
layerId = "E8A33793-4A0E-4E9A-9368-A1D232455500";
shapes = (
{
closed = 1;
nodes = (
(1111,104,c),
(1088,167,l),
(1013,136,o),
(992,135,o),
(978,146,cs),
(962,160,o),
(955,190,o),
(955,284,cs),
(955,1123,l),
(1091,1123,l),
(1122,1208,l),
(1099,1233,l),
(955,1233,l),
(955,1515,l),
(919,1550,l),
(850,1528,o),
(739,1499,o),
(605,1485,c),
(605,1426,l),
(741,1416,o),
(745,1401,o),
(745,1264,cs),
(745,1233,l),
(468,1233,l),
(457,1212,o),
(442,1166,o),
(436,1145,c),
(459,1123,l),
(745,1123,l),
(745,900,l),
(673,950,o),
(613,960,o),
(551,960,cs),
(267,960,o),
(70,699,o),
(70,444,cs),
(70,147,o),
(258,-30,o),
(426,-30,cs),
(554,-30,o),
(635,29,o),
(750,153,c),
(762,28,o),
(792,-30,o),
(839,-30,cs),
(876,-30,o),
(988,22,o)
);
},
{
closed = 1;
nodes = (
(745,266,l),
(665,191,o),
(597,140,o),
(517,140,cs),
(407,140,o),
(280,273,o),
(280,490,cs),
(280,728,o),
(385,835,o),
(530,835,cs),
(621,835,o),
(698,791,o),
(745,714,c),
(745,292,l)
);
}
);
width = 1120;
}
);
unicode = 273;
},
{
glyphname = dhook;
layers = (
{
anchors = (
{
name = L;
pos = (525,-100);
},
{
name = U;
pos = (335,1050);
}
);
hints = (
{
horizontal = 1;
name = hr00;
origin = (0,0);
target = (0,0);
type = Tag;
}
);
layerId = "DDA1A922-6BCD-4FE9-B3B8-E722553F0315";
shapes = (
{
closed = 1;
nodes = (
(1292,1423,cs),
(1292,1448,o),
(1210,1550,o),
(1094,1550,cs),
(1042,1550,o),
(961,1518,o),
(893,1458,c),
(788,1368,o),
(745,1278,o),
(745,1051,cs),
(745,897,l),
(673,950,o),
(613,960,o),
(551,960,cs),
(272,960,o),
(80,674,o),
(80,444,cs),
(80,147,o),
(268,-30,o),
(416,-30,cs),
(553,-30,o),
(645,46,o),
(747,169,c),
(756,24,o),
(785,-31,o),
(829,-31,cs),
(866,-31,o),
(928,2,o),
(1051,84,c),
(1038,127,l),
(958,96,o),
(930,92,o),
(918,106,cs),
(903,125,o),
(895,160,o),
(895,254,cs),
(895,1106,ls),
(895,1348,o),
(932,1425,o),
(1016,1425,cs),
(1053,1425,o),
(1110,1407,o),
(1165,1315,c),
(1204,1333,o),
(1292,1401,o)
);
},
{
closed = 1;
nodes = (
(745,261,l),
(662,180,o),
(578,100,o),
(487,100,cs),
(377,100,o),
(230,248,o),
(230,475,cs),
(230,725,o),
(350,850,o),
(520,850,cs),
(615,850,o),
(701,806,o),
(745,730,c),
(745,272,l)
);
}
);
width = 1065;
},
{
anchors = (
{
name = L;
pos = (558,-100);
},
{
name = U;
pos = (347,1050);
}
);
layerId = "8BF1279D-F38F-4102-BF8D-9111B5ED49F5";
shapes = (
{
closed = 1;
nodes = (
(1403,1411,cs),
(1403,1448,o),
(1287,1550,o),
(1154,1550,cs),
(1065,1550,o),
(968,1498,o),
(898,1432,cs),
(798,1337,o),
(745,1226,o),
(745,1044,cs),
(745,904,l),
(673,955,o),
(613,960,o),
(551,960,cs),
(272,960,o),
(65,719,o),
(65,444,cs),
(65,147,o),
(253,-30,o),
(431,-30,cs),
(556,-30,o),
(630,20,o),
(752,145,c),
(767,9,o),
(803,-31,o),
(844,-31,cs),
(881,-31,o),
(1018,32,o),
(1141,114,c),
(1113,187,l),
(1033,156,o),
(1020,152,o),
(1008,166,cs),
(993,185,o),
(985,205,o),
(985,299,cs),
(985,1054,ls),
(985,1296,o),
(1007,1395,o),
(1091,1395,cs),
(1128,1395,o),
(1178,1378,o),
(1210,1236,c),
(1290,1282,o),
(1403,1382,o)
);
},
{
closed = 1;
nodes = (
(745,269,l),
(667,197,o),
(606,160,o),
(532,160,cs),
(422,160,o),
(305,286,o),
(305,498,cs),
(305,725,o),
(403,828,o),
(535,828,cs),
(631,828,o),
(697,783,o),
(745,707,c),
(745,302,l)
);
}
);
width = 1148;
},
{
anchors = (
{
name = L;
pos = (547,-100);
},
{
name = U;
pos = (343,1050);
}
);
layerId = "E8A33793-4A0E-4E9A-9368-A1D232455500";
shapes = (
{
closed = 1;
nodes = (
(1366,1415,cs),
(1366,1448,o),
(1261,1550,o),
(1134,1550,cs),
(1057,1550,o),
(966,1505,o),
(896,1441,c),
(795,1347,o),
(745,1243,o),
(745,1046,cs),
(745,902,l),
(673,953,o),
(613,960,o),
(551,960,cs),
(272,960,o),
(70,704,o),
(70,444,cs),
(70,147,o),
(258,-30,o),
(426,-30,cs),
(555,-30,o),
(635,29,o),
(750,153,c),
(763,14,o),
(797,-31,o),
(839,-31,cs),
(876,-31,o),
(988,22,o),
(1111,104,c),
(1088,167,l),
(1008,136,o),
(990,132,o),
(978,146,cs),
(963,165,o),
(955,190,o),
(955,284,cs),
(955,1071,ls),
(955,1313,o),
(982,1405,o),
(1066,1405,cs),
(1103,1405,o),
(1155,1388,o),
(1195,1262,c),
(1261,1299,o),
(1366,1388,o)
);
},
{
closed = 1;
nodes = (
(745,266,l),
(665,191,o),
(597,140,o),
(517,140,cs),
(407,140,o),
(280,273,o),
(280,490,cs),
(280,725,o),
(385,835,o),
(530,835,cs),
(626,835,o),
(698,791,o),
(745,715,c),
(745,292,l)
);
}
);
width = 1120;
}
);
unicode = 599;
},
{
glyphname = dtail;
layers = (
{
anchors = (
{
name = L;
pos = (525,-100);
},
{
name = R;
pos = (1065,900);
},
{
name = U;
pos = (335,1050);
}
);
hints = (
{
horizontal = 1;
name = hr00;
origin = (0,0);
target = (0,0);
type = Tag;
}
);
layerId = "DDA1A922-6BCD-4FE9-B3B8-E722553F0315";
shapes = (
{
closed = 1;
nodes = (
(895,1520,l),
(864,1550,l),
(795,1528,o),
(711,1499,o),
(602,1485,c),
(602,1446,l),
(743,1436,o),
(745,1421,o),
(745,1274,cs),
(745,897,l),
(673,950,o),
(613,960,o),
(551,960,cs),
(272,960,o),
(80,674,o),
(80,444,cs),
(80,147,o),
(268,-30,o),
(416,-30,cs),
(552,-30,o),
(643,44,o),
(745,166,c),
(745,-227,ls),
(745,-371,o),
(786,-500,o),
(948,-500,cs),
(1143,-500,o),
(1311,-336,o),
(1303,-235,c),
(1284,-196,l),
(1243,-190,o),
(1110,-252,o),
(1118,-264,cs),
(1153,-321,o),
(1100,-405,o),
(1022,-405,cs),
(926,-405,o),
(895,-319,o),
(895,-166,cs)
);
},
{
closed = 1;
nodes = (
(487,100,cs),
(377,100,o),
(230,248,o),
(230,475,cs),
(230,725,o),
(350,850,o),
(520,850,cs),
(615,850,o),
(701,806,o),
(745,730,c),
(745,261,l),
(662,180,o),
(578,100,o)
);
}
);
width = 1030;
},
{
anchors = (
{
name = L;
pos = (558,-100);
},
{
name = R;
pos = (1148,900);
},
{
name = U;
pos = (347,1050);
}
);
layerId = "8BF1279D-F38F-4102-BF8D-9111B5ED49F5";
shapes = (
{
closed = 1;
nodes = (
(985,1513,l),
(947,1550,l),
(878,1528,o),
(755,1499,o),
(608,1485,c),
(608,1416,l),
(749,1406,o),
(745,1391,o),
(745,1244,cs),
(745,901,l),
(673,950,o),
(613,960,o),
(551,960,cs),
(265,960,o),
(65,712,o),
(65,444,cs),
(65,147,o),
(253,-30,o),
(431,-30,cs),
(552,-30,o),
(627,17,o),
(745,137,c),
(745,-212,ls),
(745,-356,o),
(816,-493,o),
(1023,-493,cs),
(1283,-493,o),
(1456,-299,o),
(1454,-192,c),
(1427,-136,l),
(1369,-130,o),
(1176,-195,o),
(1185,-210,cs),
(1218,-269,o),
(1172,-375,o),
(1097,-375,cs),
(1016,-375,o),
(985,-297,o),
(985,-144,cs)
);
},
{
closed = 1;
nodes = (
(532,160,cs),
(422,160,o),
(305,286,o),
(305,498,cs),
(305,729,o),
(403,828,o),
(535,828,cs),
(624,828,o),
(696,783,o),
(745,706,c),
(745,269,l),
(665,197,o),
(605,160,o)
);
}
);
width = 1139;
},
{
anchors = (
{
name = L;
pos = (547,-100);
},
{
name = R;
pos = (1120,900);
},
{
name = U;
pos = (343,1050);
}
);
layerId = "E8A33793-4A0E-4E9A-9368-A1D232455500";
shapes = (
{
closed = 1;
nodes = (
(955,1515,l),
(919,1550,l),
(850,1528,o),
(740,1499,o),
(606,1485,c),
(606,1426,l),
(747,1416,o),
(745,1401,o),
(745,1254,cs),
(745,900,l),
(673,950,o),
(613,960,o),
(551,960,cs),
(267,960,o),
(70,699,o),
(70,444,cs),
(70,147,o),
(258,-30,o),
(426,-30,cs),
(552,-30,o),
(632,26,o),
(745,147,c),
(745,-217,ls),
(745,-361,o),
(806,-495,o),
(998,-495,cs),
(1236,-495,o),
(1408,-311,o),
(1404,-206,c),
(1379,-156,l),
(1327,-150,o),
(1154,-214,o),
(1163,-228,cs),
(1196,-286,o),
(1148,-385,o),
(1072,-385,cs),
(986,-385,o),
(955,-304,o),
(955,-151,cs)
);
},
{
closed = 1;
nodes = (
(517,140,cs),
(407,140,o),
(280,273,o),
(280,490,cs),
(280,728,o),
(385,835,o),
(530,835,cs),
(621,835,o),
(698,791,o),
(745,714,c),
(745,266,l),
(664,191,o),
(596,140,o)
);
}
);
width = 1103;
}
);
unicode = 598;
},
{
glyphname = eth;
layers = (
{
anchors = (
{
name = L;
pos = (507,-100);
},
{
name = U;
pos = (507,1690);
}
);
hints = (
{
horizontal = 1;
name = hr00;
origin = (0,0);
target = (0,0);
type = Tag;
}
);
layerId = "DDA1A922-6BCD-4FE9-B3B8-E722553F0315";
shapes = (
{
closed = 1;
nodes = (
(935,592,cs),
(935,801,o),
(858,1019,o),
(673,1218,c),
(911,1321,l),
(905,1356,l),
(870,1368,o),
(874,1368,o),
(811,1378,c),
(603,1287,l),
(546,1340,o),
(480,1391,o),
(406,1440,c),
(205,1368,l),
(211,1327,l),
(323,1343,o),
(405,1296,o),
(478,1233,c),
(223,1122,l),
(233,1085,l),
(279,1071,o),
(274,1073,o),
(324,1067,c),
(550,1165,l),
(644,1069,o),
(712,963,o),
(750,829,c),
(682,902,o),
(585,960,o),
(506,960,cs),
(289,960,o),
(80,709,o),
(80,444,cs),
(80,172,o),
(236,-30,o),
(496,-30,cs),
(647,-30,o),
(935,129,o)
);
},
{
closed = 1;
nodes = (
(785,586,c),
(786,575,o),
(785,563,o),
(785,551,cs),
(785,223,o),
(653,80,o),
(506,80,cs),
(391,80,o),
(235,262,o),
(235,473,cs),
(235,686,o),
(317,850,o),
(475,850,cs),
(591,850,o),
(734,739,o)
);
}
);
width = 1020;
},
{
anchors = (
{
name = L;
pos = (522,-100);
},
{
name = U;
pos = (522,1690);
}
);
layerId = "8BF1279D-F38F-4102-BF8D-9111B5ED49F5";
shapes = (
{
closed = 1;
nodes = (
(980,607,cs),
(980,824,o),
(915,1032,o),
(743,1224,c),
(982,1323,l),
(975,1365,l),
(940,1377,o),
(909,1381,o),
(846,1387,c),
(659,1310,l),
(603,1361,o),
(521,1422,o),
(448,1470,c),
(180,1376,l),
(192,1305,l),
(307,1321,o),
(406,1286,o),
(480,1232,c),
(218,1122,l),
(229,1078,l),
(275,1064,o),
(304,1062,o),
(354,1060,c),
(565,1147,l),
(646,1056,o),
(687,974,o),
(714,870,c),
(660,927,o),
(587,960,o),
(506,960,cs),
(252,960,o),
(65,709,o),
(65,444,cs),
(65,172,o),
(236,-30,o),
(519,-30,cs),
(692,-30,o),
(980,146,o)
);
},
{
closed = 1;
nodes = (
(740,612,c),
(740,566,ls),
(740,238,o),
(676,95,o),
(529,95,cs),
(414,95,o),
(310,277,o),
(310,488,cs),
(310,701,o),
(370,828,o),
(490,828,cs),
(577,828,o),
(698,755,o)
);
}
);
width = 1046;
},
{
layerId = "E8A33793-4A0E-4E9A-9368-A1D232455500";
shapes = (
{
closed = 1;
nodes = (
(980,607,cs),
(980,824,o),
(915,1032,o),
(743,1224,c),
(982,1323,l),
(975,1365,l),
(940,1377,o),
(909,1381,o),
(846,1387,c),
(659,1310,l),
(603,1361,o),
(521,1422,o),
(448,1470,c),
(180,1376,l),
(192,1305,l),
(307,1321,o),
(406,1286,o),
(480,1232,c),
(218,1122,l),
(229,1078,l),
(275,1064,o),
(304,1062,o),
(354,1060,c),
(565,1147,l),
(646,1056,o),
(687,974,o),
(714,870,c),
(660,927,o),
(587,960,o),
(506,960,cs),
(252,960,o),
(65,709,o),
(65,444,cs),
(65,172,o),
(236,-30,o),
(519,-30,cs),
(692,-30,o),
(980,146,o)
);
},
{
closed = 1;
nodes = (
(740,612,c),
(740,566,ls),
(740,238,o),
(676,95,o),
(529,95,cs),
(414,95,o),
(310,277,o),
(310,488,cs),
(310,701,o),
(370,828,o),
(490,828,cs),
(577,828,o),
(698,755,o)
);
}
);
width = 1037;
}
);
unicode = 240;
},
{
glyphname = e;
layers = (
{
anchors = (
{
name = H;
pos = (500,0);
},
{
name = L;
pos = (500,-100);
},
{
name = O;
pos = (700,0);
},
{
name = R;
pos = (946,900);
},
{
name = U;
pos = (510,1050);
}
);
hints = (
{
horizontal = 1;
name = hr00;
origin = (0,0);
target = (0,0);
type = Tag;
}
);
layerId = "DDA1A922-6BCD-4FE9-B3B8-E722553F0315";
shapes = (
{
closed = 1;
nodes = (
(866,557,c),
(866,727,o),
(786,960,o),
(524,960,cs),
(453,960,o),
(360,922,o),
(301,881,cs),
(162,786,o),
(80,614,o),
(80,434,cs),
(80,152,o),
(260,-30,o),
(465,-30,cs),
(602,-30,o),
(682,0,o),
(860,195,c),
(854,205,o),
(840,227,o),
(823,236,c),
(674,113,o),
(610,100,o),
(526,100,cs),
(344,100,o),
(232,283,o),
(230,490,c),
(756,490,l),
(799,507,o),
(842,530,o)
);
},
{
closed = 1;
nodes = (
(496,855,cs),
(670,855,o),
(702,688,o),
(702,616,cs),
(702,588,o),
(694,580,o),
(664,580,cs),
(236,580,l),
(260,742,o),
(358,855,o)
);
}
);
width = 946;
},
{
anchors = (
{
name = H;
pos = (525,0);
},
{
name = L;
pos = (525,-100);
},
{
name = O;
pos = (744,0);
},
{
name = R;
pos = (991,900);
},
{
name = U;
pos = (536,1050);
}
);
layerId = "8BF1279D-F38F-4102-BF8D-9111B5ED49F5";
shapes = (
{
closed = 1;
nodes = (
(926,550,c),
(926,765,o),
(809,960,o),
(547,960,cs),
(446,960,o),
(341,918,o),
(271,866,cs),
(135,767,o),
(65,622,o),
(65,442,cs),
(65,160,o),
(253,-30,o),
(480,-30,cs),
(640,-30,o),
(735,8,o),
(920,195,c),
(914,205,o),
(885,250,o),
(868,259,c),
(712,151,o),
(648,138,o),
(564,138,cs),
(408,138,o),
(319,276,o),
(313,468,c),
(786,468,l),
(829,485,o),
(902,523,o)
);
},
{
closed = 1;
nodes = (
(511,840,cs),
(648,840,o),
(687,696,o),
(687,616,cs),
(687,588,o),
(679,580,o),
(649,580,cs),
(316,580,l),
(331,740,o),
(387,840,o)
);
}
);
width = 991;
},
{
anchors = (
{
name = H;
pos = (517,0);
},
{
name = L;
pos = (517,-100);
},
{
name = O;
pos = (729,0);
},
{
name = R;
pos = (976,900);
},
{
name = U;
pos = (527,1050);
}
);
layerId = "E8A33793-4A0E-4E9A-9368-A1D232455500";
shapes = (
{
closed = 1;
nodes = (
(906,552,c),
(906,752,o),
(801,960,o),
(539,960,cs),
(448,960,o),
(347,919,o),
(281,871,cs),
(144,773,o),
(70,619,o),
(70,439,cs),
(70,157,o),
(255,-30,o),
(475,-30,cs),
(627,-30,o),
(717,5,o),
(900,195,c),
(894,205,o),
(870,242,o),
(853,251,c),
(699,138,o),
(635,125,o),
(551,125,cs),
(387,125,o),
(290,278,o),
(285,475,c),
(776,475,l),
(819,492,o),
(882,525,o)
);
},
{
closed = 1;
nodes = (
(506,845,cs),
(655,845,o),
(692,693,o),
(692,616,cs),
(692,588,o),
(684,580,o),
(654,580,cs),
(289,580,l),
(307,741,o),
(377,845,o)
);
}
);
width = 976;
}
);
unicode = 101;
},
{
glyphname = eopen;
layers = (
{
anchors = (
{
name = H;
pos = (454,0);
},
{
name = L;
pos = (454,-100);
},
{
name = O;
pos = (520,0);
},
{
name = R;
pos = (874,900);
},
{
name = U;
pos = (454,1050);
}
);
hints = (
{
horizontal = 1;
name = hr01;
origin = (0,39);
target = (0,0);
type = Tag;
}
);
layerId = "DDA1A922-6BCD-4FE9-B3B8-E722553F0315";
shapes = (
{
closed = 1;
nodes = (
(829,190,c),
(791,231,l),
(631,102,o),
(553,95,o),
(477,95,cs),
(332,95,o),
(246,180,o),
(244,264,cs),
(242,354,o),
(334,455,o),
(543,469,c),
(532,522,l),
(289,539,o),
(253,625,o),
(253,707,cs),
(253,786,o),
(326,860,o),
(440,860,cs),
(582,860,o),
(659,782,o),
(682,727,c),
(719,717,l),
(741,754,o),
(780,848,o),
(774,881,c),
(721,930,o),
(614,960,o),
(520,960,cs),
(432,960,o),
(332,936,o),
(268,895,cs),
(180,842,o),
(113,760,o),
(113,676,cs),
(113,567,o),
(170,506,o),
(270,467,c),
(178,426,o),
(80,338,o),
(80,221,cs),
(80,78,o),
(203,-30,o),
(426,-30,cs),
(541,-30,o),
(655,-14,o)
);
}
);
width = 874;
},
{
anchors = (
{
name = H;
pos = (465,0);
},
{
name = L;
pos = (465,-100);
},
{
name = O;
pos = (536,0);
},
{
name = R;
pos = (904,900);
},
{
name = U;
pos = (465,1050);
}
);
layerId = "8BF1279D-F38F-4102-BF8D-9111B5ED49F5";
shapes = (
{
closed = 1;
nodes = (
(867,190,c),
(814,254,l),
(669,147,o),
(583,136,o),
(507,136,cs),
(392,136,o),
(320,195,o),
(319,279,cs),
(319,377,o),
(431,436,o),
(596,450,c),
(585,530,l),
(402,547,o),
(328,610,o),
(328,700,cs),
(328,779,o),
(379,841,o),
(478,841,cs),
(620,841,o),
(659,745,o),
(682,667,c),
(754,656,l),
(776,693,o),
(833,848,o),
(827,881,c),
(774,930,o),
(629,960,o),
(535,960,cs),
(447,960,o),
(352,946,o),
(268,901,cs),
(178,853,o),
(98,775,o),
(98,669,cs),
(98,560,o),
(170,499,o),
(285,460,c),
(193,426,o),
(65,338,o),
(65,221,cs),
(65,63,o),
(211,-30,o),
(441,-30,cs),
(564,-30,o),
(693,9,o)
);
}
);
width = 904;
},
{
anchors = (
{
name = H;
pos = (461,0);
},
{
name = L;
pos = (461,-100);
},
{
name = O;
pos = (531,0);
},
{
name = R;
pos = (894,900);
},
{
name = U;
pos = (461,1050);
}
);
layerId = "E8A33793-4A0E-4E9A-9368-A1D232455500";
shapes = (
{
closed = 1;
nodes = (
(854,190,c),
(806,246,l),
(656,132,o),
(573,122,o),
(497,122,cs),
(372,122,o),
(295,190,o),
(294,274,cs),
(293,369,o),
(399,442,o),
(578,456,c),
(567,527,l),
(364,544,o),
(303,615,o),
(303,702,cs),
(303,781,o),
(361,847,o),
(465,847,cs),
(607,847,o),
(659,757,o),
(682,687,c),
(742,676,l),
(764,713,o),
(815,848,o),
(809,881,c),
(756,930,o),
(624,960,o),
(530,960,cs),
(442,960,o),
(345,943,o),
(268,899,cs),
(179,849,o),
(103,770,o),
(103,671,cs),
(103,562,o),
(170,501,o),
(280,462,c),
(188,426,o),
(70,338,o),
(70,221,cs),
(70,68,o),
(208,-30,o),
(436,-30,cs),
(556,-30,o),
(680,1,o)
);
}
);
width = 894;
}
);
unicode = 603;
},
{
glyphname = esh;
layers = (
{
anchors = (
{
name = L;
pos = (227,-600);
},
{
name = U;
pos = (227,1690);
}
);
hints = (
{
horizontal = 1;
name = hr01;
origin = (0,3);
target = (0,0);
type = Tag;
},
{
horizontal = 1;
name = hr02;
origin = (0,24);
target = (0,0);
type = Tag;
}
);
layerId = "DDA1A922-6BCD-4FE9-B3B8-E722553F0315";
shapes = (
{
closed = 1;
nodes = (
(390,66,cs),
(390,300,o),
(282,839,o),
(282,1146,cs),
(282,1326,o),
(348,1425,o),
(417,1425,cs),
(452,1425,o),
(524,1399,o),
(587,1343,c),
(626,1362,o),
(714,1432,o),
(714,1454,cs),
(714,1477,o),
(608,1550,o),
(526,1550,cs),
(475,1550,o),
(368,1516,o),
(296,1458,cs),
(190,1372,o),
(122,1276,o),
(122,1031,cs),
(122,798,o),
(230,265,o),
(230,-50,cs),
(230,-261,o),
(144,-365,o),
(27,-365,cs),
(-23,-365,o),
(-90,-340,o),
(-133,-303,c),
(-172,-321,o),
(-260,-391,o),
(-260,-414,cs),
(-260,-436,o),
(-154,-500,o),
(-72,-500,cs),
(11,-500,o),
(121,-457,o),
(192,-400,cs),
(299,-314,o),
(390,-192,o)
);
}
);
width = 504;
},
{
anchors = (
{
name = L;
pos = (276,-600);
},
{
name = U;
pos = (276,1690);
}
);
layerId = "8BF1279D-F38F-4102-BF8D-9111B5ED49F5";
shapes = (
{
closed = 1;
nodes = (
(473,89,cs),
(473,323,o),
(365,839,o),
(365,1146,cs),
(365,1326,o),
(423,1395,o),
(485,1395,cs),
(535,1395,o),
(607,1339,o),
(655,1276,c),
(694,1287,o),
(819,1425,o),
(819,1454,cs),
(819,1477,o),
(691,1550,o),
(564,1550,cs),
(505,1550,o),
(391,1516,o),
(319,1458,cs),
(213,1372,o),
(115,1254,o),
(115,1016,cs),
(115,783,o),
(223,265,o),
(223,-50,cs),
(223,-261,o),
(159,-320,o),
(87,-320,cs),
(37,-320,o),
(-53,-273,o),
(-96,-221,c),
(-135,-239,o),
(-268,-361,o),
(-268,-384,cs),
(-268,-406,o),
(-169,-493,o),
(-27,-493,cs),
(56,-493,o),
(162,-453,o),
(233,-396,cs),
(340,-310,o),
(473,-170,o)
);
}
);
width = 579;
},
{
anchors = (
{
name = L;
pos = (260,-600);
},
{
name = U;
pos = (260,1690);
}
);
layerId = "E8A33793-4A0E-4E9A-9368-A1D232455500";
shapes = (
{
closed = 1;
nodes = (
(445,81,cs),
(445,315,o),
(337,839,o),
(337,1146,cs),
(337,1326,o),
(398,1405,o),
(462,1405,cs),
(507,1405,o),
(579,1359,o),
(632,1298,c),
(671,1312,o),
(784,1427,o),
(784,1454,cs),
(784,1477,o),
(663,1550,o),
(551,1550,cs),
(495,1550,o),
(383,1516,o),
(311,1458,cs),
(205,1372,o),
(117,1261,o),
(117,1021,cs),
(117,788,o),
(225,265,o),
(225,-50,cs),
(225,-261,o),
(154,-335,o),
(67,-335,cs),
(17,-335,o),
(-66,-295,o),
(-109,-248,c),
(-148,-266,o),
(-266,-371,o),
(-266,-394,cs),
(-266,-416,o),
(-164,-495,o),
(-42,-495,cs),
(41,-495,o),
(148,-454,o),
(219,-397,cs),
(326,-311,o),
(445,-177,o)
);
}
);
width = 554;
}
);
unicode = 643;
},
{
glyphname = eshreversedloop;
layers = (
{
anchors = (
{
name = L;
pos = (504,-600);
},
{
name = U;
pos = (504,1690);
}
);
hints = (
{
horizontal = 1;
name = hr00;
origin = (0,0);
target = (0,0);
type = Tag;
}
);
layerId = "DDA1A922-6BCD-4FE9-B3B8-E722553F0315";
shapes = (
{
closed = 1;
nodes = (
(30,1282,cs),
(30,1175,o),
(98,1092,o),
(213,1092,cs),
(281,1092,o),
(349,1120,o),
(409,1185,c),
(409,1172,o),
(410,1159,o),
(410,1146,cs),
(410,793,o),
(365,356,o),
(365,-40,cs),
(365,-324,o),
(451,-500,o),
(633,-500,cs),
(818,-500,o),
(986,-336,o),
(978,-235,c),
(959,-196,l),
(918,-190,o),
(785,-252,o),
(793,-264,cs),
(828,-321,o),
(775,-405,o),
(697,-405,cs),
(591,-405,o),
(525,-299,o),
(525,21,cs),
(525,355,o),
(570,802,o),
(570,1207,cs),
(570,1381,o),
(499,1550,o),
(337,1550,cs),
(162,1550,o),
(30,1399,o)
);
},
{
closed = 1;
nodes = (
(269,1213,cs),
(211,1213,o),
(155,1262,o),
(155,1334,cs),
(155,1396,o),
(205,1455,o),
(263,1455,cs),
(332,1455,o),
(378,1399,o),
(398,1291,c),
(373,1256,o),
(330,1213,o)
);
}
);
width = 706;
},
{
anchors = (
{
name = L;
pos = (553,-600);
},
{
name = U;
pos = (553,1690);
}
);
layerId = "8BF1279D-F38F-4102-BF8D-9111B5ED49F5";
shapes = (
{
closed = 1;
nodes = (
(15,1275,cs),
(15,1130,o),
(106,1047,o),
(251,1047,cs),
(308,1047,o),
(365,1067,o),
(418,1112,c),
(418,1071,ls),
(417,767,o),
(358,356,o),
(358,-40,cs),
(358,-324,o),
(466,-493,o),
(671,-493,cs),
(923,-493,o),
(1099,-321,o),
(1091,-190,c),
(1064,-136,l),
(1023,-130,o),
(815,-200,o),
(823,-212,cs),
(858,-269,o),
(813,-375,o),
(735,-375,cs),
(651,-375,o),
(608,-299,o),
(608,21,cs),
(608,355,o),
(668,802,o),
(668,1207,cs),
(668,1381,o),
(589,1550,o),
(375,1550,cs),
(147,1550,o),
(15,1407,o)
);
},
{
closed = 1;
nodes = (
(307,1213,cs),
(249,1213,o),
(215,1255,o),
(215,1327,cs),
(215,1396,o),
(265,1440,o),
(308,1440,cs),
(369,1440,o),
(398,1366,o),
(410,1257,c),
(384,1233,o),
(350,1213,o)
);
}
);
width = 796;
},
{
layerId = "E8A33793-4A0E-4E9A-9368-A1D232455500";
shapes = (
{
closed = 1;
nodes = (
(15,1275,cs),
(15,1130,o),
(106,1047,o),
(251,1047,cs),
(308,1047,o),
(365,1067,o),
(418,1112,c),
(418,1071,ls),
(417,767,o),
(358,356,o),
(358,-40,cs),
(358,-324,o),
(466,-493,o),
(671,-493,cs),
(923,-493,o),
(1099,-321,o),
(1091,-190,c),
(1064,-136,l),
(1023,-130,o),
(815,-200,o),
(823,-212,cs),
(858,-269,o),
(813,-375,o),
(735,-375,cs),
(651,-375,o),
(608,-299,o),
(608,21,cs),
(608,355,o),
(668,802,o),
(668,1207,cs),
(668,1381,o),
(589,1550,o),
(375,1550,cs),
(147,1550,o),
(15,1407,o)
);
},
{
closed = 1;
nodes = (
(307,1213,cs),
(249,1213,o),
(215,1255,o),
(215,1327,cs),
(215,1396,o),
(265,1440,o),
(308,1440,cs),
(369,1440,o),
(398,1366,o),
(410,1257,c),
(384,1233,o),
(350,1213,o)
);
}
);
width = 766;
}
);
unicode = 426;
},
{
glyphname = schwa;
layers = (
{
anchors = (
{
name = H;
pos = (460,0);
},
{
name = L;
pos = (460,-100);
},
{
name = O;
pos = (490,0);
},
{
name = U;
pos = (460,1050);
}
);
hints = (
{
horizontal = 1;
name = hr00;
origin = (0,0);
target = (0,0);
type = Tag;
}
);
layerId = "DDA1A922-6BCD-4FE9-B3B8-E722553F0315";
shapes = (
{
closed = 1;
nodes = (
(850,485,cs),
(850,782,o),
(664,960,o),
(469,960,cs),
(346,960,o),
(240,926,o),
(78,754,c),
(86,743,o),
(100,719,o),
(117,711,c),
(254,809,o),
(324,825,o),
(397,825,cs),
(561,825,o),
(694,690,o),
(699,470,c),
(240,470,l),
(193,452,o),
(145,428,o),
(106,408,c),
(84,377,o),
(70,332,o),
(70,279,cs),
(70,104,o),
(225,-30,o),
(416,-30,cs),
(535,-30,o),
(627,8,o),
(702,90,cs),
(793,188,o),
(850,328,o)
);
},
{
closed = 1;
nodes = (
(444,74,cs),
(342,74,o),
(230,168,o),
(230,293,cs),
(230,346,o),
(256,380,o),
(297,380,cs),
(697,380,l),
(680,181,o),
(595,74,o)
);
}
);
width = 930;
},
{
anchors = (
{
name = H;
pos = (495,0);
},
{
name = L;
pos = (495,-100);
},
{
name = O;
pos = (528,0);
},
{
name = U;
pos = (495,1050);
}
);
layerId = "8BF1279D-F38F-4102-BF8D-9111B5ED49F5";
shapes = (
{
closed = 1;
nodes = (
(929,500,cs),
(929,797,o),
(732,960,o),
(507,960,cs),
(354,960,o),
(238,912,o),
(76,740,c),
(84,729,o),
(111,685,o),
(128,677,c),
(265,775,o),
(354,791,o),
(427,791,cs),
(550,791,o),
(667,696,o),
(680,493,c),
(255,493,l),
(208,475,o),
(138,444,o),
(99,424,c),
(77,393,o),
(63,355,o),
(63,302,cs),
(63,112,o),
(225,-30,o),
(469,-30,cs),
(588,-30,o),
(710,23,o),
(785,105,cs),
(876,203,o),
(929,343,o)
);
},
{
closed = 1;
nodes = (
(482,89,cs),
(380,89,o),
(305,168,o),
(305,293,cs),
(305,346,o),
(330,380,o),
(371,380,cs),
(679,380,l),
(668,183,o),
(613,89,o)
);
}
);
width = 994;
},
{
anchors = (
{
name = H;
pos = (483,0);
},
{
name = L;
pos = (483,-100);
},
{
name = O;
pos = (515,0);
},
{
name = U;
pos = (483,1050);
}
);
layerId = "E8A33793-4A0E-4E9A-9368-A1D232455500";
shapes = (
{
closed = 1;
nodes = (
(902,495,cs),
(902,792,o),
(709,960,o),
(494,960,cs),
(351,960,o),
(238,917,o),
(76,745,c),
(84,734,o),
(107,696,o),
(124,688,c),
(261,786,o),
(344,802,o),
(417,802,cs),
(553,802,o),
(676,694,o),
(686,485,c),
(250,485,l),
(203,467,o),
(140,439,o),
(101,419,c),
(79,388,o),
(65,347,o),
(65,294,cs),
(65,109,o),
(225,-30,o),
(451,-30,cs),
(570,-30,o),
(682,18,o),
(757,100,cs),
(848,198,o),
(902,338,o)
);
},
{
closed = 1;
nodes = (
(469,84,cs),
(367,84,o),
(280,168,o),
(280,293,cs),
(280,346,o),
(305,380,o),
(346,380,cs),
(685,380,l),
(672,182,o),
(607,84,o)
);
}
);
width = 973;
}
);
unicode = 601;
},
{
glyphname = ezh;
layers = (
{
anchors = (
{
name = L;
pos = (444,-600);
},
{
name = U;
pos = (444,1050);
}
);
hints = (
{
horizontal = 1;
name = hr00;
origin = (0,0);
target = (0,0);
type = Tag;
}
);
layerId = "DDA1A922-6BCD-4FE9-B3B8-E722553F0315";
shapes = (
{
closed = 1;
nodes = (
(850,-26,cs),
(850,228,o),
(686,371,o),
(473,375,cs),
(452,375,o),
(430,373,o),
(408,371,c),
(805,887,l),
(780,930,l),
(291,930,ls),
(205,930,o),
(172,930,o),
(115,946,c),
(96,702,l),
(145,690,l),
(172,813,o),
(219,840,o),
(262,840,cs),
(602,840,l),
(174,290,l),
(180,279,o),
(200,253,o),
(209,246,c),
(262,264,o),
(315,274,o),
(369,274,c),
(580,279,o),
(700,103,o),
(700,-77,cs),
(700,-280,o),
(580,-395,o),
(421,-395,cs),
(332,-395,o),
(254,-339,o),
(177,-240,c),
(122,-248,o),
(38,-322,o),
(38,-337,cs),
(38,-382,o),
(192,-500,o),
(382,-500,cs),
(606,-500,o),
(850,-308,o)
);
}
);
width = 920;
},
{
anchors = (
{
name = L;
pos = (471,-600);
},
{
name = U;
pos = (471,1050);
}
);
layerId = "8BF1279D-F38F-4102-BF8D-9111B5ED49F5";
shapes = (
{
closed = 1;
nodes = (
(921,-34,cs),
(921,236,o),
(739,356,o),
(533,360,cs),
(522,360,o),
(503,358,o),
(491,357,c),
(897,887,l),
(874,930,l),
(291,930,ls),
(205,930,o),
(165,930,o),
(108,946,c),
(83,620,l),
(155,600,l),
(189,746,o),
(242,810,o),
(302,810,cs),
(601,810,l),
(183,275,l),
(187,264,o),
(209,221,o),
(218,209,c),
(285,231,o),
(347,248,o),
(399,248,c),
(610,253,o),
(681,88,o),
(681,-92,cs),
(681,-273,o),
(580,-354,o),
(466,-354,cs),
(362,-354,o),
(292,-277,o),
(233,-143,c),
(178,-151,o),
(21,-265,o),
(21,-295,cs),
(21,-355,o),
(185,-493,o),
(412,-493,cs),
(650,-493,o),
(921,-316,o)
);
}
);
width = 976;
},
{
anchors = (
{
name = L;
pos = (462,-600);
},
{
name = U;
pos = (462,1050);
}
);
layerId = "E8A33793-4A0E-4E9A-9368-A1D232455500";
shapes = (
{
closed = 1;
nodes = (
(898,-31,cs),
(898,233,o),
(722,361,o),
(513,365,cs),
(499,365,o),
(479,363,o),
(464,362,c),
(867,887,l),
(843,930,l),
(291,930,ls),
(205,930,o),
(168,930,o),
(111,946,c),
(88,647,l),
(152,630,l),
(184,768,o),
(235,820,o),
(289,820,cs),
(602,820,l),
(180,280,l),
(185,269,o),
(206,232,o),
(215,221,c),
(278,242,o),
(337,257,o),
(389,257,c),
(600,262,o),
(688,93,o),
(688,-87,cs),
(688,-275,o),
(580,-368,o),
(451,-368,cs),
(352,-368,o),
(280,-298,o),
(215,-175,c),
(160,-183,o),
(27,-284,o),
(27,-309,cs),
(27,-364,o),
(188,-495,o),
(402,-495,cs),
(636,-495,o),
(898,-313,o)
);
}
);
width = 957;
}
);
unicode = 658;
},
{
glyphname = f;
layers = (
{
anchors = (
{
name = H;
pos = (275,0);
},
{
name = L;
pos = (325,-100);
},
{
name = U;
pos = (420,1620);
}
);
hints = (
{
horizontal = 1;
name = hr00;
origin = (0,0);
target = (0,0);
type = Tag;
}
);
layerId = "DDA1A922-6BCD-4FE9-B3B8-E722553F0315";
shapes = (
{
closed = 1;
nodes = (
(817,1454,c),
(817,1477,o),
(711,1550,o),
(629,1550,cs),
(578,1550,o),
(471,1516,o),
(399,1458,cs),
(293,1372,o),
(200,1276,o),
(200,961,cs),
(200,930,l),
(123,930,l),
(45,863,l),
(66,835,l),
(200,835,l),
(200,102,ls),
(200,86,o),
(151,59,o),
(60,43,c),
(60,0,l),
(559,0,l),
(559,43,l),
(403,72,o),
(350,86,o),
(350,102,cs),
(350,835,l),
(457,835,o),
(508,816,o),
(539,800,c),
(563,812,o),
(612,864,o),
(637,901,c),
(608,930,l),
(350,930,l),
(350,1016,ls),
(350,1346,o),
(451,1425,o),
(520,1425,cs),
(555,1425,o),
(627,1399,o),
(690,1343,c),
(729,1362,o),
(817,1432,o)
);
}
);
width = 637;
},
{
anchors = (
{
name = H;
pos = (292,0);
},
{
name = L;
pos = (347,-100);
},
{
name = U;
pos = (480,1620);
}
);
layerId = "8BF1279D-F38F-4102-BF8D-9111B5ED49F5";
shapes = (
{
closed = 1;
nodes = (
(891,1454,c),
(891,1477,o),
(770,1550,o),
(650,1550,cs),
(569,1550,o),
(452,1508,o),
(354,1413,cs),
(247,1311,o),
(185,1181,o),
(185,961,cs),
(185,930,l),
(116,930,l),
(38,841,l),
(66,805,l),
(185,805,l),
(185,132,ls),
(185,116,o),
(144,89,o),
(53,73,c),
(53,0,l),
(627,0,l),
(627,73,l),
(471,102,o),
(425,116,o),
(425,132,cs),
(425,805,l),
(532,805,o),
(582,786,o),
(613,770,c),
(637,790,o),
(686,849,o),
(711,894,c),
(674,930,l),
(425,930,l),
(425,1016,ls),
(425,1324,o),
(487,1395,o),
(556,1395,cs),
(599,1395,o),
(663,1362,o),
(726,1283,c),
(765,1302,o),
(891,1410,o)
);
}
);
width = 696;
},
{
anchors = (
{
name = H;
pos = (286,0);
},
{
name = L;
pos = (340,-100);
},
{
name = U;
pos = (460,1620);
}
);
layerId = "E8A33793-4A0E-4E9A-9368-A1D232455500";
shapes = (
{
closed = 1;
nodes = (
(866,1454,c),
(866,1477,o),
(750,1550,o),
(643,1550,cs),
(572,1550,o),
(458,1511,o),
(369,1428,cs),
(262,1331,o),
(190,1213,o),
(190,961,cs),
(190,930,l),
(118,930,l),
(40,848,l),
(66,815,l),
(190,815,l),
(190,122,ls),
(190,106,o),
(146,79,o),
(55,63,c),
(55,0,l),
(604,0,l),
(604,63,l),
(448,92,o),
(400,106,o),
(400,122,cs),
(400,815,l),
(507,815,o),
(557,796,o),
(588,780,c),
(612,797,o),
(661,854,o),
(686,896,c),
(652,930,l),
(400,930,l),
(400,1016,ls),
(400,1331,o),
(475,1405,o),
(544,1405,cs),
(584,1405,o),
(651,1374,o),
(714,1303,c),
(753,1322,o),
(866,1417,o)
);
}
);
width = 676;
}
);
unicode = 102;
},
{
glyphname = g;
layers = (
{
anchors = (
{
name = H;
pos = (500,-470);
},
{
name = L;
pos = (500,-600);
},
{
name = R;
pos = (999,900);
},
{
name = U;
pos = (500,1050);
}
);
hints = (
{
horizontal = 1;
name = hr00;
origin = (0,0);
target = (0,0);
type = Tag;
}
);
layerId = "DDA1A922-6BCD-4FE9-B3B8-E722553F0315";
shapes = (
{
closed = 1;
nodes = (
(830,641,cs),
(830,704,o),
(810,763,o),
(775,813,c),
(836,815,o),
(882,821,o),
(932,830,c),
(963,863,o),
(973,893,o),
(989,930,c),
(969,960,l),
(914,939,o),
(833,909,o),
(693,895,c),
(636,936,o),
(564,960,o),
(485,960,cs),
(291,960,o),
(100,798,o),
(100,602,cs),
(100,453,o),
(191,346,o),
(326,309,c),
(203,224,o),
(182,175,o),
(182,153,cs),
(182,113,o),
(211,73,o),
(297,42,c),
(69,-80,o),
(30,-159,o),
(30,-229,cs),
(30,-423,o),
(281,-500,o),
(467,-500,cs),
(702,-500,o),
(970,-339,o),
(970,-120,cs),
(970,-26,o),
(893,78,o),
(602,110,c),
(393,135,o),
(346,164,o),
(346,196,cs),
(346,204,o),
(367,242,o),
(430,295,c),
(434,295,ls),
(629,295,o),
(830,437,o)
);
},
{
closed = 1;
nodes = (
(518,-4,cs),
(760,-31,o),
(820,-83,o),
(820,-157,cs),
(820,-295,o),
(702,-395,o),
(522,-395,cs),
(340,-395,o),
(180,-302,o),
(180,-190,cs),
(180,-147,o),
(197,-87,o),
(388,16,c),
(425,8,o),
(468,1,o)
);
},
{
closed = 1;
nodes = (
(690,600,cs),
(690,468,o),
(592,400,o),
(514,400,cs),
(326,400,o),
(240,517,o),
(240,659,cs),
(240,791,o),
(350,860,o),
(416,860,cs),
(596,860,o),
(690,742,o)
);
}
);
width = 999;
},
{
anchors = (
{
name = H;
pos = (525,-470);
},
{
name = L;
pos = (525,-600);
},
{
name = R;
pos = (1059,900);
},
{
name = U;
pos = (525,1050);
}
);
layerId = "8BF1279D-F38F-4102-BF8D-9111B5ED49F5";
shapes = (
{
closed = 1;
nodes = (
(898,641,cs),
(898,695,o),
(882,746,o),
(854,792,c),
(910,794,o),
(955,800,o),
(1000,808,c),
(1023,841,o),
(1048,893,o),
(1057,923,c),
(1029,960,l),
(975,940,o),
(875,905,o),
(760,890,c),
(696,933,o),
(615,960,o),
(523,960,cs),
(291,960,o),
(85,798,o),
(85,602,cs),
(85,460,o),
(185,355,o),
(334,314,c),
(200,223,o),
(152,153,o),
(152,123,cs),
(152,89,o),
(191,55,o),
(266,25,c),
(62,-87,o),
(15,-156,o),
(15,-222,cs),
(15,-416,o),
(296,-493,o),
(505,-493,cs),
(762,-493,o),
(1038,-294,o),
(1038,-105,cs),
(1038,27,o),
(953,101,o),
(640,140,c),
(431,167,o),
(414,187,o),
(414,211,cs),
(414,219,o),
(422,248,o),
(473,295,c),
(483,295,ls),
(704,295,o),
(898,437,o)
);
},
{
closed = 1;
nodes = (
(556,-42,cs),
(768,-69,o),
(805,-121,o),
(805,-172,cs),
(805,-265,o),
(732,-350,o),
(575,-350,cs),
(393,-350,o),
(255,-272,o),
(255,-183,cs),
(255,-144,o),
(264,-97,o),
(387,-12,c),
(436,-23,o),
(492,-34,o)
);
},
{
closed = 1;
nodes = (
(668,600,cs),
(668,475,o),
(600,415,o),
(522,415,cs),
(379,415,o),
(315,525,o),
(315,659,cs),
(315,784,o),
(395,845,o),
(461,845,cs),
(596,845,o),
(668,735,o)
);
}
);
width = 1059;
},
{
anchors = (
{
name = H;
pos = (517,-470);
},
{
name = L;
pos = (517,-600);
},
{
name = R;
pos = (1039,900);
},
{
name = U;
pos = (517,1050);
}
);
layerId = "E8A33793-4A0E-4E9A-9368-A1D232455500";
shapes = (
{
closed = 1;
nodes = (
(875,641,cs),
(875,698,o),
(858,752,o),
(828,799,c),
(885,801,o),
(931,807,o),
(977,815,c),
(1003,848,o),
(1023,893,o),
(1034,925,c),
(1009,960,l),
(955,940,o),
(861,906,o),
(738,892,c),
(676,934,o),
(598,960,o),
(510,960,cs),
(291,960,o),
(90,798,o),
(90,602,cs),
(90,458,o),
(187,352,o),
(331,312,c),
(201,223,o),
(162,160,o),
(162,133,cs),
(162,97,o),
(198,61,o),
(276,31,c),
(64,-85,o),
(20,-157,o),
(20,-224,cs),
(20,-418,o),
(291,-495,o),
(492,-495,cs),
(742,-495,o),
(1015,-309,o),
(1015,-110,cs),
(1015,9,o),
(933,93,o),
(627,130,c),
(418,156,o),
(391,179,o),
(391,206,cs),
(391,214,o),
(404,246,o),
(459,295,c),
(467,295,ls),
(679,295,o),
(875,437,o)
);
},
{
closed = 1;
nodes = (
(543,-29,cs),
(765,-56,o),
(810,-108,o),
(810,-167,cs),
(810,-275,o),
(722,-365,o),
(557,-365,cs),
(375,-365,o),
(230,-282,o),
(230,-185,cs),
(230,-145,o),
(242,-94,o),
(387,-3,c),
(432,-13,o),
(484,-22,o)
);
},
{
closed = 1;
nodes = (
(675,600,cs),
(675,473,o),
(597,410,o),
(519,410,cs),
(361,410,o),
(290,522,o),
(290,659,cs),
(290,786,o),
(380,850,o),
(446,850,cs),
(596,850,o),
(675,737,o)
);
}
);
width = 1039;
}
);
unicode = 103;
},
{
glyphname = "gamma-latin";
layers = (
{
anchors = (
{
name = L;
pos = (504,-600);
},
{
name = U;
pos = (504,1050);
}
);
hints = (
{
horizontal = 1;
name = hr00;
origin = (0,0);
target = (0,0);
type = Tag;
}
);
layerId = "DDA1A922-6BCD-4FE9-B3B8-E722553F0315";
shapes = (
{
closed = 1;
nodes = (
(989,887,c),
(989,930,l),
(655,930,l),
(655,887,l),
(754,872,o),
(778,858,o),
(760,819,c),
(525,340,l),
(301,819,l),
(283,860,o),
(303,874,o),
(406,887,c),
(406,930,l),
(20,930,l),
(20,887,l),
(86,872,o),
(117,854,o),
(131,819,c),
(438,160,l),
(364,9,ls),
(287,-149,o),
(268,-217,o),
(268,-284,cs),
(268,-414,o),
(365,-500,o),
(483,-500,cs),
(662,-500,o),
(740,-333,o),
(740,-235,cs),
(740,-126,o),
(711,-54,o),
(635,107,cs),
(581,220,l),
(879,819,ls),
(897,856,o),
(909,868,o)
);
},
{
closed = 1;
nodes = (
(517,-9,l),
(587,-166,o),
(602,-207,o),
(602,-282,cs),
(602,-343,o),
(547,-395,o),
(496,-395,cs),
(444,-395,o),
(379,-363,o),
(379,-251,cs),
(379,-207,o),
(403,-140,o),
(493,42,c)
);
}
);
width = 1010;
},
{
anchors = (
{
name = L;
pos = (519,-600);
},
{
name = U;
pos = (519,1050);
}
);
layerId = "8BF1279D-F38F-4102-BF8D-9111B5ED49F5";
shapes = (
{
closed = 1;
nodes = (
(1027,857,c),
(1027,930,l),
(670,930,l),
(670,857,l),
(769,842,o),
(787,827,o),
(768,789,cs),
(567,402,l),
(376,789,ls),
(357,829,o),
(363,844,o),
(466,857,c),
(466,930,l),
(13,930,l),
(13,857,l),
(79,842,o),
(100,823,o),
(116,789,cs),
(432,141,l),
(364,9,ls),
(283,-148,o),
(261,-210,o),
(261,-284,cs),
(261,-399,o),
(365,-493,o),
(513,-493,cs),
(707,-493,o),
(819,-341,o),
(819,-220,cs),
(819,-111,o),
(789,-45,o),
(710,115,cs),
(643,249,l),
(917,789,ls),
(935,826,o),
(947,838,o)
);
},
{
closed = 1;
nodes = (
(605,-267,cs),
(605,-321,o),
(555,-379,o),
(504,-379,cs),
(452,-379,o),
(399,-326,o),
(399,-259,cs),
(399,-220,o),
(438,-157,o),
(509,-16,c),
(578,-159,o),
(605,-207,o)
);
}
);
width = 1040;
},
{
layerId = "E8A33793-4A0E-4E9A-9368-A1D232455500";
shapes = (
{
closed = 1;
nodes = (
(364,9,ls),
(283,-148,o),
(261,-210,o),
(261,-284,cs),
(261,-399,o),
(365,-493,o),
(513,-493,cs),
(707,-493,o),
(819,-341,o),
(819,-220,cs),
(819,-111,o),
(789,-45,o),
(710,115,cs),
(643,249,l),
(909,799,ls),
(927,836,o),
(934,848,o),
(1014,867,c),
(1014,930,l),
(691,930,l),
(691,867,l),
(784,852,o),
(799,839,o),
(780,799,cs),
(568,357,l),
(343,799,ls),
(322,841,o),
(343,854,o),
(446,867,c),
(446,930,l),
(15,930,l),
(15,867,l),
(81,852,o),
(107,835,o),
(121,799,c),
(432,141,l)
);
},
{
closed = 1;
nodes = (
(614,-267,cs),
(614,-321,o),
(555,-360,o),
(504,-360,cs),
(452,-360,o),
(409,-326,o),
(409,-259,cs),
(409,-220,o),
(438,-117,o),
(509,24,c),
(578,-119,o),
(614,-207,o)
);
}
);
width = 1030;
}
);
unicode = 611;
},
{
glyphname = glottalstopsmall;
layers = (
{
anchors = (
{
name = L;
pos = (395,-100);
},
{
name = U;
pos = (395,1050);
}
);
layerId = "DDA1A922-6BCD-4FE9-B3B8-E722553F0315";
shapes = (
{
closed = 1;
nodes = (
(640,0,l),
(640,43,l),
(531,61,o),
(470,84,o),
(470,104,cs),
(470,305,ls),
(470,500,o),
(740,498,o),
(740,715,cs),
(740,852,o),
(628,960,o),
(462,960,cs),
(269,960,o),
(70,841,o),
(70,673,cs),
(70,663,o),
(70,650,o),
(72,640,c),
(99,610,l),
(158,616,o),
(203,626,o),
(246,648,c),
(240,667,o),
(234,687,o),
(234,706,cs),
(234,790,o),
(288,865,o),
(384,865,cs),
(493,865,o),
(590,794,o),
(590,670,cs),
(590,510,o),
(320,495,o),
(320,266,cs),
(320,104,ls),
(320,82,o),
(265,63,o),
(150,43,c),
(150,0,l)
);
}
);
width = 820;
},
{
anchors = (
{
name = L;
pos = (433,-100);
},
{
name = U;
pos = (433,1050);
}
);
layerId = "8BF1279D-F38F-4102-BF8D-9111B5ED49F5";
shapes = (
{
closed = 1;
nodes = (
(715,0,l),
(715,73,l),
(606,91,o),
(553,114,o),
(553,134,cs),
(553,313,ls),
(553,508,o),
(830,506,o),
(830,723,cs),
(830,860,o),
(718,960,o),
(500,960,cs),
(254,960,o),
(55,834,o),
(55,651,cs),
(55,641,o),
(56,624,o),
(60,610,c),
(87,580,l),
(154,586,o),
(274,615,o),
(324,641,c),
(314,660,o),
(309,687,o),
(309,706,cs),
(309,790,o),
(371,842,o),
(429,842,cs),
(508,842,o),
(583,787,o),
(583,663,cs),
(583,480,o),
(313,488,o),
(313,259,cs),
(313,134,ls),
(313,112,o),
(265,93,o),
(150,73,c),
(150,0,l)
);
}
);
width = 895;
},
{
anchors = (
{
name = L;
pos = (420,-100);
},
{
name = U;
pos = (420,1050);
}
);
layerId = "E8A33793-4A0E-4E9A-9368-A1D232455500";
shapes = (
{
closed = 1;
nodes = (
(690,0,l),
(690,63,l),
(581,81,o),
(525,104,o),
(525,124,cs),
(525,310,ls),
(525,505,o),
(800,503,o),
(800,720,cs),
(800,857,o),
(688,960,o),
(487,960,cs),
(259,960,o),
(60,836,o),
(60,658,cs),
(60,648,o),
(61,633,o),
(64,620,c),
(91,590,l),
(155,596,o),
(250,619,o),
(298,643,c),
(289,662,o),
(284,687,o),
(284,706,cs),
(284,790,o),
(343,850,o),
(414,850,cs),
(503,850,o),
(585,789,o),
(585,665,cs),
(585,490,o),
(315,490,o),
(315,261,cs),
(315,124,ls),
(315,102,o),
(265,83,o),
(150,63,c),
(150,0,l)
);
}
);
width = 870;
}
);
unicode = 578;
},
{
glyphname = h;
layers = (
{
anchors = (
{
name = H;
pos = (257,0);
},
{
name = L;
pos = (577,-100);
},
{
name = U;
pos = (577,1620);
}
);
hints = (
{
horizontal = 1;
name = hr00;
origin = (0,0);
target = (0,0);
type = Tag;
}
);
layerId = "DDA1A922-6BCD-4FE9-B3B8-E722553F0315";
shapes = (
{
closed = 1;
nodes = (
(1100,0,l),
(1100,43,l),
(995,70,o),
(960,86,o),
(960,104,cs),
(960,741,ls),
(960,891,o),
(854,960,o),
(739,960,cs),
(635,960,o),
(460,854,o),
(345,684,c),
(345,1516,l),
(308,1550,l),
(232,1511,o),
(168,1491,o),
(55,1470,c),
(55,1430,l),
(184,1415,o),
(195,1409,o),
(195,1298,cs),
(195,104,ls),
(195,82,o),
(143,66,o),
(55,43,c),
(55,0,l),
(485,0,l),
(485,43,l),
(399,61,o),
(345,84,o),
(345,104,cs),
(345,549,l),
(460,735,o),
(590,830,o),
(682,830,cs),
(770,830,o),
(810,795,o),
(810,633,cs),
(810,104,ls),
(810,86,o),
(766,68,o),
(670,43,c),
(670,0,l)
);
}
);
width = 1130;
},
{
anchors = (
{
name = H;
pos = (264,0);
},
{
name = L;
pos = (607,-100);
},
{
name = U;
pos = (607,1620);
}
);
layerId = "8BF1279D-F38F-4102-BF8D-9111B5ED49F5";
shapes = (
{
closed = 1;
nodes = (
(1168,0,l),
(1168,73,l),
(1063,100,o),
(1035,116,o),
(1035,134,cs),
(1035,704,ls),
(1035,891,o),
(929,960,o),
(814,960,cs),
(710,960,o),
(573,907,o),
(420,782,c),
(420,1509,l),
(376,1550,l),
(277,1511,o),
(198,1491,o),
(48,1470,c),
(48,1400,l),
(177,1385,o),
(180,1379,o),
(180,1268,cs),
(180,134,ls),
(180,112,o),
(136,96,o),
(48,73,c),
(48,0,l),
(553,0,l),
(553,73,l),
(467,91,o),
(420,114,o),
(420,134,cs),
(420,639,l),
(528,728,o),
(605,778,o),
(682,778,cs),
(763,778,o),
(795,735,o),
(795,573,cs),
(795,134,ls),
(795,116,o),
(759,98,o),
(663,73,c),
(663,0,l)
);
}
);
width = 1190;
},
{
anchors = (
{
name = H;
pos = (262,0);
},
{
name = L;
pos = (597,-100);
},
{
name = U;
pos = (597,1620);
}
);
layerId = "E8A33793-4A0E-4E9A-9368-A1D232455500";
shapes = (
{
closed = 1;
nodes = (
(1145,0,l),
(1145,63,l),
(1040,90,o),
(1010,106,o),
(1010,124,cs),
(1010,716,ls),
(1010,891,o),
(904,960,o),
(789,960,cs),
(685,960,o),
(535,889,o),
(395,749,c),
(395,1511,l),
(353,1550,l),
(262,1511,o),
(188,1491,o),
(50,1470,c),
(50,1410,l),
(179,1395,o),
(185,1389,o),
(185,1278,cs),
(185,124,ls),
(185,102,o),
(138,86,o),
(50,63,c),
(50,0,l),
(530,0,l),
(530,63,l),
(444,81,o),
(395,104,o),
(395,124,cs),
(395,609,l),
(505,730,o),
(600,795,o),
(682,795,cs),
(765,795,o),
(800,755,o),
(800,593,cs),
(800,124,ls),
(800,106,o),
(761,88,o),
(665,63,c),
(665,0,l)
);
}
);
width = 1170;
}
);
unicode = 104;
},
{
glyphname = i;
layers = (
{
anchors = (
{
name = H;
pos = (285,0);
},
{
name = L;
pos = (285,-100);
},
{
name = O;
pos = (335,0);
},
{
name = R;
pos = (555,900);
},
{
name = U;
pos = (285,1050);
}
);
hints = (
{
horizontal = 1;
name = hr01;
origin = (1,4);
target = (0,0);
type = Tag;
}
);
layerId = "DDA1A922-6BCD-4FE9-B3B8-E722553F0315";
shapes = (
{
closed = 1;
nodes = (
(390,1261,c),
(390,1323,o),
(362,1356,o),
(305,1356,cs),
(242,1356,o),
(190,1296,o),
(190,1220,cs),
(190,1159,o),
(215,1124,o),
(274,1124,cs),
(340,1124,o),
(390,1186,o)
);
},
{
closed = 1;
nodes = (
(500,0,l),
(500,43,l),
(403,61,o),
(360,88,o),
(360,104,cs),
(360,960,l),
(326,960,l),
(258,927,o),
(154,896,o),
(70,880,c),
(70,840,l),
(211,827,o),
(210,807,o),
(210,670,cs),
(210,104,ls),
(210,86,o),
(160,61,o),
(70,43,c),
(70,0,l)
);
}
);
width = 555;
},
{
anchors = (
{
name = H;
pos = (315,0);
},
{
name = L;
pos = (315,-100);
},
{
name = O;
pos = (373,0);
},
{
name = R;
pos = (615,900);
},
{
name = U;
pos = (315,1050);
}
);
layerId = "8BF1279D-F38F-4102-BF8D-9111B5ED49F5";
shapes = (
{
closed = 1;
nodes = (
(473,1261,c),
(473,1338,o),
(407,1371,o),
(335,1371,cs),
(242,1371,o),
(168,1311,o),
(168,1220,cs),
(168,1144,o),
(231,1109,o),
(305,1109,cs),
(401,1109,o),
(473,1171,o)
);
},
{
closed = 1;
nodes = (
(568,0,l),
(568,73,l),
(471,91,o),
(435,118,o),
(435,134,cs),
(435,960,l),
(371,960,l),
(281,927,o),
(177,904,o),
(63,888,c),
(63,818,l),
(204,805,o),
(195,785,o),
(195,648,cs),
(195,134,ls),
(195,116,o),
(153,91,o),
(63,73,c),
(63,0,l)
);
}
);
width = 615;
},
{
anchors = (
{
name = H;
pos = (305,0);
},
{
name = L;
pos = (305,-100);
},
{
name = O;
pos = (360,0);
},
{
name = R;
pos = (595,900);
},
{
name = U;
pos = (305,1050);
}
);
layerId = "E8A33793-4A0E-4E9A-9368-A1D232455500";
shapes = (
{
closed = 1;
nodes = (
(445,1261,c),
(445,1333,o),
(392,1366,o),
(325,1366,cs),
(242,1366,o),
(175,1306,o),
(175,1220,cs),
(175,1149,o),
(225,1114,o),
(294,1114,cs),
(380,1114,o),
(445,1176,o)
);
},
{
closed = 1;
nodes = (
(545,0,l),
(545,63,l),
(448,81,o),
(410,108,o),
(410,124,cs),
(410,960,l),
(356,960,l),
(273,927,o),
(169,901,o),
(65,885,c),
(65,825,l),
(206,812,o),
(200,792,o),
(200,655,cs),
(200,124,ls),
(200,106,o),
(155,81,o),
(65,63,c),
(65,0,l)
);
}
);
width = 595;
}
);
unicode = 105;
},
